<svg version="1.1" viewBox="0 0 1277 648" xml:space="preserve" xmlns="http://www.w3.org/2000/svg"><defs><linearGradient id="SVGID_1_-0" x1="827.7" x2="847.5" y1="410.2" y2="410.2" gradientUnits="userSpaceOnUse"><stop stop-color="#fff" offset="0"/><stop stop-color="#EBEBEB" offset=".1118"/><stop stop-color="#B4B4B4" offset=".4451"/><stop stop-color="#929292" offset=".6938"/><stop stop-color="#858585" offset=".8282"/></linearGradient><linearGradient id="SVGID_3_-7-8" x1="37.14" x2="152.1" y1="-2.478" y2="240.5" gradientUnits="userSpaceOnUse"><stop stop-color="#A0CBFF" offset="0"/><stop stop-color="#A0CBFE" offset=".3941"/><stop stop-color="#8EC2FC" offset=".583"/><stop stop-color="#83BCFB" offset=".7838"/><stop stop-color="#7FBAFB" offset="1"/></linearGradient><linearGradient id="SVGID_4_-8-7" x1="102.6" x2="218.1" y1="-34.21" y2="209.8" gradientUnits="userSpaceOnUse"><stop stop-color="#A0CBFF" offset="0"/><stop stop-color="#A0CBFE" offset=".3941"/><stop stop-color="#8EC2FC" offset=".583"/><stop stop-color="#83BCFB" offset=".7838"/><stop stop-color="#7FBAFB" offset="1"/></linearGradient></defs>
<style type="text/css">.custom-controls {
height: 64px;
fill: #fff;
}
.control-icon {
opacity: 0;
animation: icon-fade-in-out 4s ease-in-out infinite;
animation-fill-mode: forwards;
}
.stop {
animation-delay: .3s;
}
.play {
animation-delay: .5s;
}
.gamepad {
animation-delay: .7s;
padding: 0 0 0 20px;
}
@keyframes icon-fade-in-out {
0% {
opacity: 0;
}
10% {
opacity: 1;
}
80% {
opacity: 1;
}
90% {
opacity: 0;
}
100% {
opacity: 0;
}
}</style>
<g fill="#3bbeb8" stroke-width="1.121"><path class="st6" d="m858.5 512.7c0-2.209-1.824-3.996-4.079-3.996s-4.09 1.787-4.09 3.996 1.824 4.007 4.09 4.007c2.255-.0111 4.079-1.798 4.079-4.007z" filter="url(#Adobe_OpacityMaskFilter)"/><path class="st6" d="m1159 511c0-2.209-1.824-4.007-4.079-4.007s-4.09 1.787-4.09 4.007 1.824 3.996 4.09 3.996c2.255.0111 4.079-1.776 4.079-3.996z" filter="url(#Adobe_OpacityMaskFilter)"/><path class="st6" d="m1414 511c0-2.209-1.824-4.007-4.09-4.007-2.255 0-4.079 1.787-4.079 4.007s1.824 3.996 4.079 3.996c2.255.0111 4.09-1.776 4.09-3.996z" filter="url(#Adobe_OpacityMaskFilter)"/></g><polygon class="st41" transform="matrix(.4899 0 0 .4156 277.3 127.6)" points="803.4 548.5 804.4 549.9 805.6 551.3 806.9 552.5 808.3 553.6 809.9 554.5 811.5 555.2 813.2 555.8 815.2 556.1 817.2 556.4 819.2 556.6 821.2 556.8 823.2 556.8 824.7 556.9 823.1 457.1 821.6 457.2 819.6 457.3 817.6 457.5 815.6 457.8 813.6 458.2 811.6 458.6 810 459.2 808.3 460 806.8 460.9 805.4 462 804.1 463.3 803 464.7 802 466.2 801.7 466.9 801.6 467.6 801.1 471.5 800.9 473.3 800.7 476.2 800.4 481.5 800.4 481.6 800.3 489.2 800.3 490.1 800.4 498.7 800.5 507.4 800.7 516 800.9 524.6 800.9 525.6 801.3 533.1 801.3 533.2 801.7 538.5 802 541.4 802.2 543.2 802.9 547.1 803 547.8" fill="#e3e3e3"/><polygon class="st41" transform="matrix(-.4896 .01449 .0164 .4154 1076 115.8)" points="815.2 556.1 817.2 556.4 819.2 556.6 821.2 556.8 823.2 556.8 824.7 556.9 823.1 457.1 821.6 457.2 819.6 457.3 817.6 457.5 815.6 457.8 813.6 458.2 811.6 458.6 810 459.2 808.3 460 806.8 460.9 805.4 462 804.1 463.3 803 464.7 802 466.2 801.7 466.9 801.6 467.6 801.1 471.5 800.9 473.3 800.7 476.2 800.4 481.5 800.4 481.6 800.3 489.2 800.3 490.1 800.4 498.7 800.5 507.4 800.7 516 800.9 524.6 800.9 525.6 801.3 533.1 801.3 533.2 801.7 538.5 802 541.4 802.2 543.2 802.9 547.1 803 547.8 803.4 548.5 804.4 549.9 805.6 551.3 806.9 552.5 808.3 553.6 809.9 554.5 811.5 555.2 813.2 555.8" fill="#e3e3e3"/><path class="st42" d="m682.7 335.5c.0147.7731-.7152 1.413-1.626 1.426-.9112.0125-1.661-.6068-1.675-1.38l-.1862-9.614c-.0147-.7731.7104-1.413 1.622-1.426.9112-.0125 1.666.6027 1.68 1.38z" fill="#334249" stroke-width=".4512"/><g transform="translate(203.4 25.93)">
<path class="st2" d="m379.8 410.2c3.02 1.97 20.82 7.41 29.47 7.4 8.22-.01 7.5 7.93 7.5 7.93l-1.68 1.96-23.52 8.1-35.51 3.86-6.49-2.26c-3.87-5.27-2.51-11.11-2.51-11.11z" fill="#8dcfe5"/>
<path class="st3" d="m416.8 425.5c-30.64 12.68-67.21 11.66-67.21 11.66l-.29 4.46s37.75.78 68.39-11.9z" fill="#231d49"/>
<path class="st3" d="m357.1 426c1.74 7.09 3.77 8.63 6.06 11.26-5.05-1.96-6.92-8.19-6.06-11.26z" fill="#231d49"/><g fill="#fff">
<path class="st4" d="m381.3 424.7-5.22 7.35c1.07-.13 2.17-.27 3.3-.43l5.13-7.48c-1.09.19-2.16.38-3.21.56z"/>
<path class="st4" d="m374.8 425.7-5.07 7.11c1.01-.09 2.06-.19 3.15-.31l5.02-7.23c-1.05.16-2.09.3-3.1.43z"/>
<path class="st4" d="m388 423.4-5.49 7.65c1.08-.17 2.17-.35 3.28-.55l5.4-7.8c-1.07.25-2.13.48-3.19.7z"/>
</g><g fill="#231d49">
<path class="st3" d="m385.2 412.1c.63 1.2-.2 4.15-2.16 5.29.15-.72 1.55-3.69 2.16-5.29z"/>
<path class="st3" d="m390.1 413.5c.46 1.16-.34 3.99-2.1 5.06.14-.98 1.49-3.96 2.1-5.06z"/>
<path class="st3" d="m394.4 414.7c.55 1.18-.04 3.81-1.51 4.72.03-.58.75-3.43 1.51-4.72z"/>
<path class="st3" d="m398.5 415.6c.79.86.64 3.41-.78 4.4-.06-.65.37-3.1.78-4.4z"/>
</g>
<path class="st3" d="m409.4 417.6c1.2 1.5 3.24 7.15-1.31 11.17-.63.49-1.14.84-1.92 1.17 1.43-1.68 4.85-4.57 3.23-12.34z" fill="#231d49"/>
</g>
<g transform="translate(203.4 25.93)">
<polygon class="st3" points="511.4 358.8 518.1 358.8 516.9 487.8 512.6 485.4" fill="#231d49"/>
<polygon class="st5" points="518.1 358.8 516.9 487.8 519.9 485.1 525.1 362.1" fill="#dadada"/>
<polygon class="st3" points="609.7 262.2 616.4 262.2 615.2 391.2 610.9 388.9" fill="#231d49"/>
<polygon class="st5" points="616.4 262.2 615.2 391.2 618.3 388.1 623.5 265.5" fill="#dadada"/>
<path class="st1" d="m507.1 206.3 116.8 50.51c1.93.83 2.41 3.31.92 4.78l-96.12 94.8c-1.75 1.73-4.41 2.22-6.69 1.24l-117-50.62-92.79-42.53 48.26-35.7 79.71-23.87z" fill="#ededed"/>
<path class="st3" d="m405 307 117 50.61c2.28.98 4.93.49 6.69-1.24l96.12-94.8c.58-.57.86-1.3.88-2.02v7.46c-.03.69-.32 1.38-.87 1.93l-96.12 94.8c-1.75 1.73-4.41 2.22-6.69 1.24l-117-50.61z" fill="#231d49"/>
</g>
<g transform="translate(203.4 25.93)">
<path class="st2" d="m462.6 455.3c2.55 2.53 18.86 11.39 27.34 13.09 8.05 1.62 5.71 9.25 5.71 9.25l-2.05 1.59-24.7 3.26-35.57-3.26-5.89-3.5c-2.7-5.93-.17-11.38-.17-11.38z" fill="#8dcfe5"/>
<path class="st3" d="m495.7 477.6c-32.62 6.34-68.22-1.92-68.22-1.92l-1.2 4.31s36.81 8.26 69.43 1.92v-4.31z" fill="#231d49"/>
<path class="st3" d="m437.1 466.3c.25 7.29 1.91 9.2 3.61 12.23-4.54-2.93-5.09-9.39-3.61-12.23z" fill="#231d49"/><g fill="#fff">
<path class="st4" d="m461 469.8-6.63 6.16c1.08.09 2.18.16 3.32.23l6.57-6.31c-1.11-.01-2.2-.04-3.26-.08z"/>
<path class="st4" d="m454.5 469.5-6.43 5.96c1.01.11 2.06.22 3.15.32l6.41-6.09c-1.07-.06-2.11-.12-3.13-.19z"/>
<path class="st4" d="m467.9 469.9-6.96 6.4c1.09.05 2.2.09 3.32.11l6.9-6.57c-1.09.04-2.18.05-3.26.06z"/>
</g><g fill="#231d49">
<path class="st3" d="m467.4 458.2c.37 1.3-1.05 4.03-3.2 4.75.29-.67 2.27-3.31 3.2-4.75z"/>
<path class="st3" d="m472 460.6c.22 1.23-1.16 3.84-3.1 4.54.33-.92 2.27-3.58 3.1-4.54z"/>
<path class="st3" d="m475.9 462.5c.29 1.27-.83 3.72-2.45 4.32.14-.56 1.44-3.2 2.45-4.32z"/>
<path class="st3" d="m479.7 464.3c.59 1-.08 3.46-1.67 4.16.08-.65 1.01-2.97 1.67-4.16z"/>
</g>
<path class="st3" d="m490 468.4c.87 1.71 1.7 7.65-3.59 10.68-.72.36-1.29.6-2.13.77 1.77-1.37 5.71-3.52 5.72-11.45z" fill="#231d49"/>
</g>
<g transform="translate(203.4 25.93)">
<g fill="#8dcfe5">
<path class="st2" d="m551.9 175.6c-13.85.95-14-11.29-24.67-17.92 4.81-1.48 24.67 2.36 24.67 17.92z"/>
<path class="st2" d="m585.8 166.4c-11.32-11.09-1.94-28.87-1.94-28.87s12.16 16.59 1.94 28.87z"/>
<path class="st2" d="m615 183.4s0-13.97 21.36-16.77c-4.96 4.27-9.32 18.42-21.36 16.77z"/>
<path class="st2" d="m587 181.7c-12.97-2.6-16.4-18.99-16.4-18.99s14.29 3.8 16.4 18.99z"/>
<path class="st2" d="m566.4 196.4c-17.25 3.88-22.51-9.94-22.51-9.94s13.22-.88 22.51 9.94z"/>
<path class="st2" d="m574.9 214.7c-18.49 3.18-23.29-11.73-23.29-11.73s14.06-.23 23.29 11.73z"/>
<path class="st2" d="m607.3 191.9c-9.03-14.98 2.81-24.12 2.81-24.12s4.89 12.12-2.81 24.12z"/>
<path class="st2" d="m595.9 207.7c-11.31-14.7.04-25.69.04-25.69s6.61 12.17-.04 25.69z"/>
<path class="st2" d="m586.7 205.6c-14.11-2.33-18.44-19.89-18.44-19.89s15.57 3.57 18.44 19.89z"/>
<path class="st2" d="m587.4 191.6s-1.39-11.99 14.2-19.79c0 0-.6 15.66-14.2 19.79z"/>
<path class="st2" d="m601.5 199.8s5.65-10.71 23.04-8.67c0 0-9.4 12.68-23.04 8.67z"/>
<path class="st2" d="m590.1 217.9s5.77-11.32 24.03-9.42c0 0-9.66 13.43-24.03 9.42z"/>
<path class="st2" d="m559.8 185.5s-7.15-8.58 1.03-22.73c0 0 8.61 13.43-1.03 22.73"/>
<path class="st2" d="m571 205.6s-6.48-9.91 3.9-23.85c0-.01 7.42 15.18-3.9 23.85"/>
</g>
<path class="st4" d="m576.6 250.8-19.19 18.92c-.6.59-.4 1.58.37 1.91l25.07 10.84c1.25.54 2.71.27 3.68-.68l19.19-18.92c.6-.59.4-1.58-.37-1.91l-25.07-10.84c-1.26-.54-2.72-.27-3.68.68z" fill="#fff"/>
<defs>
<filter id="Adobe_OpacityMaskFilter" x="562.7" y="268.2" width="29.28" height="13.57" filterUnits="userSpaceOnUse">
<feFlood result="back"/>
<feBlend in="SourceGraphic" in2="back"/>
</filter>
</defs>
<mask x="562.68" y="268.22" width="29.28" height="13.57" maskUnits="userSpaceOnUse">
<g class="st6" filter="url(#Adobe_OpacityMaskFilter)">

<mask id="SVGID_1_" x="562.68" y="268.22" width="29.28" height="13.57" maskUnits="userSpaceOnUse">
</mask>
<linearGradient id="SVGID_2_" x1="577.9" x2="574.6" y1="269.5" y2="279.2" gradientUnits="userSpaceOnUse">
<stop stop-color="#fff" offset="0"/>
<stop stop-color="#eee" offset=".0998"/>
<stop stop-color="#C2C2C2" offset=".2978"/>
<stop stop-color="#7A7A7A" offset=".5751"/>
<stop stop-color="#181818" offset=".9181"/>
<stop offset="1"/>
</linearGradient>
<path class="st8" d="m571.5 268.2-8.81 5.53 18.58 8.03c4.63-5.14 7.19-8.77 10.7-13.18z" fill="url(#SVGID_2_)" mask="url(#SVGID_1_)"/>
</g>
</mask>

<ellipse class="st10" cx="581.2" cy="236.4" rx="16" ry="6.25" fill="#b84818"/>
<path class="st3" d="m581.2 233.6c7.27 0 13.4 1.89 15.35 4.48.42-.56.65-1.15.65-1.77 0-3.45-7.17-6.25-16-6.25-8.84 0-16 2.8-16 6.25 0 .61.23 1.21.65 1.77 1.96-2.59 8.09-4.48 15.35-4.48z" fill="#231d49"/>
<polygon class="st11" points="580.5 236.6 581.5 237.1 573.5 241.7 571.5 241.4" fill="#963d1a"/>
<path class="st2" d="m565.2 236.4 5.01 31.11c0 2.75 4.92 4.99 10.99 4.99s10.99-2.23 10.99-4.99l5.01-31.11c0 3.45-7.17 6.25-16 6.25-8.84 0-16-2.8-16-6.25z" fill="#8dcfe5"/>
<path class="st12" d="m583.9 227.7c4.51-23.94 3.79-49.77.02-73.47-.1-.6-.14-.93-.14-.93s.04.32.13.93c3.71 26.35 3.63 53.02-2.64 78.95-1.53-6-4.35-14.7-7.94-22.9-7.34-16.99-16.27-30.4-29.82-42.53 14.9 14.62 24.13 30.63 31.3 49.93 2.16 5.83 4.35 12.68 5.68 18.72 0 .79 1.26 1.03 1.48.15.07-.29 1.01-2.7 1.68-4.33 10.2-24.63 23.94-43.22 40.4-57.78-17.66 14.24-31.66 33.95-40.15 53.26z" fill="#5b3739"/>
<path class="st13" d="m579.2 242.6c-5.37 1.15-8.9 6.21-8.01 11.54l1.56 9.31c.49 2.91 2.24 5.47 4.81 7 1.64.98 3.58 1.85 5.42 1.99-.18.25-12.01.33-12.74-4.76l-5.02-31.28c.01 0 .01 5.01 13.98 6.2z" fill="#68afc2"/>
<path class="st14" d="m593.8 243.2c-.52 6.01-2.69 18.8-3.69 23.05.28-3.27 2.1-16.28 3.69-23.05z" fill="#c7e7f6"/>
</g>
<g transform="translate(203.4 25.93)">
<g fill="#231d49">
<path class="st3" d="m334.5 501.5c.02.45-1.24.88-2.81.95s-2.87-.24-2.89-.69l-2.78-59.21 5.7-.26z"/>
<path class="st3" d="m375.1 554.8c-4.02-5-28.87-35.88-37.67-47.06-.51-.64-1.1-1.16-1.89-1.29-1.72-.28-3.41 1.24-3.76 3.39-.21 1.24-.02 2.48.67 3.24 9.27 10.1 35.27 38.39 38.3 41.69-2.61.77-4.69 2.94-5.16 5.76-.66 3.94 2.06 7.66 6.08 8.31s7.81-2.02 8.47-5.96c.6-3.61-1.6-7.02-5.04-8.08z"/>
<path class="st3" d="m400.2 486.8c-1.73-1.14-3.84-1.3-5.66-.83-12.77 3.28-47.29 13.31-56.49 16l.31 6.56 51.83-18.55c-1.06 2.79-.09 6.03 2.55 7.76 3.08 2.02 7.24 1.21 9.3-1.81s1.23-7.11-1.84-9.13z"/>
<path class="st3" d="m332.5 513.1c-.69-.76-.88-2-.67-3.24.36-2.15 2.04-3.66 3.76-3.39.78.13 1.38.64 1.89 1.29.29.37.61.77.94 1.19l-.35-7.35c.07 1.52-2.76 2.88-6.33 3.05-3.56.16-6.51-.94-6.58-2.46l.37 7.93c-.04 4.21 2.77 7.61 6.68 5.88l.13-.01c.82-.04 1.6-.23 2.31-.54-.79-.86-1.51-1.65-2.15-2.35z"/>
<path class="st3" d="m325.6 511c-.06-.29-.1-.59-.12-.9l-.26-5.43c-7.84.88-50.22 5.58-65.35 6.6-2.41.16-4.7 1.45-5.82 3.74-1.6 3.28-.18 7.2 3.16 8.77s7.34.18 8.94-3.1c1.22-2.51.68-5.41-1.15-7.33z"/>
</g><path class="st2" d="m334.4 499.3.1 2.22c.02.45-1.24.88-2.81.95s-2.87-.24-2.89-.69l-.1-2.23c-2.14.54-3.58 1.55-3.53 2.64.07 1.52 3.02 2.62 6.58 2.46 3.57-.16 6.72-1.57 6.33-3.05-.43-1.59-2-2.55-3.68-2.3z" fill="#8dcfe5"/>
<path class="st10" d="m256.9 384.4c-5.22 4.07-11.87 9.36-17.6 14.48-.69.62-1.02 1.47-.98 2.31.04.85.45 1.69 1.21 2.24 13.63 9.94 49.45 33.7 100.3 50.39 1.92.63 4.02.27 5.62-.95 9.12-7 44.39-34.43 62.17-52.56.66-.67.92-1.56.81-2.4-.11-.87-.61-1.69-1.46-2.18-1.58-.92-3.7-2.11-6.3-3.49z" fill="#b84818"/>
<path class="st15" d="m257.3 384.7c-5.22 4.07-11.87 9.36-17.6 14.48-.69.62-1.02 1.47-.98 2.31.04.85.45 1.69 1.21 2.24 10.95 7.98 36.21 24.88 72.06 39.87 5.99 2.5 12.86 1.9 18.28-1.64 30.9-20.23 53.68-40.85 63.07-49.83z" fill="#9a3e11" opacity=".5"/>
<path class="st12" d="m408.4 397.9c.11.84-.15 1.72-.81 2.4-17.78 18.13-53.06 45.56-62.17 52.56-1.59 1.22-3.7 1.58-5.62.95-50.82-16.69-86.64-40.45-100.3-50.39-.77-.56-1.18-1.39-1.21-2.24l.36 7.61c.06.82.47 1.61 1.21 2.14 13.63 9.94 49.45 33.7 100.3 50.39 1.92.63 4.02.27 5.62-.95 9.12-7 44.39-34.43 62.17-52.56.54-.55.81-1.24.83-1.93z" fill="#5b3739"/>
<path class="st4" d="m375.3 558.2c-.13-.12.06-.29.19-.19 1.38 1.09 2.31 2.94 1.75 4.68-.04.11-.21.09-.21-.03-.02-1.71-.39-3.27-1.73-4.46zm22.71-69.25c1.27.84 1.85 2.49 1.77 3.93-.01.24.39.3.44.06.14-.78.08-1.54-.25-2.27-.42-.93-.97-1.41-1.82-1.94-.15-.09-.28.13-.14.22zm-141.2 26.22c.42-.46.91-.74 1.51-.92.62-.18 1.2-.04 1.81.04.14.02.18-.19.07-.25-1.17-.69-2.82-.03-3.61.91-.13.16.08.38.22.22zm81.44-2.59c5 6.09 10.07 12.12 15.28 18.04.04.05.11-.02.07-.07-4.96-6.12-10.04-12.14-15.22-18.1-.08-.08-.21.04-.13.13zm5.61-10.41c8.04-2.36 16.17-4.64 24.09-7.38.1-.03.06-.18-.04-.15-8.09 2.19-16.09 4.89-24.06 7.46-.06.01-.04.09.01.07zm-41.93 6.26c6.77-.51 13.53-1.2 20.28-1.78.05 0 .05-.09 0-.08-6.75.58-13.53 1.06-20.28 1.73-.09 0-.09.13 0 .13zm30.8-9.16c-.05-7.02-.53-23.6-1.65-37.64.11 14.27 1.1 30.83 1.65 37.64z" fill="#fff"/>
</g>
<polygon class="st3" transform="translate(203.4 25.93)" points="408.1 273 408.1 276.1 451.5 294.9 451.5 291.4" fill="#231d49"/>
<path class="st17" d="m662.2 303.9-43.42-18.84s1.3 6.34-7.25 13.31v.48l43.42 18.47v-.11c8.41-7.39 7.25-13.31 7.25-13.31z" fill="#9d9d9c"/>
<path class="st5" d="m616.3 156.5 144.2 62.74c.8.35 1.36.99 1.62 1.74s.22 1.59-.19 2.35l-52.06 95.55c-.74 1.36-2.43 1.93-3.87 1.31l-144.2-62.74c-1.6-.69-2.26-2.57-1.43-4.09l52.06-95.55c.74-1.36 2.43-1.93 3.87-1.31z" fill="#dadada"/>
<path class="st3" d="m662.2 303.9s1.16 5.93-7.25 13.31l-.01 3.62 12.98-12.82z" fill="#231d49"/>
<path class="st3" d="m561.8 257.4 144.2 62.74c1.44.63 3.13.06 3.87-1.31l52.06-95.55c.41-.76.48-1.53.21-2.28l1.24 5.1c.19.69.12 1.45-.26 2.14l-52.06 95.55c-.74 1.36-2.43 1.93-3.87 1.31l-144.2-62.74z" fill="#231d49"/>
<path class="st4" d="m580.6 252.6 43.25-79.38c.44-.82 1.45-1.16 2.32-.78l120.8 52.24c.96.42 1.36 1.54.86 2.45l-43.25 79.38c-.44.82-1.45 1.16-2.32.78l-120.8-52.24c-.96-.42-1.35-1.55-.86-2.45z" fill="#fff"/>
<g transform="translate(203.4 25.93)" fill="#fff">
<polygon class="st4" points="387.1 200.8 385.2 204.2 375.6 200.1 377.4 196.7"/>
<polygon class="st4" points="384 206.4 382.3 209.9 372.5 205.7 374.4 202.3"/>
<polygon class="st4" points="381 212 379.2 215.3 369.5 211.3 371.2 208"/>
<polygon class="st4" points="412.3 154.9 410.4 158.3 400.8 154.2 402.6 150.8"/>
<polygon class="st4" points="409.2 160.5 407.5 164 397.7 159.8 399.6 156.4"/>
<polygon class="st4" points="406.2 166.1 404.4 169.4 394.6 165.4 396.4 162.1"/>
<path class="st4" d="m447.4 264.8-30.81-13.39c-.73-.32-.24-1.4.49-1.08l30.81 13.39c.72.32.25 1.4-.49 1.08z"/>
<path class="st4" d="m554.3 197c0 .71-.59 1.29-1.31 1.29s-1.31-.58-1.31-1.29.59-1.29 1.31-1.29 1.31.58 1.31 1.29z"/>
<path class="st4" d="m551.8 200.2c0 .22-.18.4-.41.4s-.41-.18-.41-.4.18-.4.41-.4c.22-.01.41.17.41.4z"/>
<path class="st4" d="m391.8 189.1c-3.54.66-6.61-2.34-5.93-5.82.38-1.95 1.97-3.51 3.95-3.88 3.54-.66 6.61 2.34 5.93 5.82-.38 1.95-1.97 3.51-3.95 3.88zm-.12-9.12c-3.02-.57-5.65 1.9-5.27 4.84.25 1.93 1.84 3.5 3.82 3.74 3 .38 5.51-2.2 4.93-5.17-.33-1.71-1.73-3.08-3.48-3.41z"/>
<ellipse class="st4" cx="390.8" cy="184.2" rx="1.67" ry="1.64"/>
</g><g transform="matrix(.1759 .0755 -.09913 .1827 609.4 146.1)"><polygon class="st2" points="409.6 219 190.3 219 190.3 469.9 409.6 469.9 628.8 469.9 628.8 219" fill="#f1f2f2"/><rect class="st3" x="409.6" y="461.9" width="219.2" height="7.95" fill="#afafaf"/><rect class="st3" x="190.3" y="461.9" width="219.2" height="7.95" fill="#afafaf"/><path class="st16" d="m628.8 198c0-4.74-3.84-8.58-8.58-8.58h-210.6v29.94h219.2z" fill="#373838" opacity=".4"/><path class="st16" d="m198.9 189.5c-4.74 0-8.58 3.84-8.58 8.58v21.36h219.2v-29.94z" fill="#373838" opacity=".4"/><path class="st5" d="m574 204.1c0-3.08-2.5-5.58-5.58-5.58s-5.57 2.5-5.57 5.58 2.5 5.58 5.57 5.58c3.08-.01 5.58-2.51 5.58-5.58z" fill="#fffdfb"/><path class="st17" d="m609.9 204.1c0-3.08-2.5-5.58-5.57-5.58-3.08 0-5.58 2.5-5.58 5.58s2.5 5.58 5.58 5.58c3.07-.01 5.57-2.51 5.57-5.58z" fill="#fff"/><path class="st17" d="m592.3 204c0-3.08-2.5-5.58-5.57-5.58-3.08 0-5.58 2.5-5.58 5.58s2.5 5.58 5.58 5.58c3.07-.01 5.57-2.51 5.57-5.58z" fill="#fff"/></g>
<g transform="translate(203.4 25.93)" fill="#231d49">
<path class="st3" d="m377.4 196.7c3.61 1.32 9 3.71 9.84 4.08-.58 1.01-1.39 2.44-2.03 3.47.52-1.1 1.3-2.59 1.75-3.47l.06.17c-.93-.39-6.18-2.55-9.62-4.25z"/>
<path class="st3" d="m374.4 202.3c2.52.92 7.34 2.96 9.83 4.09-.53.99-1.31 2.45-1.92 3.5.48-1.1 1.21-2.61 1.64-3.5l.06.16c-2.42-.98-7.26-3.09-9.61-4.25z"/>
<path class="st3" d="m371.2 208c2.56.91 7.94 3.12 9.89 3.99-.54.94-1.34 2.34-1.96 3.35.49-1.04 1.3-2.6 1.69-3.35l.06.16c-1.65-.63-7.06-2.89-9.68-4.15z"/>
<path class="st3" d="m402.6 150.8c3.05 1.11 6.98 2.83 9.84 4.08-.58 1.01-1.39 2.44-2.03 3.47.52-1.1 1.29-2.58 1.75-3.47l.06.17c-.96-.41-6.19-2.56-9.62-4.25z"/>
<path class="st3" d="m399.6 156.4c2.47.9 7.42 3 9.83 4.09-.55 1.02-1.32 2.47-1.92 3.5.49-1.1 1.22-2.62 1.64-3.5l.06.16c-2.66-1.07-7.46-3.18-9.61-4.25z"/>
<path class="st3" d="m396.4 162.1c2.55.9 7.83 3.07 9.89 3.99-.54.94-1.34 2.34-1.96 3.35.49-1.04 1.3-2.6 1.69-3.35l.06.16c-1.94-.75-7.26-2.99-9.68-4.15z"/>
</g>
<path class="st19" d="m683.7 275.2c-6.69 9.55-11.92 19.22-14.21 29.1l-9.73-3.86s15.41-22.93 23.94-25.24z" fill="#b2b2b2" opacity=".3"/>
<path class="st20" d="m538.9 218s-4.52 10.68-10.45 17.72l25.26 16.83c9.67-13 14.03-24.34 14.03-24.34 6.55 3.82 15.53 3.84 15.53 3.84 9.79-11.89 9.43-27.23 9.43-27.23 3.14.47 5.99-.15 7.74-.7.94-.3 1.38-1.34.93-2.2-4.53-8.62-7.4-20.86-7.42-20.9 1.25-5.94 0-11.83 0-11.83l-3.89-7.84-14.78-7.08-17.43 12.58-17.03 23.39-.6 22.24z" fill="#f8d1c9"/><g fill="#231d49">
<path class="st3" d="m558.3 355.6 15.68-9.98 5.03-2.02 18.78 14.56s.62 12.42 0 21.02l-1.95 5.53-39.97 10.05-9.62-20.78z"/>
<path class="st3" d="m463 386.5s-4.5 19.22-3.59 30.43c.9 11.2 42.98 32.14 68.52 34.2 20.01 1.62 68.07-15.59 98.64-35.74 2.87 14.39 1.95 38.25 2.95 47.53.63 5.85 3.64 9.76 3.53 9.58-.79 5.92-2.19 11.86-3.04 14.86-.44 1.58.42 3.25 2 3.78 14.03 4.66 27.91-1.43 32.77-4.36 1.22-.74 1.87-2.12 1.64-3.51-.57-3.36-2.11-9.9-3.25-15.63-1.35-6.78 1.44-13.42-.06-27.42.84-21.35.6-46.45 2.23-60.54.69-5.98-4.38-11.08-10.49-10.57-39.08 3.27-94.52 20.13-94.52 20.13z"/>
<path class="st3" d="m559.5 205.5c-3.33-.82-6.59-4.17-8.29-8.64-2.35-6.18-.75-12.47 3.57-14.05s9.72 2.15 12.06 8.33c1.07 2.83 1.4 5.69.94 8.1 10.35-15.91-3.94-30.96 7.32-38.96 3.23-2.29 11.97-1.99 18.77 8.82 0 0 0-6.42-2.65-9.79 0 0-6.86-7.95-16.53-12.7 0 0-17.93-6.88-37.53 1.32 0 0 5.9-.51 8.75 3.03.05 0-22.2 1.14-26.26 26.19 0 0 3.05-3.74 7.3-4.25 0 0-7.88 7.28-5.22 21.64 0 0 .01-3.64 4.3-6.52 0 0-2.72 11.24 7.87 25.65-.94.25-1.58.45-2.79-.33 0 0 .87 2.47 4.45 4.08 9.33 2.33 19.9-3.82 19.9-3.82 2.17-1.8 4.04-8.1 4.04-8.1z"/>
<path class="st3" d="m658.3 266.2c-4.59 2.11-8.16 3.42-8.17 3.43l-3.38 4.79 5.99-.15 1.91-1.73z"/>
<path class="st3" d="m691.3 251.4c-.22-.47-.8-.68-1.28-.46l-.67.31c-.36-.37-.78-.53-1.11-.4l-21.34 10.9c-1.56.86-3.16 1.68-4.72 2.44-.01 2.25 1.21 2.77 1.21 2.77l26.25-12.79c.36-.15.53-.62.48-1.19l.71-.32c.49-.22.7-.79.47-1.26z"/>
</g><polygon class="st20" transform="translate(203.4 25.93)" points="460.5 237.4 469.4 232.8 463 232.8 458.8 237.5" fill="#f8d1c9"/>
<g transform="translate(203.4 25.93)" fill="#2b3775">
<path class="st22" d="m394.6 353.2c-8.98 2.96-31.11 8.71-37.65 10.07 8.28-3.25 24.39-7.76 37.65-10.07z"/>
<path class="st22" d="m454.4 391.6c.74 19.16-3.49 39.63-12.62 57.4 1.9-5.73 5.98-16.36 9.28-33.67 2.06-10.33 3.29-23.43 3.34-23.73z"/>
<path class="st22" d="m368.5 359.4c2.3-1.22 6.83-3.56 8.14-4.69-1.19 1.33-5.86 4.54-7.45 5.66z"/>
<path class="st22" d="m429.2 449c.16-1.89.75-7.95.96-16.28l.12-.01c1.51 4.83.69 12.5-.96 16.3z"/>
<path class="st22" d="m423.1 389.4c8-5.54 13.66-9.71 20.36-17.03l.12.09c-3.95 7.41-13.14 14.34-20.39 17.06z"/>
</g>
<path class="st20" d="m676.8 260.5-13.42 6.54s-1.22-.52-1.21-2.77c.59-.29 1.19-.59 1.78-.9l-4.38.32c-.6 1.57-7.01 12.38-7.01 12.38.6 3.34 4.81 10.61 4.81 10.61-6.71 15.63-27.45 32.64-36.47 51.5-2.08-2.28-4.84-4.66-4.84-4.66l-9.99 9.82-2.61 10.16s7.27 6.94 23.11 12.59c19.68-20.84 30.29-69.19 57.13-90.87 0 0-1.47-5.07-5.8-10.07z" fill="#f8d1c9"/>
<path class="st2" d="m608.7 319.3 4.01.68 5.02 7.59s-3.99 24.79-28.44 35.41c-8.47-6.53-5.5-4.41-13.03-9.31 0 0 .24-1.16.44-3.1 0-.69-10.24-18.44-16.27-24.18 0 0 1.2 10.47-1.67 17.69s-1.03 8.85 1.67 18.13c2.7 9.29 2.1 16.07 0 18.43s-3.16 5.45 1.05 9.88c4.21 4.42 3.16 5.75 3.16 5.75-4.21 6.39-32.24 14.43-57.85 9.44-29.7-5.8-46.13-21.23-46.13-21.23-14.13-98.63 33.2-147.4 33.2-147.4 12.32-2.06 27.05 0 27.05 0 1.95-3.24 6.95-7.47 6.95-7.47s18.59 2.95 28.95 10.57c0 0 3.06 7.65 7.1 14.58 1.17 2 13.5 9.01 17.73 18.01 4.02 8.56 19.46 39.1 27.27 42.64.01 0 .24 1.25-.21 3.91z" fill="#8dcfe5"/>
<g transform="translate(203.4 25.93)" stroke="#fff"><g fill="#fff">
<path class="st3" d="m362 88.6c-3.16 1.23-8.39 1.28-11.66 0h11.66z"/>
<path class="st3" d="m361.5 91.61c-2.88 1.14-7.72 1.13-10.55 0 .91-.09 9.64-.09 10.55 0z"/>
<path class="st3" d="m361 94.61c-2.79 1.07-7.03.96-9.48 0 1.42-.22 8.28-.19 9.48 0z"/>
<path class="st3" d="m360.4 97.61c-2.33.95-6.21.88-8.35 0 1.53-.32 6.99-.28 8.35 0z"/>
<path class="st3" d="m359.8 100.6c-1.96.87-5.45.81-7.25 0 1.5-.39 5.91-.35 7.25 0z"/>
</g><ellipse cx="355.9" cy="64.13" rx="14.95" ry="15.17" fill="none" stroke-linecap="round" stroke-width="1.04" style="paint-order:fill markers stroke"/><ellipse class="control-icon play" cx="355.9" cy="64.13" rx="14.95" ry="15.17" fill="#e8e572" stroke-linecap="round" stroke-width="1.04" style="paint-order:fill markers stroke"/><g fill="#fff"><path class="st4" d="m362.8 64.21c-.17 1.28-.79 3.16-2.2 3.19-.03-.01-.22-.02-.24-.04-.95-.31-1.38-1.57-1.47-2.74-.02-.23-.23-.4-.49-.4h-.01c-.25 0-.46.17-.49.39-.13 1.09-.57 2.47-1.69 2.61-.13-.01-.13-.01-.19-.01-1.05-.43-1.4-1.55-1.52-2.6-.02-.22-.23-.39-.49-.39h-.01c-.26 0-.47.18-.49.41-.09 1.14-.48 2.51-1.62 2.76-.06.01-.12.02-.18.01-1.37-.14-1.94-1.91-2.11-3.18-.22 3.64 2.45 4.69 3.93 2.84.19-.24.62-.23.8.02 1.01 1.4 2.72 1.4 3.72 0 .18-.25.6-.27.8-.02 1.5 1.83 4.17.8 3.95-2.85z"/>
<path class="control-icon stop" d="m377.2 34.87c-2.61 2.71-6.95 9.37-8.29 12.7 2.51-2.62 6.9-9.25 8.29-12.7zm-42.35 43.24c-3.76 1.13-10.74 4.79-13.37 6.83 3.35-1.02 10.41-4.54 13.37-6.83zm58.17-29.7c-3.91 1.27-12 5.37-15.38 7.85 4-1.31 12.09-5.43 15.38-7.85zm-61.28 18.89c-4.06-.63-13.24-.65-17.46 0 4.03.62 13.17.66 17.46 0zm64.69.16c-2.65-.47-8.92-.76-13.6-.41-1.09.07-2.13.19-2.52.25 3.98.7 12.47.73 16.12.16zm-62.01-11.19c-3.06-2.61-10.72-7.18-14.52-8.7 2.87 2.45 10.48 7.09 14.52 8.7zm55.86 28.63c.41.14.64.22.64.22s-.19-.15-.54-.38c-.34-.24-.84-.57-1.45-.95-1.21-.77-2.89-1.71-4.6-2.59-3.24-1.65-5.96-2.72-7.14-3.09 2.33 1.77 8.39 5.11 13.09 6.79zm-47.14-37.33c-1.45-3.51-6.06-10.55-8.73-13.37 1.37 3.29 5.9 10.38 8.73 13.37zm12.9-18.41c.68 3.37.75 11.31-.01 15.06-.73-3.6-.71-11.54.01-15.06z" stroke-linecap="round" stroke-linejoin="round"/>
<g stroke-linecap="round" stroke-linejoin="round">
<path class="st3" d="m360.5 86.27c.43-4.62 2.71-14.89 4.62-19.96-.48 5.27-2.91 15.44-4.62 19.96z"/>
<path class="st3" d="m351.9 86.27c-1.73-4.59-4.14-14.76-4.62-19.96 1.9 5.03 4.18 15.28 4.62 19.96z"/>
</g>
</g></g>
<g transform="translate(203.4 25.93)">
<path class="st10" d="m327.6 306.5c-1.97 16.35-2.09 31.21-1.99 38.3.01 1.05-.47 1.97-1.22 2.56-.81.64-1.92.91-3.03.59-29.44-8.62-61.26-25.25-71.41-30.76-2.07-1.13-3.21-3.26-3.41-5.58-.63-7.3-.97-23.2 2.07-39.58.42-2.26 2.82-3.57 4.87-2.46 10.92 5.89 41.19 21.53 69.51 29.97 3.05.91 4.98 3.85 4.61 6.96z" fill="#b84818"/>
<path class="st10" d="m330.3 342.8c.7-.56 1.16-1.42 1.14-2.41-.1-6.99 0-22 1.99-38.53.38-3.12-1.57-6.05-4.63-6.97-28.31-8.45-58.57-24.08-69.49-29.97-1.25-.67-2.67-.47-3.66.31-1.89 1.53-3.83 3.08-5.8 4.64.99-.76 2.4-.95 3.63-.29 10.92 5.89 41.19 21.53 69.51 29.97 3.05.91 4.99 3.85 4.62 6.96-1.97 16.35-2.09 31.21-1.99 38.3.01 1.05-.48 1.96-1.23 2.56 1.98-1.5 3.96-3.02 5.93-4.55" fill="#b84818"/>
<path class="st3" d="m270.7 300c-.11 1.95-.2 4.42-.27 6.22-.04 1.15.6 2.21 1.64 2.73 7.64 3.81 17.4 8.14 27.88 12.49.97.4 2.05-.27 2.09-1.3.08-2.09.18-4.3.31-6.61.07-1.28-.7-2.47-1.92-2.92-9.71-3.63-19.16-7.97-27.59-11.86-.97-.45-2.08.2-2.14 1.25z" fill="#231d49"/>
<path class="st3" d="m279.9 306.1c-4.48 20.47-6.92 45.66-6.9 72.12.01 21.48 1.63 42.12 4.65 60.08 3.57 2.15 7.34 4.34 11.32 6.56-3.79-18.56-6.04-41.64-6.05-66.64-.01-25.62 2.33-49.22 6.27-68.01-3.17-1.36-6.28-2.75-9.29-4.11z" fill="#231d49"/>
<path class="st4" d="m288.2 445c-3.95-19.39-6.05-42.48-6.06-66.78-.01-24.92 2.16-48.49 6.28-68.16l1.47.3c-8.31 39.63-8.32 94.67-.22 134.4z" fill="#fff"/>
<path class="st4" d="m302.1 320.1c-.19-7.5.63-8.22-2.33-9.29-7.13-2.54-18.31-7.29-26.87-12.1 3.66 1.33 27.75 11.41 27.77 11.42 2.71 1.32 2.28 2.85 1.43 9.97z" fill="#fff"/>
<path class="st12" d="m253.5 269.5c23.63 11.56 45.01 21.36 69.72 29.15 3.51 1.16 5.63 4.13 5.14 8.31-1.6 13.72-2.28 21.96-2.73 37.78-.27-6.31-.37-9.42-.13-19.08.58-17.63 1.96-19.36 1.03-21.84-.72-1.94-2.05-2.93-3.81-3.54.06.02-.01 0-.01 0-24.64-7.63-48.08-18.52-69.21-30.78z" fill="#5b3739"/>
</g>
<g transform="translate(203.4 25.93)" fill="#4292af">
<path class="st23" d="m355 290.2c-.09-.26-.38-1.29-.53-2.08-3.15-15.61 2.75-35.14 15.93-42.52l.15.18c-2.34 2.19-3.37 3.23-5.14 5.55-8.88 11.77-11.12 28.82-10.17 38.85z"/>
<path class="st23" d="m409.2 294c.1 8.57-5.05 22.33-17.34 31.59-4.15 3.02-6.92 4.5-12.4 6.53 6.78-3.65 14.99-8.23 22.27-19.34 3.37-5.46 6.64-12.48 7.47-18.78z"/>
<path class="st23" d="m375.6 264.5c4.52 7.24 8.62 21.57 3.91 36.56.42-7.23 1.93-18.62-3.91-36.56z"/>
<path class="st23" d="m303.8 213.1c17.01 1.74 36.92 7.98 52.47 17.73l-.08.16c-15.97-7.24-29.36-12.18-52.44-17.72z"/>
<path class="st23" d="m300 274.5c-.79-13.01 10.26-35.68 21.93-46.21l.19.14c-3.85 5.56-2.4 3.39-6.08 9.08-6.56 10.52-13.47 25.58-15.81 37.04z"/>
<path class="st23" d="m372.8 327.7c-.62-5.51.85-10.24-1.01-18.11l.11-.04c1.72 4.74 2.9 13.31 1.01 18.16z"/>
<path class="st23" d="m405.5 289.4s.05.22.1.59c.05.38.13.91.13 1.56 0 .33 0 .68-.01 1.06-.02.37-.06.76-.1 1.16s-.1.82-.18 1.23c-.07.42-.15.84-.25 1.26-.11.42-.22.84-.34 1.24-.06.2-.12.41-.19.6-.07.2-.14.39-.21.58-.14.38-.27.75-.44 1.08-.16.34-.31.66-.46.95-.08.14-.14.28-.22.41s-.15.25-.22.36c-.14.23-.27.42-.38.58-.21.32-.35.49-.35.49s.02-.22.07-.6c.03-.19.06-.41.11-.67.05-.25.11-.54.16-.86.06-.31.13-.65.2-1 .09-.35.14-.73.23-1.11.08-.39.19-.78.27-1.18s.19-.81.28-1.21c.1-.41.19-.81.29-1.21.05-.2.1-.4.15-.59.05-.2.09-.39.14-.58.09-.38.19-.75.29-1.1.08-.35.17-.68.26-.98.08-.31.18-.58.25-.84.06-.25.14-.47.19-.66.15-.36.23-.56.23-.56z"/>
<path class="st23" d="m294.4 355.6c18.24 5.09 34.33 7.67 52.5 4.8-1.85.74-3.97 1.6-8.09 2.41-16.98 3.33-36.78-2.77-44.41-7.21z"/>
<path class="st23" d="m322.2 375.4c10.06-4.38 6.41-1.96 26.26-11.5.21-.09.33-.14.33-.14l.19.19c-5.16 5.16-11.37 8.95-19.88 10.83-2.95.68-5.75.89-6.9.89z"/>
</g>

<g transform="translate(203.4 25.93)">
<polygon class="st4" points="555.3 299.3 521.9 301.7 527.7 278 557 279.2" fill="#fff"/>
<path class="st28" d="m503.4 318.6c-.59 1.83-.17 3.59-.17 3.59l26.37 11.39v-3.66z" fill="#c6c6c6"/>
<polygon class="st4" points="561.3 298.7 529.6 329.9 529.6 333.6 561.3 302.3" fill="#fff"/>
<path class="st29" d="m501.9 318 27.71 11.98 33.62-33.15-26.2-11.33c-.91-.39-1.97-.2-2.67.49z" fill="#c33e18"/>
<path class="st30" d="m529.6 332.8-26.44-11.4-.03-.23 26.56 11.43zm.09-1.12-26.56-11.47.01.24 26.46 11.43zm0-.91-26.45-11.43-.04.2 26.4 11.43z" fill="#8b3727"/><g fill="#dadada">
<polygon class="st5" points="561.4 301.5 529.7 332.8 529.6 332.6 561.3 301.3"/>
<polygon class="st5" points="561.4 300.6 529.7 331.8 529.6 331.7 561.3 300.4"/>
<polygon class="st5" points="561.4 299.6 529.7 330.9 529.6 330.8 561.3 299.5"/>
</g><polygon class="st29" points="561.3 301.5 561.3 302.3 530.2 333.1 528.3 334.9 529.6 335.5 563.3 302.4" fill="#c33e18"/>
<polygon class="st12" points="501.9 323.5 528.3 334.9 530.2 333.1 529.6 333.6 503.3 322.2" fill="#5b3739"/>
<defs>
<filter id="Adobe_OpacityMaskFilter_2_" x="489.3" y="323.5" width="40.35" height="24.08" filterUnits="userSpaceOnUse">
<feFlood result="back"/>
<feBlend in="SourceGraphic" in2="back"/>
</filter>
</defs>
<mask x="489.29" y="323.53" width="40.35" height="24.08" maskUnits="userSpaceOnUse">
<g class="st31" filter="url(#Adobe_OpacityMaskFilter_2_)">

<mask id="SVGID_4_" x="489.29" y="323.53" width="40.35" height="24.08" maskUnits="userSpaceOnUse">
</mask>
<linearGradient id="SVGID_5_" x1="512.3" x2="505" y1="328.7" y2="343.7" gradientUnits="userSpaceOnUse">
<stop stop-color="#fff" offset="0"/>
<stop stop-color="#FAFAFA" offset=".1"/>
<stop stop-color="#EAEAEA" offset=".2237"/>
<stop stop-color="#D1D1D1" offset=".36"/>
<stop stop-color="#AEAEAE" offset=".5055"/>
<stop stop-color="#818181" offset=".6581"/>
<stop stop-color="#4A4A4A" offset=".8168"/>
<stop stop-color="#0A0A0A" offset=".9776"/>
<stop offset="1"/>
</linearGradient>
<polygon class="st33" points="501.9 323.5 529.6 335.5 516 347.6 489.3 333.6" fill="url(#SVGID_5_)" mask="url(#SVGID_4_)"/>
</g>
</mask>

<path class="st12" d="m503.3 322.2c-.22-1.15-.17-2.37.17-3.59l-1.51-.65c-.7 1.94-.67 3.87 0 5.59z" fill="#5b3739"/>
<path class="st4" d="m504.1 307.6 32.61 11.91 14.58-24.57zm30.89 7.19-18.16-6.63 26.28-7.05z" fill="#fff"/>
<path class="st17" d="m504.6 307.9-.12-.43.1-.03.12.43zm.6-.03-.16-.56-.1.03.16.56zm.61.37-.3-1.05-.1.03.3 1.06zm.46-.12-.3-1.05-.1.03.3 1.05zm.47-.13-.3-1.05-.1.03.3 1.05zm.58.29-.42-1.47-.1.03.42 1.47zm.35-.54-.3-1.05-.1.03.3 1.06zm.46-.12-.3-1.05-.1.03.3 1.05zm.47-.13-.3-1.05-.1.03.3 1.06zm.46-.12-.3-1.05-.1.03.3 1.06zm.59.35-.42-1.53-.1.03.42 1.53zm.35-.6-.3-1.06-.1.03.3 1.06zm.46-.12-.3-1.05-.1.03.3 1.05zm.47-.13-.3-1.05-.1.03.3 1.05zm.46-.12-.3-1.05-.1.03.3 1.06zm.59.22-.42-1.41-.1.03.42 1.41zm.34-.47-.3-1.05-.1.03.3 1.05zm.47-.13-.3-1.05-.1.03.3 1.05zm.46-.12-.3-1.05-.1.03.3 1.05zm.47-.13-.3-1.05-.1.03.3 1.05zm.53.23-.36-1.41-.1.03.36 1.41zm.4-.48-.3-1.05-.1.03.3 1.06zm.47-.12-.3-1.06-.1.03.3 1.05zm.46-.13-.3-1.06-.1.03.3 1.05zm.47-.12-.3-1.06-.1.03.3 1.05zm.58.23-.42-1.41-.1.03.42 1.41zm.35-.48-.3-1.05-.1.03.3 1.05zm.46-.13-.3-1.06-.1.03.3 1.05zm.47-.12-.3-1.05-.1.03.3 1.05zm.47-.13-.3-1.05-.1.03.3 1.05zm.58.29-.42-1.47-.1.03.42 1.47zm.35-.54-.3-1.05-.1.03.3 1.05zm.46-.12-.3-1.05-.1.03.3 1.06zm.47-.12-.3-1.05-.1.03.3 1.05zm.46-.13-.3-1.05-.1.03.3 1.05zm.59.23-.42-1.41-.1.03.42 1.41zm.34-.48-.3-1.05-.1.03.3 1.06zm.47-.12-.3-1.05-.1.03.3 1.05zm.46-.13-.3-1.05-.1.03.3 1.06zm.47-.12-.3-1.05-.1.03.3 1.06zm.59.22-.42-1.41-.1.03.42 1.41zm.34-.47-.3-1.05-.1.03.3 1.06zm.47-.13-.3-1.05-.1.03.3 1.05zm.46-.12-.3-1.05-.1.03.3 1.05zm.47-.13-.3-1.05-.1.03.3 1.06zm.58.23-.42-1.41-.1.03.42 1.41zm.35-.48-.3-1.05-.1.03.3 1.05zm.46-.12-.3-1.05-.1.03.3 1.05zm.47-.13-.3-1.05-.1.03.3 1.05zm.47-.12-.3-1.06-.1.03.3 1.05zm.58.29-.42-1.47-.1.03.42 1.47zm.35-.54-.3-1.05-.1.03.3 1.06zm.46-.13-.3-1.06-.1.03.3 1.05zm.47-.12-.3-1.06-.1.03.3 1.05zm.46-.13-.3-1.06-.1.03.3 1.05zm.59.29-.42-1.47-.1.03.42 1.47zm.34-.53-.3-1.05-.1.03.3 1.05zm.47-.13-.3-1.06-.1.03.3 1.05zm.47-.12-.3-1.05-.1.03.3 1.05zm.46-.13-.3-1.05-.1.03.3 1.05zm.59.29-.42-1.47-.1.03.42 1.47zm.34-.54-.3-1.05-.1.03.3 1.05zm.47-.12-.3-1.05-.1.03.3 1.05zm.46-.13-.3-1.05-.1.03.3 1.05zm.47-.12-.3-1.05-.1.03.3 1.05zm.58.23-.42-1.41-.1.03.42 1.41zm.35-.48-.3-1.05-.1.03.3 1.06zm.47-.13-.3-1.05-.1.03.3 1.05zm.46-.12-.3-1.06-.1.03.3 1.06zm.47-.13-.3-1.05-.1.03.3 1.05zm.58.25-.42-1.43-.1.03.42 1.43zm.35-.5-.3-1.05-.1.03.3 1.06zm.46-.12-.3-1.06-.1.03.3 1.05zm.47-.13-.3-1.05-.1.03.3 1.05zm.46-.12-.3-1.05-.1.03.3 1.06zm.57.25-.41-1.43-.1.03.41 1.43zm.36-.5-.3-1.05-.1.03.3 1.05zm.47-.13-.3-1.05-.1.03.3 1.05zm.47-.12-.3-1.05-.1.03.3 1.05zm.46-.12-.3-1.06-.1.03.3 1.05zm.63.31-.47-1.5-.1.03.47 1.5zm.3-.56-.3-1.05-.1.03.3 1.05zm.47-.13-.3-1.06-.1.03.3 1.05zm.46-.12-.3-1.05-.1.03.3 1.05zm.47-.13-.3-1.06-.1.03.3 1.05zm.63.32-.47-1.5-.1.03.47 1.5zm.3-.57-.3-1.05-.1.03.3 1.05zm.47-.12-.3-1.06-.1.03.3 1.05zm.46-.13-.3-1.05-.1.03.3 1.05zm.47-.12-.3-1.05-.1.03.3 1.06zm.63.24-.47-1.43-.1.03.47 1.43zm.3-.49-.3-1.06-.1.03.3 1.05zm.46-.13-.3-1.05-.1.03.3 1.05zm.47-.12-.3-1.05-.1.03.3 1.06zm.46-.13-.3-1.05-.1.03.3 1.05zm.63.32-.47-1.5-.1.03.47 1.5zm.31-.57-.3-1.05-.1.03.3 1.06zm.46-.12-.3-1.05-.1.03.3 1.05zm.47-.13-.3-1.05-.1.03.3 1.06zm.35-.52-.19-.65-.1.03.19.65z" fill="#9d9d9c"/>
<path class="st35" d="m510.2 309.8c9.06 2.95 20.43 7.22 26.52 9.69-6.51-2.12-17.59-6.06-26.52-9.69z" fill="#29235c"/>
</g>
<path class="st3" d="m555.9 187.5c-.24 2.5.19 5.67 1.34 7.66 1.43 2.67 3.66 4.17 4.43 4.83-2.42-.69-4.56-2.33-5.82-4.94-.15-.31-.4-.98-.49-1.39-.14-.5-.19-.89-.26-1.4-.08-.87-.07-1.59.08-2.48.06-.43.22-1.1.45-1.68.15-.39.27-.6.27-.6zm38.81-8.72s-6.07-.39-10.9-.11c-.93.05-1.69.74-1.84 1.64v.02s7.48-.32 12.1.34zm-4.72 7.39c-.75 0-1.35.59-1.35 1.33s.61 1.33 1.35 1.33c.75 0 1.35-.59 1.35-1.33s-.61-1.33-1.35-1.33zm-7.21 25.94c-1.49-2.3-1.9-5.11-1.98-5.47-.74 4.58 2.5 9.27 7.01 10.37-1.57-1.11-3.11-1.92-5.03-4.9zm7.48-23.9c.34-.27.26-.15.52-.51.23-.32-.38-.84-.71-.01-.04.11-.06.23-.1.35-.06.18.16.27.29.17z" fill="#231d49"/>
<path class="st4" d="m511.3 534.2c.01 0 .01-.01 0-.01s-.01.01 0 .01z" fill="#fff"/>
<path class="st4" d="m511.3 534.3c.02 0 .02-.03 0-.03s-.02.03 0 .03z" fill="#fff"/>
<path class="st36" d="m592.7 204.8s3.29-.99 8.48-.95c-1.03.43-3.46 1.71-8.48.95z" fill="#e9c0ba"/>
<path class="st4" d="m651 270.3c-.03.4.25.86.44 1.21.22.41.48.9.86 1.18.07.05.2-.04.16-.12-.16-.38-.46-.72-.68-1.08-.23-.38-.37-.91-.69-1.23-.03-.03-.09 0-.09.04z" fill="#fff"/>
<path class="st36" d="m583.2 232s-7.76-4.96-14.06-6.83l-1.46 2.99s9.09 4.74 15.52 3.84z" fill="#e9c0ba"/>
<rect class="st2" transform="matrix(.9178 .3971 -.48 .8773 0 0)" x="712.9" y="-83.79" width="35" height="11.2" fill="#f1f2f2" stroke-width=".1611"/><g fill="#c5c5c5"><rect transform="matrix(.9178 .3971 -.48 .8773 0 0)" x="739.6" y="-79.76" width="7.107" height="6.287" style="paint-order:normal"/><rect transform="matrix(.9178 .3971 -.48 .8773 0 0)" x="731.2" y="-79.76" width="7.107" height="6.287" style="paint-order:normal"/><rect transform="matrix(.9178 .3971 -.48 .8773 0 0)" x="722.8" y="-79.76" width="7.107" height="6.287" style="paint-order:normal"/></g><rect class="st3" transform="matrix(.9178 .3971 -.48 .8773 0 0)" x="712.9" y="-83.79" width="35" height="3.128" fill="#afafaf" stroke-width=".1611"/><g fill="#fff"><path class="st5" d="m722.8 223.4c.1451-.2652.0108-.5904-.303-.7261-.3122-.135-.6837-.0304-.8296.2361-.1458.2666-.009.5897.3038.7248.3131.1368.683.0317.8288-.2348z" stroke-width=".1608"/><path class="st8" transform="matrix(.1385 .0599 -.0657 .1201 632.9 182.9)" d="m554.1 69.6c.6232-1.754.0113-4.318-.1133-6.16-.1246-1.865-.7364-3.841-1.733-5.517-1.371-2.287-3.399-4.196-4.271-6.727-1.201-3.508-.8158-7.037-.8158-10.66h-27.82c0 3.619-.3966 7.148.8158 10.66.8724 2.531 2.9 4.429 4.271 6.727.997 1.676 1.609 3.652 1.733 5.517.1246 1.843.7364 4.407.1133 6.16z" mask="url(#SVGID_1_)" stroke-width="1.121"/><rect transform="matrix(.9178 .3971 -.48 .8773 0 0)" x="723.1" y="-79.49" width="6.814" height="6.018" style="paint-order:normal"/></g><path class="st4" d="m703.1 222.2c-.2144.3918-.2356.4519.008.5805l.1346.073c.0185.0262-.028.0901-.0589.0899-.2466-.1166-.3934-.1851-.5691-.2611s-.3315-.1387-.6168-.252c-.0202-.0235.006-.0896.051-.0933l.165.0566c.2596.0892.3122.0428.5266-.3491l.9137-1.67c.0634-.116.0656-.1199-.0661-.177l-.2416-.1045c-.1882-.0814-.4357-.1786-.5922-.1408-.1496.0359-.2387.0995-.3384.1717-.047.008-.0977-.0376-.099-.0741.1625-.1374.3596-.3488.4711-.4852.017-.002.0772.0185.0831.036-.0389.1315.1076.1899.3099.2775l1.78.7703c.2384.1032.282.1121.4012.0434.0263.00099.0726.0267.0742.0453-.1325.1322-.3294.4212-.3765.5393-.0334.0218-.1086-.0108-.1189-.0416.0385-.0988.0822-.2496.039-.3194-.0654-.1074-.2172-.2093-.4588-.3138l-.3122-.1351c-.1318-.057-.1292-.0511-.1964.0717l-.9101 1.663z" fill="#949599" stroke-width=".1608"/><rect transform="matrix(.9178 .3971 -.48 .8773 0 0)" x="684.3" y="-79.43" width="6.814" height="6.018" opacity="0" stroke-width=".07055" style="paint-order:normal"/><rect class="st2" transform="matrix(.9212 .3892 -.4841 .875 0 0)" x="732.2" y="-62.26" width="32.88" height="19.92" fill="#f1f2f2" stroke-width=".1641"/><rect class="st3" transform="matrix(.9212 .3892 -.4841 .875 0 0)" x="732.2" y="-62.26" width="32.88" height="3.551" fill="#afafaf" stroke-width=".1641"/><path class="st5" d="m731.3 243.7c.1661-.3003.069-.6411-.2186-.7627-.2862-.1209-.6521.0243-.8183.3246s-.0699.6426.2163.7636c.2885.1198.6544-.0252.8206-.3254z" fill="#fff" stroke-width=".1636"/><rect class="st14" transform="matrix(.9212 .3892 -.4841 .875 0 0)" x="737" y="-54.04" width="3.502" height="3.869" fill="#f7f9fc" stroke-width=".1641"/><path class="st4" d="m706.5 244.5-3.51-1.483 2.038-3.684 3.511 1.483zm-3.06-1.662 2.941 1.243 1.707-3.086-2.941-1.243z" fill="#949599" stroke-width=".1636"/><g id="XMLID_35_" transform="matrix(.1438 .06076 -.08349 .1509 627.9 162.4)"><path class="st3" d="m691.3 254.7v-8.48h-8.48v8.48zm1.39-9.88v11.28h-11.28v-11.28z" fill="#626464"/></g><rect class="st4" transform="matrix(.9212 .3892 -.4841 .875 0 0)" x="735" y="-56.23" width="3.113" height="3.439" fill="#949599" stroke-width=".1641"/><g transform="matrix(.1438 .06076 -.08349 .1509 627.9 162.4)"><rect class="st2" x="644.9" y="319.2" width="210.6" height="115.5" fill="#f1f2f2"/><rect class="st3" x="644.9" y="319.2" width="210.6" height="20.59" fill="#afafaf"/><path class="st5" d="m836.5 329.5c0-1.99-1.61-3.61-3.61-3.61-1.99 0-3.6 1.62-3.6 3.61s1.61 3.6 3.6 3.6c2 0 3.61-1.61 3.61-3.6z" fill="#fff"/><rect x="680.7" y="349.9" width="19.74" height="19.73"/><rect class="st18" x="705.2" y="349.9" width="19.74" height="19.73" fill="#ed1c24"/><rect class="st19" x="729.7" y="349.9" width="19.74" height="19.73" fill="#fff200" opacity=".3"/><rect class="st20" x="754.2" y="349.9" width="19.74" height="19.73" fill="#00a651"/><rect class="st21" x="778.7" y="349.9" width="19.74" height="19.73" fill="#00aeef"/><rect class="st22" x="803.2" y="349.9" width="19.73" height="19.73" fill="#ec008c"/><rect class="st23" x="827.7" y="349.9" width="19.73" height="19.73" fill="#be1e2d"/><rect class="st24" x="656.2" y="375.1" width="19.73" height="19.73" fill="#fbb040"/><rect class="st25" x="680.7" y="375.1" width="19.74" height="19.73" fill="#f9ed32"/><rect class="st26" x="705.2" y="375.1" width="19.74" height="19.73" fill="#d7df23"/><rect class="st27" x="729.7" y="375.1" width="19.74" height="19.73" fill="#8dc63f"/><rect class="st28" x="754.2" y="375.1" width="19.74" height="19.73" fill="#009444"/><rect class="st29" x="778.7" y="375.1" width="19.74" height="19.73" fill="#006838"/><rect class="st30" x="803.2" y="375.1" width="19.73" height="19.73" fill="#2bb673"/><rect class="st34" x="705.2" y="400.3" width="19.74" height="19.74" fill="#9b8579"/><rect class="st35" x="729.7" y="400.3" width="19.74" height="19.74" fill="#594a42"/><rect class="st36" x="754.2" y="400.3" width="19.74" height="19.74" fill="#c49a6c"/><rect class="st37" x="778.7" y="400.3" width="19.74" height="19.74" fill="#c4c4c3"/><rect class="st38" x="803.2" y="400.3" width="19.73" height="19.74" fill="#f0b6d2"/><rect class="st39" x="827.7" y="400.3" width="19.73" height="19.74" fill="url(#SVGID_1_-0)"/><path class="st5" d="m847.1 329.5c0-1.99-1.61-3.6-3.61-3.6-1.99 0-3.6 1.61-3.6 3.6s1.61 3.61 3.6 3.61c2-.01 3.61-1.62 3.61-3.61z" fill="#fff"/><rect class="st21" x="827.9" y="375.1" width="19.74" height="19.73" fill="#27aae1"/><rect class="st34" x="680.5" y="400.3" width="19.74" height="19.74" fill="#c2b59b"/><rect class="st34" x="655.8" y="400.3" width="19.74" height="19.74" fill="#1c75bc"/></g><g fill="#fff"><path class="st5" d="m732.8 244.3c.1661-.3003.069-.6411-.2186-.7626-.2862-.1209-.6521.0243-.8183.3246-.1661.3003-.0699.6426.2163.7635.2885.1198.6544-.0252.8206-.3255z" stroke-width=".1636"/><rect transform="matrix(.9212 .3892 -.4841 .875 0 0)" x="744.1" y="-54.93" width="16.69" height="1.701" style="paint-order:normal"/><rect transform="matrix(.9212 .3892 -.4841 .875 0 0)" x="762.1" y="-51" width="1.814" height="1.701" style="paint-order:normal"/><rect transform="matrix(.9212 .3892 -.4841 .875 0 0)" x="744.1" y="-51.03" width="16.69" height="1.701" style="paint-order:normal"/><rect transform="matrix(.9212 .3892 -.4841 .875 0 0)" x="744.1" y="-47.03" width="16.69" height="1.701" style="paint-order:normal"/><rect transform="matrix(.9212 .3892 -.4841 .875 0 0)" x="762.1" y="-54.88" width="1.814" height="1.701" style="paint-order:normal"/><rect transform="matrix(.9212 .3892 -.4841 .875 0 0)" x="762" y="-47.03" width="1.814" height="1.701" style="paint-order:normal"/><rect transform="matrix(.9212 .3892 -.4841 .875 0 0)" x="733.9" y="-34.94" width="3.082" height="3.403" stroke-width=".1641"/></g><g transform="matrix(.2044 .08956 -.1091 .2276 620.6 216.1)"><flowRoot transform="translate(259.5,64.48)" fill="#000000" font-family="sans-serif" font-size="12px" letter-spacing="0px" word-spacing="0px" style="line-height:1.25" xml:space="preserve"><flowRegion><rect x="-128.4" y="-44.76" width="17.62" height="49.26"/></flowRegion><flowPara/></flowRoot><g transform="matrix(1.611,0,0,1.845,-51.11,-35.12)" fill="#08004b"><rect transform="matrix(.9864 -.1646 .2185 .9758 0 0)" x="44.64" y="35.28" width="25.36" height="21.21" stroke-width=".07796"/><rect transform="matrix(.9978 .06624 -.08872 .9961 0 0)" x="77.78" y="20.43" width="25.46" height="21.1" stroke-width=".07791"/><rect transform="matrix(.9904 -.1379 .1837 .983 0 0)" x="86.15" y="39.63" width="25.4" height="21.17" stroke-width=".07794"/><rect transform="matrix(.9976 .06941 -.09295 .9957 0 0)" x="117" y="17.54" width="25.46" height="21.1" stroke-width=".07791"/><rect transform="matrix(.9929 -.119 .1588 .9873 0 0)" x="128.1" y="42.4" width="25.42" height="21.15" stroke-width=".07793"/><rect transform="matrix(.9978 .06565 -.08793 .9961 0 0)" x="157" y="15.33" width="25.46" height="21.1" stroke-width=".07791"/><rect transform="matrix(.9952 -.09823 .1313 .9913 0 0)" x="167.5" y="43.2" width="25.44" height="21.13" stroke-width=".07792"/></g></g><rect class="st2" transform="matrix(.9178 .3971 -.48 .8773 0 0)" x="645.7" y="-83.56" width="18.17" height="11.2" fill="#f1f2f2" stroke-width=".1611"/><rect class="st3" transform="matrix(.9178 .3971 -.48 .8773 0 0)" x="645.7" y="-83.56" width="18.17" height="3.128" fill="#afafaf" stroke-width=".1611"/><path class="st5" d="m645.7 190.3c.1451-.2652.0101-.5891-.3022-.7241-.3122-.135-.6821-.0298-.8272.2355-.1451.2652-.0108.5904.3015.7254.3112.1333.6828.0284.828-.2368z" fill="#fff" stroke-width=".1608"/><rect class="st2" transform="matrix(.9178 .3971 -.48 .8773 0 0)" x="665.9" y="-83.79" width="43.45" height="11.2" fill="#f1f2f2" stroke-width=".1611"/><rect class="st3" transform="matrix(.9178 .3971 -.48 .8773 0 0)" x="665.9" y="-83.79" width="43.45" height="3.128" fill="#afafaf" stroke-width=".1611"/><path class="st5" d="m687.4 208.1c.1451-.2652.0108-.5904-.303-.7261-.3122-.1351-.6821-.0298-.828.2368-.1458.2666-.009.5898.3022.7241.3132.1368.683.0317.8288-.2348z" fill="#fff" stroke-width=".1608"/><rect transform="matrix(.9178 .3971 -.48 .8773 0 0)" x="684" y="-79.7" width="7.107" height="6.287" fill="#c5c5c5" style="paint-order:normal"/><rect transform="matrix(.9178 .3971 -.48 .8773 0 0)" x="684.3" y="-79.43" width="6.814" height="6.018" fill="#fff" style="paint-order:normal"/><path class="st4" d="m669.7 206.9c-.3624.6624-1.507.833-2.557.379-1.049-.454-1.606-1.359-1.243-2.023.3624-.6624 1.507-.833 2.557-.379 1.049.454 1.606 1.359 1.243 2.023z" fill="#949599" stroke-width=".1608"/><rect transform="matrix(.9178 .3971 -.48 .8773 0 0)" x="684.3" y="-79.43" width="6.814" height="6.018" opacity="0" stroke-width=".07055" style="paint-order:normal"/><rect transform="matrix(.9178 .3971 -.48 .8773 0 0)" x="692.3" y="-79.77" width="7.107" height="6.287" fill="#c5c5c5" style="paint-order:normal"/><rect transform="matrix(.9178 .3971 -.48 .8773 0 0)" x="692.6" y="-79.49" width="6.814" height="6.018" fill="#fff" style="paint-order:normal"/><polygon class="st4" transform="matrix(.1569 .06786 -.07292 .1333 626 163)" points="393 140.2 399.6 151.5 393 162.9 379.9 162.9 373.4 151.5 379.9 140.2" fill="#949599"/><rect transform="matrix(.9178 .3971 -.48 .8773 0 0)" x="700.7" y="-79.77" width="7.107" height="6.287" fill="#c5c5c5" style="paint-order:normal"/><rect transform="matrix(.9178 .3971 -.48 .8773 0 0)" x="701" y="-79.49" width="6.814" height="6.018" fill="#fff" style="paint-order:normal"/><polygon class="st4" transform="matrix(.1569 .06786 -.07292 .1333 626 163)" points="439.3 152.4 442.2 161.3 434.7 155.8 427.2 161.3 430 152.4 422.5 147 431.8 147 434.7 138.1 437.6 147 446.9 147" fill="#949599"/><rect transform="matrix(.9178 .3971 -.48 .8773 0 0)" x="667.3" y="-79.71" width="7.107" height="6.287" fill="#c5c5c5" style="paint-order:normal"/><rect transform="matrix(.9178 .3971 -.48 .8773 0 0)" x="667.6" y="-79.43" width="6.814" height="6.018" fill="#fff" style="paint-order:normal"/><rect transform="matrix(.9178 .3971 -.48 .8773 0 0)" x="675.7" y="-79.71" width="7.107" height="6.287" fill="#c5c5c5" style="paint-order:normal"/><rect transform="matrix(.9178 .3971 -.48 .8773 0 0)" x="676" y="-79.43" width="6.814" height="6.018" fill="#fff" style="paint-order:normal"/><rect transform="matrix(.9178 .3971 -.48 .8773 0 0)" x="647.1" y="-79.74" width="7.107" height="6.287" fill="#c5c5c5" style="paint-order:normal"/><rect transform="matrix(.9178 .3971 -.48 .8773 0 0)" x="647.4" y="-79.47" width="6.814" height="6.018" fill="#fff" style="paint-order:normal"/><rect transform="matrix(.9178 .3971 -.48 .8773 0 0)" x="655.3" y="-79.7" width="7.107" height="6.287" fill="#c5c5c5" style="paint-order:normal"/><rect transform="matrix(.9178 .3971 -.48 .8773 0 0)" x="655.6" y="-79.43" width="6.814" height="6.018" fill="#fff" style="paint-order:normal"/><polygon class="st9" transform="matrix(.1569 .06786 -.07292 .1333 626 163)" points="116.5 142.3 128.9 154.4 123.6 154.8 127.3 161.1 123.8 163.5 120 156.5 116.5 159.6" fill="#b5b5b6"/><polygon class="st9" transform="matrix(.1569 .06786 -.07292 .1333 626 163)" points="164.5 142.3 176.8 154.4 171.5 154.8 175.2 161.1 171.8 163.5 167.9 156.5 164.5 159.6" fill="#b5b5b6"/><path class="st3" d="m643.4 193.6-.1991.3638.4126.1785-.051.0933-.4126-.1785-.2013.3678-.1176-.0509.2013-.3678-.4126-.1785.051-.0933.4126.1785.1991-.3638z" fill="#626464" stroke-width=".1608"/><rect class="st4" transform="matrix(.9178 .3971 -.48 .8773 0 0)" x="668.7" y="-77.96" width="4.492" height="3.105" fill="#949599" stroke-width=".1611"/><path class="st4" d="m661.9 204.2c-.2217.4052-.787.5661-1.264.3598l-2.388-1.033c-.4769-.2063-.6834-.7011-.4617-1.106l.6133-1.121c.2217-.4052.787-.5661 1.264-.3598l2.387 1.033c.4769.2063.6834.7011.4617 1.106z" fill="#949599" stroke-width=".1608"/><rect transform="matrix(.9178 .3971 -.48 .8773 0 0)" x="714.3" y="-79.76" width="7.107" height="6.287" fill="#c5c5c5" style="paint-order:normal"/><rect transform="matrix(.9178 .3971 -.48 .8773 0 0)" x="714.6" y="-79.49" width="6.814" height="6.018" fill="#fff" style="paint-order:normal"/><g transform="matrix(.1569 .06786 -.07292 .1333 626 163)" fill="#949599"><path class="st4" d="m516.6 157.5c0 3.35.06 3.83 1.91 3.99l1.02.1c.19.12.12.7-.06.8-1.82-.07-2.91-.1-4.18-.1s-2.39.03-4.43.1c-.2-.1-.26-.64 0-.8l1.15-.1c1.81-.16 1.97-.64 1.97-3.99v-14.27c0-.99 0-1.02-.95-1.02h-1.76c-1.37 0-3.13.07-3.93.8-.76.7-1.08 1.4-1.44 2.2-.26.19-.7.04-.83-.22.51-1.43.99-3.48 1.21-4.75.09-.06.51-.1.61 0 .19 1.02 1.24.99 2.71.99h12.92c1.72 0 2.01-.06 2.49-.89.16-.06.52-.03.58.09-.36 1.31-.58 3.9-.48 4.85-.13.26-.67.26-.83.06-.1-.79-.32-1.98-.8-2.33-.73-.55-1.95-.8-3.7-.8h-2.27c-.96 0-.92.04-.92 1.08v14.21z" fill="#949599"/></g><rect transform="matrix(.9178 .3971 -.48 .8773 0 0)" x="739.9" y="-79.49" width="6.814" height="6.018" fill="#fff" style="paint-order:normal"/><rect transform="matrix(.9178 .3971 -.48 .8773 0 0)" x="731.5" y="-79.49" width="6.814" height="6.018" fill="#fff" style="paint-order:normal"/><g fill="#949599"><g stroke-width=".1608"><path class="st4" d="m710.5 225.4c-.3889.2817-.4392.3276-.27.5326l.0927.1143c.004.0301-.0688.0724-.1009.0602-.1765-.195-.2824-.3101-.412-.442s-.2462-.245-.461-.4516c-.008-.0282.049-.0794.093-.067l.1274.1112c.2029.1751.274.1515.6645-.1295l1.662-1.196c.1148-.0822.1186-.0855.022-.1851l-.1776-.1823c-.1377-.142-.3244-.3184-.4906-.3408-.1576-.0204-.2727.005-.4016.0356-.0483-.011-.0742-.07-.0576-.104.2189-.0669.5056-.19.6768-.2725.0172.004.0626.0452.0609.0626-.0985.1057.0101.2121.1597.3641l1.309 1.341c.1752.1796.2108.2033.3555.1835.0245.012.0558.0505.0479.0685-.1893.073-.5123.2662-.6129.3579-.043.008-.0974-.0489-.0916-.0808.0826-.0763.1983-.1994.1903-.277-.0109-.1218-.1048-.2695-.2808-.4512l-.2304-.2348c-.0968-.0995-.0966-.0929-.219-.004z"/><path class="st4" d="m708.3 224.9c.1217-.1089.4057.0635.6865.3514.1713.1763.2843.3208.5189.6366.1716.2325.2986.4044.449.5585.1464.1507.2553.1929.3326.1439l.2416.2463c-.128.1276-.4145-.0721-.6665-.3312-.1625-.1675-.2931-.3295-.5324-.6473-.1618-.2184-.2836-.393-.43-.5437s-.2708-.2177-.3541-.1647z"/><path class="st4" d="m718.8 229c-.2443.4465-.2699.5145.009.6614l.1527.0825c.0203.0302-.0322.1014-.0678.1026-.2804-.1328-.4476-.2101-.6484-.297s-.377-.1584-.7022-.2873c-.0241-.0269.006-.103.0584-.1066l.1877.0648c.2972.1022.3572.0491.6016-.3974l1.04-1.901c.0722-.1319.0744-.136-.0763-.2011l-.2761-.1194c-.2149-.093-.4961-.2031-.6748-.1601-.1703.0418-.2715.1133-.3863.1955-.0547.008-.1128-.042-.1142-.0856.1843-.156.4091-.3966.5362-.551.0185-.002.0873.0213.0957.0415-.0447.1488.1223.2161.3529.3158l2.027.8768c.2698.1167.3197.1284.4555.0504.0294.003.0836.0314.0843.0513-.152.1502-.3746.4791-.429.6138-.0387.0245-.1234-.0122-.1346-.0483.0435-.1114.0942-.2856.0445-.3648-.0744-.1228-.2476-.239-.5221-.3577l-.3561-.154c-.149-.0645-.1473-.057-.2231.0815l-1.036 1.893z"/></g><polygon class="st4" transform="matrix(.1569 .06786 -.07292 .1333 626 163)" points="651.8 158.6 650.1 161.5 648.4 158.6"/><rect class="st4" transform="matrix(.9178 .3971 -.48 .8773 0 0)" x="741.2" y="-78.06" width=".1145" height="2.786" stroke-width=".1611"/></g><g fill="#fff" stroke-width=".1608"><path class="st5" d="m647.4 191.1c.1451-.2652.0101-.5891-.3022-.7241-.3122-.135-.6821-.0298-.8272.2355-.1451.2652-.0108.5904.3015.7254.3112.1333.6828.0284.828-.2368z"/><path class="st5" d="m689.1 208.8c.1451-.2652.0101-.5891-.3022-.7241-.3122-.135-.6821-.0298-.8272.2355-.1451.2652-.0108.5904.3014.7254.3112.1333.6829.0284.828-.2368z"/><path class="st5" d="m724.4 224.1c.1451-.2652.0101-.5891-.3022-.7241-.3122-.1351-.6821-.0297-.8272.2355s-.0108.5904.3015.7254c.3112.1333.6829.0284.828-.2368z"/></g><g transform="matrix(1.001 0 0 .9832 -667.9 -69.85)"><g id="Highlights_1_"><circle class="st8" transform="matrix(.7071 -.7071 .7071 .7071 168.2 841.5)" cx="1100" cy="217.7" r="12.34" fill="none" mask="url(#SVGID_1_)" stroke="#bdeca6" stroke-miterlimit="10" stroke-width="5.614"/><path class="st70" d="m1776 496c.094-.0847.211-.1823.3269-.2795 3.709-3.647 3.854-9.843.3266-13.85-3.515-3.978-9.384-4.236-13.09-.5894-.095.0847-.1861.2276-.2804.3127-.094.085-.211.1823-.3051.267-3.732 3.658-33.91 45.27-33.12 46.19.686.7642 42.17-28.09 45.88-31.74.062-.0955.1667-.2154.2608-.3001z" fill="#f9bd1a" stroke-width="2.524"/><path class="st71" d="m1773 492c.053-.0596.1169-.0972.1465-.145 2.001-1.969 2.1-5.307.1816-7.441-1.897-2.147-5.046-2.285-7.071-.3038-.052.0596-.082.1078-.1464.145-.053.0596-.1168.0972-.169.1572-2.001 1.969-19.74 22.72-17.84 24.86 1.898 2.147 22.71-15.14 24.71-17.11.075-.0725.1269-.1324.1884-.1697z" fill="#f8eb32" stroke-width="2.524"/><g transform="matrix(3.206 .04553 -.04946 3.63 1464 358.7)"><g stroke-width=".7397"><path class="st72" d="m111.3 32.71c-.4314-2.868-2.067-4.493-2.085-4.508-.0182-.01516-.0325-.02408-.0536-.02954l-.669-.1007c-.0315-.0081-.0617-.000358-.0909.02336l-6.066 4.417c-.0292.02372-.0572.06344-.0513.1015-.00045.04165.0294.0755.0581.09339.2131.1023.4234.2144.6166.3272.2899.1692.5533.3525.793.54l1.154-.8435c.0264-.01402.0568-.0218.0843-.01983l.6652.09447c.0209.0055.0459.01718.0641.03225.0182.01516 1.643 1.638 2.085 4.508.2784 1.831.091 4.439-1.678 7.655.0342-.0014.0683-.0031.0937-.03307 4.926-5.344 5.475-9.618 5.08-12.26z" fill="#1200a8"/><path class="st73" d="m107.9 37.35c-.4352-2.874-2.067-4.493-2.085-4.508-.0182-.01516-.0431-.02682-.0641-.03225l-.6652-.09447c-.0315-.0081-.0617-.000357-.0843.01983l-1.154.8435c4.667 3.644 2.3 11.21 2.271 11.29-.0203.05211.004.1055.0472.1323.0144.009.0315.0081.0486.0072 1.776-3.218 1.959-5.833 1.685-7.658z" fill="#0a005d"/><path class="st72" d="m103.4 23.09-.0825-.6269c-.005-.0222-.0166-.04085-.0283-.05956-.0182-.01517-1.688-1.597-4.753-2.117-2.812-.4797-7.42-.1314-13.34 4.234-.03303.01753-.04396.05644-.04555.08211 3.516-1.525 6.323-1.589 8.271-1.255 3.061.5132 4.731 2.095 4.753 2.117.01822.01516.02324.03737.02829.05956l.08254.6269c.0022.03191-.0059.06109-.02853.08131l-.9442 1.039c.1985.2342.381.4852.5515.7591.1162.1868.2231.3868.33.5868.0128.03467.05196.05525.09662.0564.04854.0072.08818-.01366.1173-.03737l4.972-5.468c.0161-.01664.0245-.04577.0219-.07781z" fill="#1200a8"/><path class="st73" d="m98.28 26.14-.08254-.6269c-.0049-.0222-.01011-.04437-.02829-.05956-.01821-.01515-1.688-1.597-4.753-2.117-1.948-.3336-4.755-.2693-8.271 1.255l.0035.04788c.02712.04359.08341.06342.1374.05135.09091-.02338 8.291-1.928 12.02 2.562l.9442-1.039c.02644-.01402.03465-.0432.03235-.07511z" fill="#0a005d"/></g><polygon class="st74" transform="matrix(.3874 .6226 -.6608 .3503 445.6 -321.9)" points="209.6 641.7 204.7 642.9 205.5 646 209.7 645" fill="#2b2d25"/></g><polygon class="st75" transform="matrix(1.211 2.278 -2.136 1.242 2908 -789.5)" points="204.7 642.9 199.8 644.1 201.3 647.1 205.5 646" fill="#2b2d25"/><g transform="matrix(3.206 .04553 -.04946 3.63 1464 358.7)" stroke-width=".7397"><path class="st73" d="m117.3 10.83c.8673.7159 1.721 1.48 2.557 2.287l2.797-2.51c-.0959.001-2.273-.1778-5.354.2223z" fill="#2c37a7"/><path class="st72" d="m122.7 10.55-2.808 2.507c.8361.807 1.615 1.636 2.354 2.47.5578-2.846.4565-4.887.4535-4.977z" fill="#3543c8"/><path class="st76" d="m122.2 15.53c-.732-.8373-1.518-1.663-2.354-2.47l-11.24 10.13c2.082 2.018 3.879 4.087 5.334 6.073 5.421-4.083 7.489-9.742 8.263-13.74z" fill="#08004c"/><path class="st77" d="m108.6 23.14-1.811 1.623c1.983 1.929 3.708 3.896 5.13 5.8.7207-.4235 1.388-.8766 2.016-1.35-1.455-1.986-3.253-4.055-5.334-6.073z" fill="#ebe8de"/><path class="st76" d="m106.8 24.75-7.38 6.612.6643.6579 2.023 1.966c4.002-.6728 7.224-1.893 9.816-3.432-1.405-1.905-3.134-3.878-5.123-5.804z" fill="#090051"/><path class="st78" d="m117.3 10.83c-4.308.5619-10.39 2.261-14.98 7.149 2.078 1.432 4.216 3.188 6.298 5.206l11.23-10.06c-.8256-.8042-1.679-1.569-2.55-2.291z" fill="#09004f"/><path class="st79" d="m102.3 17.95c-.5291.562-1.038 1.171-1.53 1.821 1.986 1.398 4.033 3.078 6.016 5.007l1.811-1.623c-2.082-2.018-4.22-3.774-6.298-5.206z" fill="#ddddca"/><path class="st78" d="m100.8 19.81c-1.759 2.357-3.19 5.31-4.067 9.012l2.023 1.966.6802.6412 7.38-6.612c-1.983-1.929-4.034-3.616-6.016-5.007z" fill="#090052"/><path class="st72" d="m106.3 25.29-11.13 9.966c.5045.486 7.056-4.619 8.829-6.205s2.808-3.269 2.3-3.761z" fill="#3543c8"/><path class="st73" d="m102.2 27.3c-1.773 1.586-7.503 7.489-7.005 7.978l11.13-9.966c-.5084-.4922-2.351.402-4.124 1.988z" fill="#2c37a7"/></g><g transform="matrix(.133 .1415 -.1427 .143 1807 410.5)"><path d="m9.92 64.95 280-19.18 10.1 249.2h-300z" fill="#08004c"/><rect x="23.86" y="23.46" width="252.3" height="248.1" fill="#08004c"/><path d="m72.5 83.14s18.97-.499 34.58-.499c15.78 0 27.03 3.712 34.58 10.24 7.219 6.164 12.09 16.67 12.09 28.63s-3.694 21.75-10.41 28.63c-8.729 8.881-18.9 14.14-36.26 14.86-4.795.201-9.233.249-9.233.249v38.88h-25.35zm25.35 60.57c2.754.268 4.48.139 8.562.09 13.6-.163 21.99-8.432 21.99-20.94 0-11.23-6.919-20.46-19.97-20.94-5.203-.19-10.58 0-10.58 0z" fill="url(#SVGID_3_-7-8)"/><path d="m163.4 177.1c5.109 3.135 17.16 7.83 25.38 7.83 8.396 0 11.86-2.959 11.86-7.572 0-4.619-2.738-9.471-13.14-12.98-18.44-6.279-25.56-13.8-25.38-24.32 0-16.99 14.24-29.73 36.33-29.73 10.41 0 18.72 3.402 24.19 6.17v20.39c-4.019-2.218-15.61-7.17-23.28-7.17-6.758 0-10.59 2.769-10.59 7.382 0 4.248 3.471 6.464 14.42 10.34 16.98 5.908 24.1 14.58 24.28 27.88 0 16.8-12.95 30.17-38.7 29.36-8.835-.278-18.62-3.77-25.38-7.459v-20.13z" fill="url(#SVGID_4_-8-7)"/></g><g transform="matrix(1.183 0 0 1.198 558.1 81.09)" fill="none" stroke="#fff" stroke-linecap="round" stroke-linejoin="round"><path d="m164.8 88.88 58.73.1965c1.043-3.226 2.077-7.674 7.233-9.668 4.841-1.87 11.1-1.927 15.82 2.592 3.705-4.719 7.765-9.093 18.2-7.271 4.777-12.53 9.202-25.27 37.62-23 19.18-18.58 39.07-14.28 51.45 3.537 20.98-2.632 31.65 4.39 32.04 21.03 11.98-.3215 17.02 5.212 19.66 12.78h41.5" stroke-width="2.7"/><path d="m698.5 50.51 100.2.3132c7.664-6.048 14.07-5.193 19.91-1.253 1.713-9.308 3.457-15.73 10.58-19.64 7.61-4.013 13.86-4.615 26.83.8432 4.128-8.605 10.06-14.4 19.09-16.73 21.46-5.302 41.99 7.949 37.19 33.02 5.905-.9171 10.37.2652 13.04 4.072h37.41" stroke-width="2.866"/><path d="m947.2 130.1 39.19.3c1.544-4.182 5.044-6.071 10.98-5.101.7436-7.428 2.984-14.19 9.256-17.6 5.835-3.171 11.86-3.02 20.6.4956 5.188-4.466 8.003-6.753 14.39-6.146 12.68 1.344 19.39 11.95 13.07 22.65 4.988-.3057 8.354 1.394 9.61 5.701l68.3-.3" stroke-width="2.337"/></g><g transform="matrix(.9993 0 0 1.017 654.2 108.7)" fill="#fff"><rect x="327.1" y="224.1" width="54.2" height="3.139" rx="1.269" ry="1.269" style="paint-order:stroke fill markers"/><rect x="310.8" y="224.1" width="12.09" height="3.139" rx="1.269" ry="1.269" style="paint-order:stroke fill markers"/><rect x="335.7" y="101" width="85.99" height="3.139" rx="1.269" ry="1.269" style="paint-order:stroke fill markers"/><rect x="199.5" y="121.8" width="85.99" height="3.139" rx="1.269" ry="1.269" style="paint-order:stroke fill markers"/><rect x="344.3" y="121.5" width="19.52" height="3.139" rx="1.269" ry="1.269" style="paint-order:stroke fill markers"/><rect x="754.5" y="57.03" width="90.85" height="3.139" rx="1.269" ry="1.269" style="paint-order:stroke fill markers"/><rect x="806.8" y="78.1" width="96.63" height="3.139" rx="1.269" ry="1.269" style="paint-order:stroke fill markers"/><rect x="962.8" y="143.1" width="75.02" height="3.139" rx="1.269" ry="1.269" stroke-width="1.006" style="paint-order:stroke fill markers"/><rect x="1091" y="219.6" width="29.93" height="3.139" rx="1.269" ry="1.269" style="paint-order:stroke fill markers"/><rect x="1102" y="233.9" width="60.27" height="3.139" rx="1.269" ry="1.269" style="paint-order:stroke fill markers"/></g><g transform="matrix(.9993 0 0 1.017 650.2 114.8)" fill="#fff"><rect x="1038" y="262" width="37.7" height="3.139" rx="1.269" ry="1.269" style="paint-order:stroke fill markers"/><rect x="389.1" y="237.5" width="27.82" height="3.139" rx="1.269" ry="1.269" style="paint-order:stroke fill markers"/><rect x="107.5" y="341.1" width="40.85" height="3.139" rx="1.269" ry="1.269" style="paint-order:stroke fill markers"/><rect x="123.2" y="358.4" width="27.99" height="3.139" rx="1.269" ry="1.269" style="paint-order:stroke fill markers"/><rect x="157.9" y="358.4" width="44.8" height="3.139" rx="1.269" ry="1.269" style="paint-order:stroke fill markers"/><rect x="262.5" y="368.4" width="56.65" height="3.139" rx="1.269" ry="1.269" style="paint-order:stroke fill markers"/><rect x="256.5" y="378.7" width="31.25" height="3.139" rx="1.269" ry="1.269" style="paint-order:stroke fill markers"/><rect x="281.3" y="430.7" width="50.47" height="3.139" rx="1.269" ry="1.269" style="paint-order:stroke fill markers"/><rect x="226.4" y="535.8" width="71.43" height="3.139" rx="1.269" ry="1.269" style="paint-order:stroke fill markers"/><rect x="316.3" y="535.8" width="25.08" height="3.139" rx="1.269" ry="1.269" style="paint-order:stroke fill markers"/><rect x="271.1" y="553.3" width="109" height="3.139" rx="1.269" ry="1.269" style="paint-order:stroke fill markers"/><rect x="980.6" y="351.8" width="52.9" height="3.139" rx="1.269" ry="1.269" style="paint-order:stroke fill markers"/><rect x="945.9" y="362.8" width="72.8" height="3.139" rx="1.269" ry="1.269" style="paint-order:stroke fill markers"/><rect x="1084" y="454.8" width="70.06" height="3.139" rx="1.269" ry="1.269" style="paint-order:stroke fill markers"/><rect x="1107" y="441.7" width="30.93" height="3.139" rx="1.269" ry="1.269" style="paint-order:stroke fill markers"/><rect x="893" y="526.3" width="71.43" height="3.139" rx="1.269" ry="1.269" style="paint-order:stroke fill markers"/><rect x="874" y="537.9" width="29.9" height="3.139" rx="1.269" ry="1.269" style="paint-order:stroke fill markers"/></g><path class="st70" d="m778.2 622.4c.0814-.0701.1828-.1509.2832-.2315 3.213-3.02 3.339-8.15.283-11.47-3.046-3.294-8.13-3.508-11.34-.488-.0823.0701-.1612.1885-.2429.2589-.0814.0704-.1828.151-.2643.2211-3.233 3.029-29.38 37.48-28.69 38.24.5943.6328 36.54-23.26 39.75-26.28.0537-.0791.1444-.1784.226-.2485z" fill="#f9bd1a" stroke-width="2.138"/><path class="st71" d="m776.1 619.1c.0459-.0494.1013-.0805.1269-.1201 1.734-1.63 1.819-4.395.1573-6.161-1.644-1.778-4.371-1.892-6.126-.2516-.0451.0494-.071.0892-.1268.1201-.0459.0494-.1012.0805-.1464.1301-1.734 1.63-17.1 18.81-15.46 20.59 1.645 1.778 19.68-12.54 21.41-14.17.065-.06.1099-.1096.1632-.1406z" fill="#f8eb32" stroke-width="2.138"/><g transform="matrix(2.778 .0377 -.04285 3.006 507.8 508.8)"><g stroke-width=".7397"><path class="st72" d="m111.3 32.71c-.4314-2.868-2.067-4.493-2.085-4.508-.0182-.01516-.0325-.02408-.0536-.02954l-.669-.1007c-.0315-.0081-.0617-.000358-.0909.02336l-6.066 4.417c-.0292.02372-.0572.06344-.0513.1015-.00045.04165.0294.0755.0581.09339.2131.1023.4234.2144.6166.3272.2899.1692.5533.3525.793.54l1.154-.8435c.0264-.01402.0568-.0218.0843-.01983l.6652.09447c.0209.0055.0459.01718.0641.03225.0182.01516 1.643 1.638 2.085 4.508.2784 1.831.091 4.439-1.678 7.655.0342-.0014.0683-.0031.0937-.03307 4.926-5.344 5.475-9.618 5.08-12.26z" fill="#1200a8"/><path class="st73" d="m107.9 37.35c-.4352-2.874-2.067-4.493-2.085-4.508-.0182-.01516-.0431-.02682-.0641-.03225l-.6652-.09447c-.0315-.0081-.0617-.000357-.0843.01983l-1.154.8435c4.667 3.644 2.3 11.21 2.271 11.29-.0203.05211.004.1055.0472.1323.0144.009.0315.0081.0486.0072 1.776-3.218 1.959-5.833 1.685-7.658z" fill="#0a005d"/><path class="st72" d="m103.4 23.09-.0825-.6269c-.005-.0222-.0166-.04085-.0283-.05956-.0182-.01517-1.688-1.597-4.753-2.117-2.812-.4797-7.42-.1314-13.34 4.234-.03303.01753-.04396.05644-.04555.08211 3.516-1.525 6.323-1.589 8.271-1.255 3.061.5132 4.731 2.095 4.753 2.117.01822.01516.02324.03737.02829.05956l.08254.6269c.0022.03191-.0059.06109-.02853.08131l-.9442 1.039c.1985.2342.381.4852.5515.7591.1162.1868.2231.3868.33.5868.0128.03467.05196.05525.09662.0564.04854.0072.08818-.01366.1173-.03737l4.972-5.468c.0161-.01664.0245-.04577.0219-.07781z" fill="#1200a8"/><path class="st73" d="m98.28 26.14-.08254-.6269c-.0049-.0222-.01011-.04437-.02829-.05956-.01821-.01515-1.688-1.597-4.753-2.117-1.948-.3336-4.755-.2693-8.271 1.255l.0035.04788c.02712.04359.08341.06342.1374.05135.09091-.02338 8.291-1.928 12.02 2.562l.9442-1.039c.02644-.01402.03465-.0432.03235-.07511z" fill="#0a005d"/></g><polygon class="st74" transform="matrix(.3874 .6226 -.6608 .3503 445.6 -321.9)" points="205.5 646 209.7 645 209.6 641.7 204.7 642.9" fill="#2b2d25"/></g><polygon class="st75" transform="matrix(1.05 1.886 -1.851 1.028 1759 -442)" points="201.3 647.1 205.5 646 204.7 642.9 199.8 644.1" fill="#2b2d25"/><g transform="matrix(2.778 .0377 -.04285 3.006 507.8 508.8)" stroke-width=".7397"><path class="st73" d="m117.3 10.83c.8673.7159 1.721 1.48 2.557 2.287l2.797-2.51c-.0959.001-2.273-.1778-5.354.2223z" fill="#2c37a7"/><path class="st72" d="m122.7 10.55-2.808 2.507c.8361.807 1.615 1.636 2.354 2.47.5578-2.846.4565-4.887.4535-4.977z" fill="#3543c8"/><path class="st76" d="m122.2 15.53c-.732-.8373-1.518-1.663-2.354-2.47l-11.24 10.13c2.082 2.018 3.879 4.087 5.334 6.073 5.421-4.083 7.489-9.742 8.263-13.74z" fill="#08004c"/><path class="st77" d="m108.6 23.14-1.811 1.623c1.983 1.929 3.708 3.896 5.13 5.8.7207-.4235 1.388-.8766 2.016-1.35-1.455-1.986-3.253-4.055-5.334-6.073z" fill="#ebe8de"/><path class="st76" d="m106.8 24.75-7.38 6.612.6643.6579 2.023 1.966c4.002-.6728 7.224-1.893 9.816-3.432-1.405-1.905-3.134-3.878-5.123-5.804z" fill="#090051"/><path class="st78" d="m117.3 10.83c-4.308.5619-10.39 2.261-14.98 7.149 2.078 1.432 4.216 3.188 6.298 5.206l11.23-10.06c-.8256-.8042-1.679-1.569-2.55-2.291z" fill="#09004f"/><path class="st79" d="m102.3 17.95c-.5291.562-1.038 1.171-1.53 1.821 1.986 1.398 4.033 3.078 6.016 5.007l1.811-1.623c-2.082-2.018-4.22-3.774-6.298-5.206z" fill="#ddddca"/><path class="st78" d="m100.8 19.81c-1.759 2.357-3.19 5.31-4.067 9.012l2.023 1.966.6802.6412 7.38-6.612c-1.983-1.929-4.034-3.616-6.016-5.007z" fill="#090052"/><path class="st72" d="m106.3 25.29-11.13 9.966c.5045.486 7.056-4.619 8.829-6.205s2.808-3.269 2.3-3.761z" fill="#3543c8"/><path class="st73" d="m102.2 27.3c-1.773 1.586-7.503 7.489-7.005 7.978l11.13-9.966c-.5084-.4922-2.351.402-4.124 1.988z" fill="#2c37a7"/></g><g transform="matrix(.1152 .1172 -.1237 .1184 805 551.6)"><path d="m9.92 64.95 280-19.18 10.1 249.2h-300z" fill="#08004c"/><rect x="23.86" y="23.46" width="252.3" height="248.1" fill="#08004c"/><path d="m72.5 83.14s18.97-.499 34.58-.499c15.78 0 27.03 3.712 34.58 10.24 7.219 6.164 12.09 16.67 12.09 28.63s-3.694 21.75-10.41 28.63c-8.729 8.881-18.9 14.14-36.26 14.86-4.795.201-9.233.249-9.233.249v38.88h-25.35zm25.35 60.57c2.754.268 4.48.139 8.562.09 13.6-.163 21.99-8.432 21.99-20.94 0-11.23-6.919-20.46-19.97-20.94-5.203-.19-10.58 0-10.58 0z" fill="url(#SVGID_3_-7-8)"/><path d="m163.4 177.1c5.109 3.135 17.16 7.83 25.38 7.83 8.396 0 11.86-2.959 11.86-7.572 0-4.619-2.738-9.471-13.14-12.98-18.44-6.279-25.56-13.8-25.38-24.32 0-16.99 14.24-29.73 36.33-29.73 10.41 0 18.72 3.402 24.19 6.17v20.39c-4.019-2.218-15.61-7.17-23.28-7.17-6.758 0-10.59 2.769-10.59 7.382 0 4.248 3.471 6.464 14.42 10.34 16.98 5.908 24.1 14.58 24.28 27.88 0 16.8-12.95 30.17-38.7 29.36-8.835-.278-18.62-3.77-25.38-7.459v-20.13z" fill="url(#SVGID_4_-8-7)"/></g><path class="st70" d="m841.3 370.5c.094-.0847.211-.1823.3269-.2795 3.709-3.647 3.854-9.843.3266-13.85-3.515-3.978-9.384-4.236-13.09-.5894-.095.0847-.1861.2276-.2804.3127-.094.085-.211.1823-.3051.267-3.732 3.658-33.91 45.27-33.12 46.19.686.7642 42.17-28.09 45.88-31.74.062-.0955.1667-.2154.2608-.3001z" fill="#f9bd1a" stroke-width="2.524"/><path class="st71" d="m838.9 366.5c.053-.0596.1169-.0972.1465-.145 2.001-1.969 2.1-5.307.1816-7.441-1.897-2.147-5.046-2.285-7.071-.3038-.052.0596-.082.1078-.1464.145-.053.0596-.1168.0972-.169.1572-2.001 1.969-19.74 22.72-17.84 24.86 1.898 2.147 22.71-15.14 24.71-17.11.075-.0725.1269-.1324.1884-.1697z" fill="#f8eb32" stroke-width="2.524"/><g transform="matrix(3.206 .04553 -.04946 3.63 529.1 233.3)"><g stroke-width=".7397"><path class="st72" d="m111.3 32.71c-.4314-2.868-2.067-4.493-2.085-4.508-.0182-.01516-.0325-.02408-.0536-.02954l-.669-.1007c-.0315-.0081-.0617-.000358-.0909.02336l-6.066 4.417c-.0292.02372-.0572.06344-.0513.1015-.00045.04165.0294.0755.0581.09339.2131.1023.4234.2144.6166.3272.2899.1692.5533.3525.793.54l1.154-.8435c.0264-.01402.0568-.0218.0843-.01983l.6652.09447c.0209.0055.0459.01718.0641.03225.0182.01516 1.643 1.638 2.085 4.508.2784 1.831.091 4.439-1.678 7.655.0342-.0014.0683-.0031.0937-.03307 4.926-5.344 5.475-9.618 5.08-12.26z" fill="#1200a8"/><path class="st73" d="m107.9 37.35c-.4352-2.874-2.067-4.493-2.085-4.508-.0182-.01516-.0431-.02682-.0641-.03225l-.6652-.09447c-.0315-.0081-.0617-.000357-.0843.01983l-1.154.8435c4.667 3.644 2.3 11.21 2.271 11.29-.0203.05211.004.1055.0472.1323.0144.009.0315.0081.0486.0072 1.776-3.218 1.959-5.833 1.685-7.658z" fill="#0a005d"/><path class="st72" d="m103.4 23.09-.0825-.6269c-.005-.0222-.0166-.04085-.0283-.05956-.0182-.01517-1.688-1.597-4.753-2.117-2.812-.4797-7.42-.1314-13.34 4.234-.03303.01753-.04396.05644-.04555.08211 3.516-1.525 6.323-1.589 8.271-1.255 3.061.5132 4.731 2.095 4.753 2.117.01822.01516.02324.03737.02829.05956l.08254.6269c.0022.03191-.0059.06109-.02853.08131l-.9442 1.039c.1985.2342.381.4852.5515.7591.1162.1868.2231.3868.33.5868.0128.03467.05196.05525.09662.0564.04854.0072.08818-.01366.1173-.03737l4.972-5.468c.0161-.01664.0245-.04577.0219-.07781z" fill="#1200a8"/><path class="st73" d="m98.28 26.14-.08254-.6269c-.0049-.0222-.01011-.04437-.02829-.05956-.01821-.01515-1.688-1.597-4.753-2.117-1.948-.3336-4.755-.2693-8.271 1.255l.0035.04788c.02712.04359.08341.06342.1374.05135.09091-.02338 8.291-1.928 12.02 2.562l.9442-1.039c.02644-.01402.03465-.0432.03235-.07511z" fill="#0a005d"/></g><polygon class="st74" transform="matrix(.3874 .6226 -.6608 .3503 445.6 -321.9)" points="209.6 641.7 204.7 642.9 205.5 646 209.7 645" fill="#2b2d25"/></g><polygon class="st75" transform="matrix(1.211 2.278 -2.136 1.242 1974 -915)" points="204.7 642.9 199.8 644.1 201.3 647.1 205.5 646" fill="#2b2d25"/><g transform="matrix(3.206 .04553 -.04946 3.63 529.1 233.3)" stroke-width=".7397"><path class="st73" d="m117.3 10.83c.8673.7159 1.721 1.48 2.557 2.287l2.797-2.51c-.0959.001-2.273-.1778-5.354.2223z" fill="#2c37a7"/><path class="st72" d="m122.7 10.55-2.808 2.507c.8361.807 1.615 1.636 2.354 2.47.5578-2.846.4565-4.887.4535-4.977z" fill="#3543c8"/><path class="st76" d="m122.2 15.53c-.732-.8373-1.518-1.663-2.354-2.47l-11.24 10.13c2.082 2.018 3.879 4.087 5.334 6.073 5.421-4.083 7.489-9.742 8.263-13.74z" fill="#08004c"/><path class="st77" d="m108.6 23.14-1.811 1.623c1.983 1.929 3.708 3.896 5.13 5.8.7207-.4235 1.388-.8766 2.016-1.35-1.455-1.986-3.253-4.055-5.334-6.073z" fill="#ebe8de"/><path class="st76" d="m106.8 24.75-7.38 6.612.6643.6579 2.023 1.966c4.002-.6728 7.224-1.893 9.816-3.432-1.405-1.905-3.134-3.878-5.123-5.804z" fill="#090051"/><path class="st78" d="m117.3 10.83c-4.308.5619-10.39 2.261-14.98 7.149 2.078 1.432 4.216 3.188 6.298 5.206l11.23-10.06c-.8256-.8042-1.679-1.569-2.55-2.291z" fill="#09004f"/><path class="st79" d="m102.3 17.95c-.5291.562-1.038 1.171-1.53 1.821 1.986 1.398 4.033 3.078 6.016 5.007l1.811-1.623c-2.082-2.018-4.22-3.774-6.298-5.206z" fill="#ddddca"/><path class="st78" d="m100.8 19.81c-1.759 2.357-3.19 5.31-4.067 9.012l2.023 1.966.6802.6412 7.38-6.612c-1.983-1.929-4.034-3.616-6.016-5.007z" fill="#090052"/><path class="st72" d="m106.3 25.29-11.13 9.966c.5045.486 7.056-4.619 8.829-6.205s2.808-3.269 2.3-3.761z" fill="#3543c8"/><path class="st73" d="m102.2 27.3c-1.773 1.586-7.503 7.489-7.005 7.978l11.13-9.966c-.5084-.4922-2.351.402-4.124 1.988z" fill="#2c37a7"/></g><g transform="matrix(.133 .1415 -.1427 .143 872.2 285)"><path d="m9.92 64.95 280-19.18 10.1 249.2h-300z" fill="#08004c"/><rect x="23.86" y="23.46" width="252.3" height="248.1" fill="#08004c"/><path d="m72.5 83.14s18.97-.499 34.58-.499c15.78 0 27.03 3.712 34.58 10.24 7.219 6.164 12.09 16.67 12.09 28.63s-3.694 21.75-10.41 28.63c-8.729 8.881-18.9 14.14-36.26 14.86-4.795.201-9.233.249-9.233.249v38.88h-25.35zm25.35 60.57c2.754.268 4.48.139 8.562.09 13.6-.163 21.99-8.432 21.99-20.94 0-11.23-6.919-20.46-19.97-20.94-5.203-.19-10.58 0-10.58 0z" fill="url(#SVGID_3_-7-8)"/><path d="m163.4 177.1c5.109 3.135 17.16 7.83 25.38 7.83 8.396 0 11.86-2.959 11.86-7.572 0-4.619-2.738-9.471-13.14-12.98-18.44-6.279-25.56-13.8-25.38-24.32 0-16.99 14.24-29.73 36.33-29.73 10.41 0 18.72 3.402 24.19 6.17v20.39c-4.019-2.218-15.61-7.17-23.28-7.17-6.758 0-10.59 2.769-10.59 7.382 0 4.248 3.471 6.464 14.42 10.34 16.98 5.908 24.1 14.58 24.28 27.88 0 16.8-12.95 30.17-38.7 29.36-8.835-.278-18.62-3.77-25.38-7.459v-20.13z" fill="url(#SVGID_4_-8-7)"/></g><path class="st70" d="m1461 631.5c.074-.0614.1664-.1321.2578-.2026 2.924-2.644 3.039-7.135.2575-10.04-2.772-2.884-7.398-3.071-10.32-.4272-.075.0614-.1467.165-.2211.2266-.074.0616-.1663.1321-.2405.1935-2.942 2.651-26.73 32.81-26.11 33.48.5408.554 33.25-20.36 36.17-23 .049-.0692.1314-.1562.2056-.2175z" fill="#f9bd1a" stroke-width="1.908"/><path class="st71" d="m1460 628.6c.042-.0432.092-.0704.1155-.1051 1.578-1.427 1.656-3.847.1431-5.394-1.496-1.557-3.978-1.656-5.574-.2202-.041.0432-.065.0781-.1154.1051-.042.0432-.092.0705-.1333.1139-1.578 1.427-15.56 16.47-14.07 18.02 1.497 1.557 17.91-10.98 19.48-12.4.059-.0525.1001-.096.1486-.123z" fill="#f8eb32" stroke-width="1.908"/><g transform="matrix(2.528 .033 -.03899 2.631 1215 532)"><g stroke-width=".7397"><path class="st72" d="m111.3 32.71c-.4314-2.868-2.067-4.493-2.085-4.508-.0182-.01516-.0325-.02408-.0536-.02954l-.669-.1007c-.0315-.0081-.0617-.000358-.0909.02336l-6.066 4.417c-.0292.02372-.0572.06344-.0513.1015-.00045.04165.0294.0755.0581.09339.2131.1023.4234.2144.6166.3272.2899.1692.5533.3525.793.54l1.154-.8435c.0264-.01402.0568-.0218.0843-.01983l.6652.09447c.0209.0055.0459.01718.0641.03225.0182.01516 1.643 1.638 2.085 4.508.2784 1.831.091 4.439-1.678 7.655.0342-.0014.0683-.0031.0937-.03307 4.926-5.344 5.475-9.618 5.08-12.26z" fill="#1200a8"/><path class="st73" d="m107.9 37.35c-.4352-2.874-2.067-4.493-2.085-4.508-.0182-.01516-.0431-.02682-.0641-.03225l-.6652-.09447c-.0315-.0081-.0617-.000357-.0843.01983l-1.154.8435c4.667 3.644 2.3 11.21 2.271 11.29-.0203.05211.004.1055.0472.1323.0144.009.0315.0081.0486.0072 1.776-3.218 1.959-5.833 1.685-7.658z" fill="#0a005d"/><path class="st72" d="m103.4 23.09-.0825-.6269c-.005-.0222-.0166-.04085-.0283-.05956-.0182-.01517-1.688-1.597-4.753-2.117-2.812-.4797-7.42-.1314-13.34 4.234-.03303.01753-.04396.05644-.04555.08211 3.516-1.525 6.323-1.589 8.271-1.255 3.061.5132 4.731 2.095 4.753 2.117.01822.01516.02324.03737.02829.05956l.08254.6269c.0022.03191-.0059.06109-.02853.08131l-.9442 1.039c.1985.2342.381.4852.5515.7591.1162.1868.2231.3868.33.5868.0128.03467.05196.05525.09662.0564.04854.0072.08818-.01366.1173-.03737l4.972-5.468c.0161-.01664.0245-.04577.0219-.07781z" fill="#1200a8"/><path class="st73" d="m98.28 26.14-.08254-.6269c-.0049-.0222-.01011-.04437-.02829-.05956-.01821-.01515-1.688-1.597-4.753-2.117-1.948-.3336-4.755-.2693-8.271 1.255l.0035.04788c.02712.04359.08341.06342.1374.05135.09091-.02338 8.291-1.928 12.02 2.562l.9442-1.039c.02644-.01402.03465-.0432.03235-.07511z" fill="#0a005d"/></g><polygon class="st74" transform="matrix(.3874 .6226 -.6608 .3503 445.6 -321.9)" points="209.7 645 209.6 641.7 204.7 642.9 205.5 646" fill="#2b2d25"/></g><polygon class="st75" transform="matrix(.9551 1.651 -1.684 .9 2354 -300.4)" points="205.5 646 204.7 642.9 199.8 644.1 201.3 647.1" fill="#2b2d25"/><g transform="matrix(2.528 .033 -.03899 2.631 1215 532)" stroke-width=".7397"><path class="st73" d="m117.3 10.83c.8673.7159 1.721 1.48 2.557 2.287l2.797-2.51c-.0959.001-2.273-.1778-5.354.2223z" fill="#2c37a7"/><path class="st72" d="m122.7 10.55-2.808 2.507c.8361.807 1.615 1.636 2.354 2.47.5578-2.846.4565-4.887.4535-4.977z" fill="#3543c8"/><path class="st76" d="m122.2 15.53c-.732-.8373-1.518-1.663-2.354-2.47l-11.24 10.13c2.082 2.018 3.879 4.087 5.334 6.073 5.421-4.083 7.489-9.742 8.263-13.74z" fill="#08004c"/><path class="st77" d="m108.6 23.14-1.811 1.623c1.983 1.929 3.708 3.896 5.13 5.8.7207-.4235 1.388-.8766 2.016-1.35-1.455-1.986-3.253-4.055-5.334-6.073z" fill="#ebe8de"/><path class="st76" d="m106.8 24.75-7.38 6.612.6643.6579 2.023 1.966c4.002-.6728 7.224-1.893 9.816-3.432-1.405-1.905-3.134-3.878-5.123-5.804z" fill="#090051"/><path class="st78" d="m117.3 10.83c-4.308.5619-10.39 2.261-14.98 7.149 2.078 1.432 4.216 3.188 6.298 5.206l11.23-10.06c-.8256-.8042-1.679-1.569-2.55-2.291z" fill="#09004f"/><path class="st79" d="m102.3 17.95c-.5291.562-1.038 1.171-1.53 1.821 1.986 1.398 4.033 3.078 6.016 5.007l1.811-1.623c-2.082-2.018-4.22-3.774-6.298-5.206z" fill="#ddddca"/><path class="st78" d="m100.8 19.81c-1.759 2.357-3.19 5.31-4.067 9.012l2.023 1.966.6802.6412 7.38-6.612c-1.983-1.929-4.034-3.616-6.016-5.007z" fill="#090052"/><path class="st72" d="m106.3 25.29-11.13 9.966c.5045.486 7.056-4.619 8.829-6.205s2.808-3.269 2.3-3.761z" fill="#3543c8"/><path class="st73" d="m102.2 27.3c-1.773 1.586-7.503 7.489-7.005 7.978l11.13-9.966c-.5084-.4922-2.351.402-4.124 1.988z" fill="#2c37a7"/></g><g transform="matrix(.1049 .1026 -.1125 .1036 1486 569.5)"><path d="m9.92 64.95 280-19.18 10.1 249.2h-300z" fill="#08004c"/><rect x="23.86" y="23.46" width="252.3" height="248.1" fill="#08004c"/><path d="m72.5 83.14s18.97-.499 34.58-.499c15.78 0 27.03 3.712 34.58 10.24 7.219 6.164 12.09 16.67 12.09 28.63s-3.694 21.75-10.41 28.63c-8.729 8.881-18.9 14.14-36.26 14.86-4.795.201-9.233.249-9.233.249v38.88h-25.35zm25.35 60.57c2.754.268 4.48.139 8.562.09 13.6-.163 21.99-8.432 21.99-20.94 0-11.23-6.919-20.46-19.97-20.94-5.203-.19-10.58 0-10.58 0z" fill="url(#SVGID_3_-7-8)"/><path d="m163.4 177.1c5.109 3.135 17.16 7.83 25.38 7.83 8.396 0 11.86-2.959 11.86-7.572 0-4.619-2.738-9.471-13.14-12.98-18.44-6.279-25.56-13.8-25.38-24.32 0-16.99 14.24-29.73 36.33-29.73 10.41 0 18.72 3.402 24.19 6.17v20.39c-4.019-2.218-15.61-7.17-23.28-7.17-6.758 0-10.59 2.769-10.59 7.382 0 4.248 3.471 6.464 14.42 10.34 16.98 5.908 24.1 14.58 24.28 27.88 0 16.8-12.95 30.17-38.7 29.36-8.835-.278-18.62-3.77-25.38-7.459v-20.13z" fill="url(#SVGID_4_-8-7)"/></g></g></g></svg>
