<svg version="1.1" viewBox="0 0 300.6 165" xml:space="preserve" xmlns="http://www.w3.org/2000/svg"><defs>
<linearGradient id="SVGID_3_-7-8" x1="37.14" x2="152.1" y1="-2.478" y2="240.5" gradientUnits="userSpaceOnUse"><stop stop-color="#A0CBFF" offset="0"/><stop stop-color="#A0CBFE" offset=".3941"/><stop stop-color="#8EC2FC" offset=".583"/><stop stop-color="#83BCFB" offset=".7838"/><stop stop-color="#7FBAFB" offset="1"/></linearGradient><linearGradient id="SVGID_4_-8-7" x1="102.6" x2="218.1" y1="-34.21" y2="209.8" gradientUnits="userSpaceOnUse"><stop stop-color="#A0CBFF" offset="0"/><stop stop-color="#A0CBFE" offset=".3941"/><stop stop-color="#8EC2FC" offset=".583"/><stop stop-color="#83BCFB" offset=".7838"/><stop stop-color="#7FBAFB" offset="1"/></linearGradient></defs>
<style type="text/css">.custom-controls {
height: 64px;
fill: #fff;
}
.control-icon {
opacity: 0;
animation: icon-fade-in-out 1.5s ease-in-out infinite;
animation-fill-mode: forwards;
}
.stop {
animation-delay: .1s;
}
.play {
animation-delay: .3s;
}
.gamepad {
animation-delay: .7s;
padding: 0 0 0 20px;
}
@keyframes icon-fade-in-out {
0% {
opacity: 0;
}
10% {
opacity: 1;
}
80% {
opacity: 1;
}
90% {
opacity: 0;
}
100% {
opacity: 0;
}
}</style>
<rect x=".3536" y=".9512" width="299.8" height="128.7" fill="#7f8ea2" style="paint-order:normal"/><path d="m.4419 120.1c8.311-.8469 22.35-1.24 36.81-.8778 12.13.304 2.164-1.597 36.37-.38 38.76-2.394 107-1.325 162 .5507 15.91-.3143 32.16-1.219 47.2 0h17.32v46.32h-299.8z" fill="#738092" style="paint-order:normal"/><g fill="none" stroke="#fff" stroke-dasharray="2, 2" stroke-linecap="round" stroke-linejoin="round"><path d="m160.3 10.97c11.58 16.52 39.22 53.33 54.38 63.57 1.704 4.28 14.56 13.7 18.62 11.04"/><path d="m140 11.56c-11.58 16.52-39.22 53.33-54.38 63.57-1.704 4.28-14.56 13.7-18.62 11.04"/><path d="m138.3 24.2c-17.89 33.57-37.18 63.85-53.81 75.41-8.946 7.728-8.654 16.21-30.13 8.221"/><path d="m142.7 28.36c.1449 39.66-11.4 131.8-51.62 113.7-38.92-17.43-28.62 10.19-73.82-3.663"/>
<path d="m162.2 23.55c17.89 33.57 40.7 56.03 53.6 75.48 1.262 1.903.9922 14.84 31.51 7.117"/><path d="m157.6 27.84c-.1449 39.66 11.4 131.7 51.62 113.7 38.92-17.43 28.62 10.19 73.82-3.663"/></g><g id="a_laptop" transform="matrix(.09018 0 0 .0918 25.19 17.4)">
<g fill="#484961">
<g fill="#484961">
<path d="m2127 238.7v864.5c0 21.96-14.05 40.56-33.16 46.34-4.02 1.25-8.28 1.92-12.67 1.92h-1359c-25.22 0-45.83-21.7-45.83-48.26v-864.5c0-26.56 20.62-48.26 45.83-48.26h1359c24.63 0 44.87 20.74 45.79 46.42.05.63.05 1.22.05 1.84z" fill="#484961"/>
</g>
</g>
<rect x="732.7" y="244.4" width="1338" height="789.3" fill="#d9dbe6"/>
<g transform="matrix(.8791 0 0 .8686 186.2 81.14)">
<path d="m1894 835.6h-983.2c-50.25 0-90.99-40.74-90.99-90.99v-230.1c0-50.25 40.74-90.99 90.99-90.99h983.2c50.25 0 90.99 40.74 90.99 90.99v230.1c.01 50.26-40.73 90.99-90.98 90.99z" fill="#fff"/>
<rect x="864.2" y="629.6" width="1076" height="109.6" fill="#e2e2e2"/><g fill="#8de3a5">
<rect x="865.3" y="629.6" width="804.9" height="109.6"/>
<rect class="control-icon stop" x="1683" y="629.6" width="25.99" height="109.6" opacity="0"/>
<rect class="control-icon stop" x="1720" y="629.6" width="25.99" height="109.6" opacity="0"/>
<rect class="control-icon play" x="1758" y="629.6" width="25.99" height="109.6" opacity="0"/>
</g><g fill="#0088a2">
<path d="m1547 683.2c2.953 1.09 5.399 3.699 5.655 6.925.6492 4.993.7668 10.12-.041 15.1-.5297 4.429-4.347 7.643-8.468 8.742-4.668 1.173-9.706 1.211-14.34-.1274-4.135-1.263-7.605-4.809-8.156-9.185-.8107-5.334-.763-10.85.319-16.14.1678-2.492 3.595-4.367 4.296-5.481-3.985-2.074-4.869-7.063-4.677-11.15.022-4.373 1.935-9.061 6.018-11.11 4.684-2.383 10.22-2.258 15.29-1.439 3.424.5604 6.731 2.531 8.181 5.788 1.854 3.946 1.992 8.571 1.082 12.78-.6367 2.553-2.996 4.096-5.152 5.294zm-7.29 10.85c-.051-1.827.1274-4.842-2.3-5.114-2.497-.4113-2.902 2.529-2.821 4.357.049 3.633-.1767 7.284.1981 10.9-.08 2.173 2.99 3.213 4.285 1.575.9941-2.462.5315-5.216.6383-7.823v-3.896zm-.27-22.42c.1833-1.942-.2404-5.15-2.943-4.43-2.032.6628-1.54 3.267-1.657 4.963.1071 2.312-.3247 4.735.53 6.938 1.66 2.331 4.728-.0229 4.04-2.459.056-1.669.019-3.34.03-5.011z"/>
<path d="m1595 678.2c-.047 7.474.1085 14.95-.1096 22.42-.068 3.616-.969 7.379-3.586 10.03-3.748 4.185-9.832 4.646-15.08 4.088-4.148-.3212-8.439-2.157-10.56-5.921-2.864-4.328-2.341-9.707-2.418-14.65.049-6.743-.1174-13.49.1257-20.23.2574-4.164.9218-8.875 4.501-11.57 4.748-3.782 11.45-4.157 17.12-2.566 4.014 1.178 7.758 3.99 9.009 8.121 1.029 3.312.9322 6.855.9984 10.29zm-13.46-4.53c-.2592-2.004.5081-4.669-1.118-6.19-2.181-1.196-3.939 1.044-3.621 3.129-.1898 7.055-.048 14.12-.092 21.17.071 4.384-.1907 8.786.2531 13.15.2848 2.673 4.794 1.983 4.402-.6903.3437-4.792.1214-9.607.1851-14.41-.01-5.385.013-10.8-.01-16.16z"/>
<path d="m1623 669.1c-.087 4.363.2215 8.75-.2671 13.09-.427 4.025-4.74 6.093-8.39 6.107-3.816.2107-8.571-.4905-10.41-4.339-1.24-3.455-.6333-7.191-.78-10.79.141-3.642-.554-7.587 1.321-10.89 2.722-3.537 7.792-3.806 11.85-3.065 3.216.5869 6.33 3.06 6.484 6.522.1529 1.112.1986 2.236.2 3.358zm-8.53-2.36c.8475-1.903-1.401-4.624-2.688-2.236-.3061 4.145-.084 8.321-.1519 12.48.067 2.047-.1768 4.132.23 6.147 2.321 1.803 2.954-1.543 2.6-3.281.01-4.366-.013-8.759.01-13.11zm24.22-7.86c-7.027 18.66-14.05 37.33-21.08 55.99h-5.13c7.053-18.66 14.11-37.33 21.16-55.99zm9.32 36.27c-.074 4.259.1851 8.535-.2165 12.78-.2411 4.005-4.355 6.329-8.006 6.423-3.822.2681-8.473-.2917-10.63-3.91-1.521-3.326-.8445-7.077-.998-10.62.1388-3.681-.5013-7.571 1.046-11.03 2.425-3.869 7.653-4.294 11.75-3.628 3.229.4926 6.545 2.807 6.805 6.299.1908 1.219.2429 2.455.245 3.688zm-8.52-2.33c.8418-1.881-1.381-4.687-2.661-2.274-.2831 4.446-.076 8.916-.1392 13.37.1191 1.803-.3214 3.773.3936 5.445 2.569 1.335 2.538-1.971 2.396-3.64.01-4.298-.013-8.623.01-12.9z"/>
</g>
<g transform="matrix(2.277,0,0,2.329,-369.7,-120.6)" fill="#8bc9eb" aria-label="ЗАГРУЗКА"><path d="m673.4 289.6c.1004 3.633-2.007 7.176-5.278 8.78-4.611 2.486-10.04 2.504-15.13 2.127-3.111-.3121-6.19-1.001-9.121-2.095v-7.875c1.326-.1843 2.284 1.022 3.48 1.406 2.999 1.37 6.25 2.488 9.598 2.173 2.526-.1317 5.562-.7813 6.762-3.272.7113-1.965.3618-4.816-1.833-5.667-2.746-.9557-5.7-.5506-8.555-.6401h-2.632v-6.234c2.849-.0511 5.708.1264 8.547-.145 1.741-.1186 3.73-1.164 3.812-3.115.3252-1.438-.5199-2.947-1.94-3.375-4.291-1.493-9.019-.4568-13.04 1.361-.9925.3986-1.903 1.198-3.027 1.032v-7.336c6.476-2.22 13.59-3.079 20.31-1.504 3.121.7566 6.418 2.835 6.988 6.235.6902 3.303-1.093 6.777-4.027 8.364-.7009.774-2.515.5483-2.783 1.436 3.144.4832 6.366 2.284 7.453 5.43.3195.9347.4203 1.93.4219 2.914z"/><path d="m712.7 300h-9.305l-2.414-7.055h-12.94l-2.414 7.055h-9.07l12.89-34.9h10.36zm-13.9-13.45-4.289-12.52-4.289 12.52z"/><path d="m742.9 271.8h-16.17v28.15h-9v-34.9h25.17z"/><path d="m777.1 276.1c.0234 3.756-1.621 7.609-4.798 9.749-2.913 2.298-6.713 2.888-10.32 2.767h-4.685v11.37h-9v-34.9c5.534.0259 11.07-.0548 16.6.0464 4.071.1648 8.593 1.559 10.79 5.263 1.039 1.707 1.423 3.728 1.416 5.707zm-9.305.2109c.0991-2.289-1.869-4.147-4.037-4.465-2.133-.3512-4.308-.2145-6.463-.2461v10.45c2.688-.0691 5.522.2965 8.034-.8525 1.83-.8844 2.529-2.978 2.466-4.89z"/><path d="m814.2 265.1c-4.383 9.592-8.707 19.21-13.13 28.79-1.626 3.404-4.999 5.99-8.821 6.228-3.021.2579-6.06.0211-9.082-.1157v-7.617c1.573.1049 3.135.5359 4.734.4453 1.844-.0761 4.05-.0261 5.432-1.44.1136-.5805-.5478-1.167-.7543-1.75-4.442-8.179-8.884-16.36-13.33-24.54h9.773c2.891 5.516 5.781 11.03 8.672 16.55 2.383-5.516 4.766-11.03 7.148-16.55 3.117-2e-5 6.234-3e-5 9.352-5e-5z"/><path d="m845.7 289.6c.1004 3.633-2.007 7.176-5.278 8.78-4.611 2.486-10.04 2.504-15.13 2.127-3.111-.3121-6.19-1.001-9.121-2.095v-7.875c1.326-.1843 2.284 1.022 3.48 1.406 2.999 1.37 6.25 2.488 9.598 2.173 2.526-.1317 5.562-.7813 6.762-3.272.7113-1.965.3618-4.816-1.833-5.667-2.746-.9557-5.7-.5506-8.555-.6401h-2.632v-6.234c2.849-.0511 5.708.1264 8.547-.145 1.741-.1186 3.73-1.164 3.812-3.115.3252-1.438-.5199-2.947-1.94-3.375-4.291-1.493-9.019-.4568-13.04 1.361-.9925.3986-1.903 1.198-3.027 1.032v-7.336c6.476-2.22 13.59-3.079 20.31-1.504 3.121.7566 6.418 2.835 6.988 6.235.6902 3.303-1.093 6.777-4.027 8.364-.7009.774-2.515.5483-2.783 1.436 3.144.4832 6.366 2.284 7.453 5.43.3195.9347.4203 1.93.4219 2.914z"/><path d="m885.3 300h-11.04c-3.438-4.695-6.875-9.391-10.31-14.09h-2.203v14.09h-9v-34.9h9v14.23c1.676.0577 3.362-.6005 4.343-2.005 2.896-3.514 3.935-8.498 7.914-11.1 2.832-1.58 6.177-1.144 9.282-1.124v7.57c-1.998.0886-4.367-.4347-5.869 1.254-2.25 2.455-2.866 6.207-5.78 8.074 4.555 6 9.109 12 13.66 18z"/><path d="m922.1 300h-9.305l-2.414-7.055h-12.94l-2.414 7.055h-9.07l12.89-34.9h10.36zm-13.9-13.45-4.289-12.52-4.289 12.52z"/></g></g>
<polygon points="2374 1310 2148 1149 646.5 1156 416.5 1310" fill="#f5f5f5"/>
<path d="m1670 1310h-559c8.83-21.88 17.66-43.75 26.49-65.63 170.1.93 340.1 1.86 510.2 2.79 7.43 20.95 14.87 41.9 22.3 62.84z" fill="#a3a6bb"/>

<g fill="#5a5c7a">
<path d="m2087 1228c-457.8.61-915.6 1.21-1373 1.82l80.04-70.95h1204c29.72 23.05 59.43 46.09 89.14 69.13z" fill="#a3a6bb"/>
</g>


<path d="m2374 1310v15.75c0 25.13-25.78 45.69-57.3 45.69h-1846c-31.51 0-57.3-20.56-57.3-45.69v-14.21z" fill="#5e5e75"/>
<rect x="2202" y="1346" width="75.27" height="11.15" fill="#5e5e75"/>
<path d="m1508 1350h-236.1c-6.13 0-11.15-5.02-11.15-11.15s5.02-11.15 11.15-11.15h236.1c6.13 0 11.15 5.02 11.15 11.15s-5.02 11.15-11.15 11.15z" fill="#484961"/>
<path d="m1585 1104h-336.9c-3.98 0-7.24-3.26-7.24-7.24v-11.7c0-3.98 3.26-7.24 7.24-7.24h336.9c3.98 0 7.24 3.26 7.24 7.24v11.7c0 3.98-3.25 7.24-7.24 7.24z" fill="#5e5e75"/>

</g>
<g id="base_slim_4_" transform="matrix(.1534 0 0 .1508 -40.3 -32.55)">
<ellipse cx="1987" cy="1267" rx="137.1" ry="25.04" fill="#7f8ea2"/>
<g id="torso_3_">
<path d="m1946 646.1c7.43 17.1 15.77 43.08 17.45 79.7-.73 1.95-1.8 4.97-2.91 8.73-1.99 6.75-3.72 14.7-5.82 36.07-.52 5.33-1.16 12.46-1.75 20.94 8.51 4.4 20.08 9.13 34.32 11.63 31.45 5.53 57.14-3.11 69.23-8.14-10.08-26.18-20.17-52.36-30.25-78.53-3.1-6.98-6.21-13.96-9.31-20.94 9.31-44.4 18.62-88.81 27.92-133.2l5.24-27.92c-6.54-1.79-13.07-3.58-19.61-5.38-5.49-1.51-10.97-3.01-16.46-4.51-2.77-.64-4.83-1.73-6.4-2.91-9.03-6.82-10.33-23.53-4.07-41.88-7.56-.19-15.13-.39-22.69-.58.06.92.2 3.73 0 7.56-.52 9.95-3.39 26.77-16.29 34.9-2.15 1.36-4.83 2.63-8.14 3.49-4.11 8.88-9.66 21.78-15.13 37.81-5.23 15.35-7.91 23.21-8.73 32.58-1.8 20.9 6.86 35.54 13.4 50.6z" fill="#ffcdab"/><g fill="#ffae81">
<path d="m2054 785.5c-10.58-3.01-23.3-5.7-37.81-6.98-25.23-2.23-46.67.64-62.25 4.07 1.55-15.71 3.1-31.41 4.65-47.12 29.67 10.67 59.34 21.33 89.01 32 2.14 6.01 4.27 12.02 6.4 18.03z"/>
<path d="m1988 780.7c-.09.8 1.52 1.64 3.59 1.87 2.08.23 3.83-.22 3.92-1.02s-1.52-1.64-3.59-1.87-3.83.23-3.92 1.02z"/>
<path d="m1981 479.2c-1.65 5.14-3.3 10.28-4.94 15.42 2.05 1.72 4.86 4.38 7.56 8.14 5.09 7.09 6.73 13.85 7.56 17.45.89 3.81 2.42 10.4 1.16 18.03-2.31 14.08-12.63 22.79-16.29 25.6 9.51-2.07 25.23-6.96 40.15-19.47 6.16-5.16 10.86-10.52 14.41-15.28-5.49-1.51-10.97-3.01-16.46-4.51-2.77-.64-4.83-1.73-6.4-2.91-9.03-6.82-10.33-23.53-4.07-41.88-7.56-.2-15.12-.4-22.68-.59z"/>
</g></g>
<g id="legs_5_">
<g id="legs_8_">
<path d="m1978 1241c2.41 3.28 6.39 4.99 10.37 4.45 5.84-.79 8.35-5.99 8.51-6.34-2.03-8.25-5.25-21.87-8.57-38.83-17.51-19.05-31.32-19.42-23-.4817 4.014 9.131 6.474 22.72 12.69 41.2z" fill="#ffcdab"/>
<path d="m1965 1201c2.6-2.58 4.97-3.27 6.4-3.49 6.99-1.06 15.41 5.77 19.78 17.45-2.33-11.83-4.65-23.66-6.98-35.49-7.95 2.13-15.9 4.27-23.85 6.4 1.55 5.05 3.1 10.09 4.65 15.13z" fill="#ffae81"/>
<path d="m2054 1247c5.56.34 11.12.67 16.69 1 .27-7.12.59-13.61.91-19.35 0 0 .31-1.64.82-8.88-.2569-14.11-10.2-21.11-19.77-15.71-.4961 3.751 1.807 27.57 1.35 42.94z" fill="#ffcdab"/>
<path d="m2053 1204c1.92-.71 4.89-1.41 8.14-.58 6.18 1.58 10.9 8.07 11.63 16.29 1.36-11.44 2.71-22.88 4.07-34.32-8.34-.39-16.68-.78-25.01-1.16.39 6.59.78 13.18 1.17 19.77z" fill="#ffae81"/>
</g>
<g id="jeans_4_">
<path d="m1903 1012c3.94 32.32 43.25 137.2 43.25 137.2 1.38 3.69 2.96 7.97 2.96 7.97 2.67 7.25 5.59 15.34 8.69 24.23 1.37 3.91 2.77 7.97 4.2 12.19.58.04 22.65-4.47 23.47-5.11-.34-1.45-.74-3.3-1.13-5.45-.76-4.2-1.08-7.35-1.16-8.14-7.94-74.69-18.96-106.7-18.96-106.7-8.57-24.91-20.31-45.42-23.22-50.38-.11-.18-.23-.41-.43-.72-9.07-13.97-32.52-15.88-36.91-9.11-1.03 1.59-.83 3.44-.76 4.06z" fill="#54558f"/>
<path d="m1902 1013c.1227 16.59 22.93 15.22 33.16 8.762 10.5-8.047 14.76-21.84 21.95-32.74 24.33-43.98 46.36-90.47 52.96-140.8 2.621-17.67 3.844-35.55 3.779-53.41-19.53 4.911-43.43 2.077-60.82-8.15-18.15 72.53-34.8 144.8-49.97 218.1-.4493 2.753-1.026 5.509-1.062 8.308z" fill="#54558f"/>
<path d="m1956 1188c.57 3.121 3.551 5.714 6.757 5.584 6.847-1.177 13.67-2.508 20.49-3.827 1.354-.5411 2.758-1.197 3.758-2.283 2.352-2.648 2.178-7.074-.4294-9.493-1.68-1.514-4.043-2.376-6.299-1.856-6.322 1.245-12.65 2.465-18.97 3.725-1.761.6402-3.584 1.57-4.486 3.305-.8468 1.446-1.15 3.2-.8209 4.845z" fill="#7778af"/>
<path d="m2045 1140c1.05 8.02 1.84 14.46 2.12 16.69 1.74 14.07 3.08 25.92 4.03 34.65h24.43c.26-2.31.73-6.36 1.33-11.4 5.21-43.91 7.86-56.71 8.17-80.09.07-5.01.13-9.65-.19-16.13-.25-5.07-1.41-26.32-9.89-54.68-3.36-11.25-6.4-18.69-12.8-25.6-3.34-3.61-8.46-9.14-13.38-8.14-2.64.53-7.86 3.48-11.63 27.34-2.85 18.03-2.71 35.03-.58 57.01 1.59 16.41 3.04 19.32 8.39 60.35z" fill="#54558f"/>
<path d="m2005 866.3c5.63 18.43 8.42 33.49 9.89 43.05 3.75 24.37 11.22 92.71 20.36 112.9.48 1.05 2.26 4.83 5.82 8.73 2.06 2.25 8.49 9.28 17.69 9.29 1.01 0 2.53-.03 4.42-.56 5.76-1.62 10.22-6.6 11.63-12.8.01-.11.02-.23.03-.34 0 0 2.8-27.1 4.62-52.02 1.25-17.15 3.29-53.58 4.07-101.8 2.35-5.18 5.39-13.4 6.4-23.85 2-20.82-5.84-36.57-10.47-45.96-9.82-19.92-23.73-32.56-32.94-39.52-5.48 4.89-13.05 10.63-22.87 15.55-16.38 8.21-31.54 10.4-41.16 10.98 4.28 17.25 8.51 31.85 12.03 43.25 4.75 15.32 6.66 20.62 10.48 33.14z" fill="#54558f"/>
<path d="m2047 1185c-.033 3.427 2.958 6.472 6.305 6.794 7.734.1447 15.47.1753 23.2.1668 3.636-.1451 7.174-3.181 7.13-6.96.043-3.646-3.24-6.597-6.732-6.923-2.895-.1222-5.799-.026-8.697-.057-4.714.015-9.429-.031-14.14.024-3.618.2129-7.106 3.167-7.07 6.956z" fill="#7778af"/>
<path d="m2024 826.8c4.26.25 11.04.14 18.86-2.31 8.1-2.54 13.88-6.51 17.25-9.22-.71-2.22-1.42-4.43-2.12-6.65-3.08 2.67-8.71 6.87-16.87 9.47-8.16 2.61-15.19 2.45-19.24 2.06.7 2.22 1.41 4.43 2.12 6.65z" fill="#aeaecf"/>
<path d="m1999 849.6c7.51 19.1 13.65 41.98 17.11 68.54 2.49 29.03 8.71 64.88 15.59 93.46" fill="none" stroke="#b6b7d4" stroke-linecap="round" stroke-linejoin="round" stroke-width="1.347"/>
<path d="m1952 789c6.88 4.61 18.49 10.85 33.74 12.22 38.76 3.47 65.39-27.76 68.37-31.37-2.74-2.13-5.49-4.27-8.23-6.4-15.44 11.97-29.82 17.93-39.33 21.04-8.83 2.88-17.6 5.64-29.27 4.57-10.78-.99-19.1-4.79-24.12-7.61-.38 2.51-.77 5.03-1.16 7.55z" fill="#8485b6"/>
</g>
<g id="foot_8_">
<path d="m1975 1240c-5.25.89-12.38 2.7-20.14 6.6-10.45 5.26-17.44 12.01-21.51 16.62 22.16-.33 44.33-.65 66.49-.98.7-2.56 1.48-6.74.76-11.77-1.18-8.2-5.62-13.6-7.56-15.71-.57 1.13-2.26 4.1-5.82 5.82-5.88 2.84-11.63-.25-12.22-.58z" fill="#20195c"/>
</g>
<g id="foot_5_">
<path d="m2052 1240c-6.53 2.11-15.94 6.04-25.43 13.62-5.85 4.67-10.22 9.51-13.38 13.62 19.63-.57 39.26-1.13 58.89-1.7 1.06-3.03 2.46-8.27 1.95-14.81-.39-5.01-1.76-9-2.91-11.63-.39.58-3.29 4.7-8.73 5.24-6.15.58-10.06-3.95-10.39-4.34z" fill="#20195c"/>
</g>
</g>
<g id="sweater_4_">
<path d="m1719 553.9c3.2 2.22 4.2 2.66 5.75 3.73 8.15 5.61 17.27 18.59 19.64 22.02-.92 1.77-1.85 3.54-2.77 5.31-7.68.06-11-1.99-12.61-3.95-1.33-1.63-1.92-3.72-4.54-5.29-.81-.49-2.21-1.15-3.36-2.73-.21-.29-1.31-1.79-.93-2.27.79-.97 6.94 3.5 7.89 2.42.39-.45-.28-1.64-.75-2.43-3.07-5.14-7.37-9.15-11.89-13.26-1.25-1.13-2.35-2.41-3.57-3.57-2.23-2.11-3.75-3.31-3.49-4.66.03-.13.14-.73.63-1.05 1.46-.92 4.46 1.9 10 5.73z" fill="#fdbfa8"/>
<g fill="#f5ee9e">
<path d="m1826 654.2c8.007 2.314 15.7-2.334 23.21-4.481 30.28-11.33 58.13-31.16 75.29-58.94 11.55-17.87 19.42-37.95 24.33-58.61-8.119-1.681-15.78 2.526-21.73 7.647-32.16 23.81-58.08 54.84-89.69 79.3-4.365 2.251-7.207 4.504-4.9 9.669.9158 8.772-1.872 17.59-6.596 24.87l.085.5434z"/>
<path d="m1832 622.9-86.4-48.03c-4.28 4.4-8.56 8.8-12.85 13.2 43.52 32.44 76.42 55.88 88.6 63.57 2.51 1.58 8.21 5.08 13.91 3.34 5.19-1.58 8.96-7.16 9.66-12.4 1-7.38-4.05-15.41-12.92-19.68z"/>
</g>
<path d="m1926 632.5c4.7 9.45 11.24 15.34 12.29 16.25 6.32 15.22 13.71 37.95 15.71 66.32 1.59 22.48-.69 41.63-3.49 55.85 20.02 2.62 36.46 2.4 48.06 1.62 18.17-1.22 28.19-4.07 34.76-6.4 5.43-1.93 9.79-3.96 12.8-5.49-2.72-6.31-6-14.74-9-24.91-.44-1.5-6.6-22.67-8.38-44.6-1.97-24.42 2.18-41.35 9.59-77.42 3.83-18.62 9.41-46.64 15.71-81.9-13.57-2.33-27.15-4.65-40.72-6.98-16.54 28.82-36.28 43.36-45.96 38.98-11.58-5.24-7.8-37.09-7.56-38.98-8.97.85-19.33 3.72-26.29 11.75-.33.38-.65.77-.96 1.17-1.72 4.43-3.89 11.61-3.9 20.64-.02 10.62 2.93 18.85 4.97 23.45-3.21 3.42-10.61 12.29-12.22 25.6-1.17 9.79 1.24 18.32 4.59 25.05z" fill="#f5ee9e"/>
<path d="m2073 749.7c-3 3.81-6.1 4.64-23.33 10.14-11.3 3.6-13.92 4.51-15.71 2.91-3.05-2.73-.95-10.33 1.16-14.54 7.76-15.42 31.65-16.84 36.24-17.04 1.97 2.37 3.95 4.74 5.92 7.11-.24 2.76-1.07 7.35-4.28 11.42z" fill="#ffcdab"/>
<g fill="#f5ee9e">
<path d="m2151 648.2c5.89 6.08-10.02 30.51-14.45 37.07-10.39 15.41-27.87 36.8-57.2 57.69-3.89-4.74-7.77-9.49-11.66-14.23 16.33-26.07 32.66-52.13 48.98-78.2 4.66-1 11.24-2.2 19.2-2.91 8.94-.8 13.44-1.16 15.13.58z"/>
<path d="m2117 650.5c-32-23.66-63.99-47.31-95.99-70.97 3.78-27.89 15.25-47.23 27.92-48.28 2.4-.2 5.51.2 9.31 2.33 18.98 21.82 34.45 39.01 44.41 49.98 21.09 23.21 55.4 66.08 48.89 73.33-1.75 1.95-7.06.92-17.67-1.15-7.16-1.4-12.9-3.52-16.87-5.24z"/>
</g>
</g>
<g id="head_4_">
<g id="face_4_">
<path d="m1962 449.2c-4.83 9.72-4.01 20.03-3.43 27.34.77 9.77 1.31 16.57 5.82 19.71 9.14 6.38 31.94-4.13 41.95-21.46 10.92-18.92 9.85-39.99-2.39-47.06-12.17-7.01-34.12 5.7-41.95 21.47z" fill="#ffcdab"/>
<path d="m1990 430c-3.84 2.62-7.72 5.33-11.63 8.14-6.49 4.66-12.69 9.33-18.62 13.96.37-.77.75-1.54 1.16-2.33 1.83-3.49 3.81-6.58 5.82-9.31 9.5-7.17 19-14.35 28.51-21.52.28 14.46 1.6 30.5 4.65 47.7 1.04 5.85 2.21 11.48 3.49 16.87-1.94.58-3.88 1.16-5.82 1.75-3.54-2.56-7.51-6.3-10.47-11.63-10.7-19.29 1.74-41.59 2.91-43.63z" fill="#ffae81"/>
</g>
<g id="hair_4_">

<path d="m1994 423.6c-8.782 4.856-24.75 19.35-28.92 18.02 4.788-15.76 17.35-31.1 35-31.64 10.53-3.534 25.09 9.992 26.96-6.034 9.379-18.12 29.22-28.93 48.76-32.41 25.14-4.061 54.55 14.31 55.57 41.19 1.615 19.74 12.07 41.79 32.79 47.1 21.63 6.18 45.94 17.79 52.88 41.06 5.057 18.31 1.554 42.67-16.33 52.76-13.55 4.934-26.71 15.16-30.5 29.58-2.725 13.9 14.92 27.04 26.78 17.62 10.5-9.583-.9993 18.37-8.896 19.69-22.24 14.92-53.92-1.598-60.5-25.92-5.499-17.37-4.03-36.34 1.944-53.38-15.73 1.903-35.17.2959-43.83-15.11-11.38-17.69-3.885-39.56 3.694-57.13 4.28-11.25-17-5.991-20.36-16.87-12.14-9.878 2.621-29.59-13.3-34.91-13.75-5.526-26.54 9.233-19.5 21.96 2.015 21.12-13.5 43.3-35.27 45.54-3.476-4.988-7.353-17.88-5.58-4.736.01 6.508 3.281 21.14 3.308 22.46-3.509-7.303-5.673-25.42-6.95-26.51-2.524 18.55 1.423 37.42 8.062 54.73-10.74-15.29-11.97-34.49-14.05-52.43 1.978-11.94 6.827-22.01 4.454-34.44.3527-6.849 1.611-13.66 3.779-20.17z" fill="#08004c"/>
<path d="m2029 413.2c4.507 13.84-14.25 15.09-16.2 25.84.8808 10.82 8.281 22.08 2.156 32.74-1.065 5.145-12.49 12.3-10.21 12.54 19.35-3.962 34.34-23.47 32-43.21-2.962-9.12-2.278-21.77 8.982-24.29 9.71-3.276 20.95 5.176 18.03 15.85-1.983 15.48 8.518 29.86 24.19 29.79-2.375 6.65-25.33 38.66 1.508 67.9 9.746 12.07 26.67 12.22 40.76 10.91-7.59 21.96-8.487 48.84 5.873 68.29 9.927 13.37 28.13 20.27 44.16 14.6 12.04-3.126 21.58-14.16 21.88-26.77-9.51 17.67-36.94 23.98-51.42 8.976-10.2-13.07-7.211-31.53-1.874-46.02 4.109-9.088 11.78-19.36 5.393-29.43-5.815-12.09-20.23-13.37-31-18.61-8.612-6.784-6.979-19.19-7.449-28.98 1.754-15.4-1.817-33.93-16.45-42.11-9.423-4.394-22.78-.4196-28.76-11.44-3.949-9.371-9.33-21.05-21.45-20.48-6.905-.2822-13.69 1.564-20.13 3.891z" fill="#20195c"/>

<path d="m2020 415.9 11.93 11.93c2.71 2.71 7.16 2.71 9.87 0l1.65-1.65c2.71-2.71 2.71-7.16 0-9.87l-11.93-11.93c-2.71-2.71-7.16-2.71-9.87 0l-1.65 1.65c-2.72 2.71-2.72 7.15 0 9.87z" fill="#ffcb6d"/>
</g>
</g>
</g>
<g transform="translate(0 -1310)"><g transform="matrix(.152 0 0 .147 -50.12 1264)">
<ellipse cx="612.3" cy="1413" rx="186.9" ry="21.55" fill="#7f8ea2"/>
<g id="_x31_-2_1_" transform="translate(-156.8 151.3)">
<g id="L_leg_18_">
<path d="m863.2 1239s-9.52-191.4-11.03-200.6-3.67-23.33-8.26-40.33c-4.69-17.36-65.15-30.87-42.11 95.87 7.17 39.45 20.85 105.7 35.58 145z" fill="#606181"/>
<path d="m808.5 1005c-46.07-20.14-104.7-193.9-112.2-225.6-24.36-103.2 63.33-150.9 85.42-62.26 6.93 27.8 62.84 252.5 62.1 269.3-1.28 29.25-14.03 27.86-35.34 18.54z" fill="#606181"/>
<path d="m837.4 1239v24.17h73.81c-14.22-10.84-32.88-20.79-47.98-24.17z" fill="#20195c"/>
</g>
<g id="R_leg_18_">
<path d="m661.6 701.1c-13.51 35.01-28.43 92.94-28.08 124.2.36 31.28-1.08 156.4 3.55 185.5 4.63 29.15 4.27 43.01 19.2 30.21s36.61-47.63 42.65-72.33l17.77-89.74c2.49-31.63 42.65-31.28 42.65-102.7 0-89.59-72.61-140.3-97.74-75.17z" fill="#606181"/>
<path d="m640.8 972.2c-20.26 38.39-26.51 75.21-25.44 120.5s6.56 110.1 9.46 145.8c.38.38 25.82 0 25.82 0 0-76.76 28.97-162.2 21.79-209.5-6.24-41.17-21.57-75.89-31.63-56.83z" fill="#606181"/>
<path d="m624.8 1239v24.17h73.81c-14.22-10.84-32.88-20.79-47.98-24.17z" fill="#20195c"/>

<path d="m656.2 1042c4.714-8.52 13.14-14.26 17.61-22.99 14.29-20.5 24.82-43.94 27.99-68.87 5.182-26.21 10.44-52.41 15.5-78.65 7.377-19.51 27.66-30.77 33.99-50.91 2.997-5.594 4.74-19.9 6.271-20.59.4793 10.31-4.706 19.96-8.589 29.22-7.379 13.99-20.32 24.07-28.11 37.69-5.23 13.4-5.836 27.99-9.387 41.85-4.615 22.45-8.192 45.17-14.03 67.34-8.524 24.38-22.01 47.39-40.58 65.43l-.421.2994z" fill="#aeafc2"/>
</g>
<g id="L_arm_7_">
<path d="m942.6 610.8c-1.23-4.86-7.41-16.62-7.14-21.65-39.27 18.66-79.11 8.88-105.3 12.39-27.41 3.67-40.11 15.51-37.8 28.16 1.52 8.32 4.53 17.42 17.6 17.39 21.91-.05 97.92-14.01 132.6-36.29z" fill="#fff"/>
<path d="m777.9 591.1c6.8 27.99 8.91 34.66 16.77 47.16 12.26 19.49 22.39-2.09 24.16-26.49 3.91-54.22-7.34-52.94-8.98-72.91-1.64-19.98-2.21-35.2-20.62-45.88-35.1-20.37-20.04 62.23-11.33 98.12z" fill="#fff"/>
<path d="m780.4 599.8c.15 1.09.29 2.19.4 3.32 3.44 13.5 6.77 25.4 14.93 36.83 2.49 4.13 6.68 7.12 14.19 7.1 21.91-.05 97.91-14.01 132.6-36.29-41.05 13.14-86.2 23.97-128.6 19.88-23.54-2.37-20.71-56.76-18.34-80.33-3.5 16.66-9.1 33.62-15.14 49.49z" fill="#b6e6ec"/>
</g>
<path d="m740.6 628.5c-13.03-31.73-36.73-75.88-58.87-95.5-20.1-17.8-65.45-48.16-64.75-21.59.63 23.79 71.22 106.2 87.34 126.4 7.78 9.76 41.02 2.24 36.28-9.31z" fill="#fff"/><g id="body_22_">
<path d="m787.6 491.9c-21.43-12.05-55.96-25.53-77.16-25.53-43.54 0-80.09 12.93-95.19 31.32-17.18 20.93 16.29 99.3 36.54 129.9 18.47 27.86 17.82 38.12 10.87 73.14 39.23 22.31 80.28 33.99 123.4 32.54-13.65-39.14-.45-95.69-5.66-133.4 31.29-82.15 15.07-103.5 7.15-108z" fill="#fff"/>
<path d="m662.7 700.7c20.63 11.74 41.2 20.49 62.35 25.95-40.12-32.03-32.03-86.23-81.2-112.4 8.56 28.85 25.22 54.37 18.85 86.43z" fill="#e0e0e7"/>
<path d="m714.4 502.4c3.91 8.07 12 15.84 14.45 15.34 2.58-.53 6.47-8.28 7.31-16.08-4.56-1.06-8.97-4.43-12.01-11.57-2.11 7.02-4.86 10.87-9.75 12.31z" fill="#20195c"/>
<path d="m709.1 504.6c-4.78 0-9.82-1.73-13.37-4.85-.31-.27-.34-.75-.07-1.06s.75-.34 1.06-.07c4 3.5 11.33 5.87 17.62 3.62 3.43-1.23 7.8-4.34 9.11-12.21.05-.32.31-.57.64-.62.33-.04.64.12.78.42 2.92 6.13 6.95 9.71 11.98 10.64 6.1 1.13 11.97-1.97 15.13-4.96.3-.28.78-.27 1.06.03s.27.78-.03 1.06c-3.42 3.24-9.77 6.59-16.44 5.35-4.9-.91-9.04-4.21-12.08-9.59-1.81 7.07-6.16 10.05-9.65 11.29-1.78.65-3.74.95-5.74.95z" fill="#a6a7bc"/>

<path d="m730.3 511c11.53 50.61 21.27 102.4 18.6 154.5-.5099 5.471.7592 14.91-7.278 14.78-7.714-.8511-5.639-9.594-4.886-14.85 4.944-49-1.655-98.26-10.09-146.5-1.07-3.236-2.716-12.46 3.269-8.824z" fill="#20195c"/>
<path d="m663.8 694.1c41.2 23.81 79.95 34.3 121.1 32.72l2.41 12.45c-3.54.17-7.06.25-10.56.25-39.69 0-77.39-10.76-117.1-33.3z" fill="#20195c"/>
<path d="m621 563.3c6.45 18.24 14.97 36.73 22.85 50.96 0-28.34-4.99-57.96-15.55-80.59-1 5.86-2.32 11.82-3.77 17.4-.64 3.89-1.61 6.67-3.53 12.23z" fill="#cecedb"/>

<path d="m781 647.8h-.04c-.41-.02-.73-.37-.71-.78.8-16.99 1.37-33.38-.53-47.11-.02-.12 0-.25.04-.37 7.02-18.44 12.11-35.05 15.11-49.38.08-.41.49-.67.89-.58.41.08.67.48.58.89-3.01 14.36-8.09 30.99-15.11 49.43 1.89 13.82 1.32 30.21.52 47.19-.02.4-.36.71-.75.71z" fill="#66bdd2"/>
</g>
<g id="head_11_">
<path d="m714.6 420.6c-1.11 15.25-6.07 26.9-13.93 40.91-1.65 2.95-3.46 5.69-5.44 8.17-.14.54-.24 1.08-.31 1.64-1.17 9.69 9.02 18.2 22.76 19.03s25.83-6.36 27-16.04c.76-4.9 4.46-16.79 4.58-22.22 1.12-51.25-33.16-52.12-34.66-31.49z" fill="#ffceac"/>
<g fill="#ffaf82">
<path d="m695.2 469.7c1.98-2.48 3.79-5.22 5.44-8.17 7.52-13.42 12.39-24.66 13.76-38.96 2.7 4.19 6.61 6.16 9.91 6.16-.59 4.5.44 18.76 4.45 22.27 5.36 4.69 11.81 8.09 18.88 10.47 0 0 .01 0 .01.01-8.84 1.65-18.61-1.99-24.28-5.14-13.94-7.72-20.04 24.88-15.62 31.93-8.06-3.13-14.71-10.16-12.55-18.57z"/>
<path d="m708.4 488.7-.7-.27c-7.94-3.06-14.95-10.08-12.7-18.85l.05-.09c1.92-2.39 3.74-5.13 5.42-8.13 7.45-13.28 12.34-24.42 13.73-38.87l.07-.72.39.61c2.87 4.45 6.89 6.04 9.7 6.04h.29l-.04.28c-.55 4.2.41 18.58 4.36 22.04 5.04 4.42 11.36 7.92 18.79 10.42l.07.03.48.34-.57.11c-10.5 1.96-21.36-3.46-24.44-5.16-3.51-1.95-6.73-1.42-9.57 1.58-6.64 7-8.71 25.23-5.72 30zm-12.94-18.95c-2.07 8.22 4.33 14.86 11.78 17.96-2.65-5.75-.54-22.98 6.11-29.99 2.97-3.14 6.49-3.71 10.18-1.67 2.95 1.63 13.12 6.71 23.16 5.27-7.07-2.47-13.16-5.91-18.06-10.2-3.96-3.47-5.12-17.17-4.56-22.21-3.47-.11-7.02-2.25-9.45-5.69-1.48 14.2-6.36 25.24-13.72 38.37-1.69 3.01-3.52 5.75-5.44 8.16z"/>
</g>
<path d="m719.8 491.1c-.72 0-1.45-.02-2.18-.07-8.26-.5-15.72-3.82-19.96-8.9-2.76-3.31-3.97-7.1-3.51-10.97.05-.41.43-.7.83-.65.41.05.7.42.65.83-.42 3.44.68 6.84 3.17 9.83 3.97 4.76 11.04 7.89 18.89 8.36 13.33.8 25.09-6.1 26.21-15.38.05-.41.42-.7.83-.65s.7.42.65.83c-1.13 9.55-12.39 16.77-25.58 16.77z" fill="#a6a7bc"/>
<path d="m764.7 446.2c5.18-17.47 8.99-43.95 3-53.65-2.98-.31-5.8-1.35-8.44-3.3-14.24-10.36-32.63-.41-33.15 15.74h-.01c.01 0 .01 4.91.01 4.91 0-4.13-3.34-7.47-7.47-7.47-3.85 0-7.59 2.9-7.45 8.33.04.41 0 3.47 1.07 6.96 2.27 7.55 7.74 11.02 12.12 11.02.96 5.55 2.59 11 4.65 14.74 7.68 7.06 17.93 11.95 30.84 15.3 1.97-3.93 3.57-8.3 4.83-12.58z" fill="#ffceac"/>
<path d="m762.9 428.7c-9.65 3.14-12.82 8.29-15.93 15.52-8.3-1.94-17.9-4.62-22.64-15.52-.59 4.5.44 18.76 4.45 22.27 10.89 9.54 26.29 13.75 42.19 14.82 0 0 1.19-19.61-6.31-19.61-4.47 0-9.46.36-9.46-4.68.01-4.63 7.7-12.8 7.7-12.8z" fill="#20195c"/>
<path d="m712.9 432.2c.71-3.12 1.23-6.33 1.55-9.72-2.38-3.7-3.29-8.27-3.29-12.68 0-4.13 3.34-7.47 7.46-7.47 4.11 0 7.47 3.32 7.47 7.47 0-4.79.06-4.91-.01-4.91h.01c.51-16.15 18.9-26.1 33.15-15.74 12.26 9.07 29.4-1.35 27-16.38-2.74.97-5.69 1.49-8.76 1.49-13.58 0-16.73-9.72-34.75-9.72-34.84-.01-53.48 41.43-29.83 67.66z" fill="#20195c"/>
</g>
</g>
</g><g transform="matrix(.1242 .01593 -.01574 .1257 43.49 1352)">
<g transform="matrix(.9749 -.0002536 -.0002536 .9729 3.534 4.071)">
<rect width="300" height="295" rx="12.73" ry="16.92" fill="#91c1f8"/>
</g>
<rect x="23.86" y="23.46" width="252.3" height="248.1" rx="17.25" ry="10.03" fill="#08004c"/>

<path d="m72.5 83.14s18.97-.499 34.58-.499c15.78 0 27.03 3.712 34.58 10.24 7.219 6.164 12.09 16.67 12.09 28.63s-3.694 21.75-10.41 28.63c-8.729 8.881-18.9 14.14-36.26 14.86-4.795.201-9.233.249-9.233.249v38.88h-25.35zm25.35 60.57c2.754.268 4.48.139 8.562.09 13.6-.163 21.99-8.432 21.99-20.94 0-11.23-6.919-20.46-19.97-20.94-5.203-.19-10.58 0-10.58 0z" fill="url(#SVGID_3_-7-8)"/>

<path d="m163.4 177.1c5.109 3.135 17.16 7.83 25.38 7.83 8.396 0 11.86-2.959 11.86-7.572 0-4.619-2.738-9.471-13.14-12.98-18.44-6.279-25.56-13.8-25.38-24.32 0-16.99 14.24-29.73 36.33-29.73 10.41 0 18.72 3.402 24.19 6.17v20.39c-4.019-2.218-15.61-7.17-23.28-7.17-6.758 0-10.59 2.769-10.59 7.382 0 4.248 3.471 6.464 14.42 10.34 16.98 5.908 24.1 14.58 24.28 27.88 0 16.8-12.95 30.17-38.7 29.36-8.835-.278-18.62-3.77-25.38-7.459v-20.13z" fill="url(#SVGID_4_-8-7)"/>
</g></g><g transform="translate(0 -1310)"><g stroke-width=".1495"><path d="m52.34 1373c2.348-1.498 4.311-2.146 4.995-3.708.684-1.561.06992-1.126-.3618-1.429-.4302-.3015-3.075-.4896-3.78-.3148-.7068.175-1.901 2.868-2.772 3.448-.3941.1585.7432 2.826 1.92 2.004z" fill="#ffceac"/><path d="m33.26 1376c.953-.8791 2.128-1.573 3.438-2.149-1.619-3.128-4.314-7.64-7.015-9.947 2.932 4.344 3.748 7.808 3.576 12.1z" fill="#e0e0e7"/><path d="m36.03 1382c6.724-1.811 11.71-6.943 16-8.675-.3602-1.303-.9059-2.36-1.602-2.955-5.724 2.129-14.35 2.508-17.98 6.982-1.015 1.25 2.003 5.074 3.585 4.648z" fill="#fefefe"/><path d="m49.22 1375c.3906-1.841-.74-2.76-2.309-3.264.4907-.1587.8983-.218 1.995-.5573 1.178.4558 1.726 1.5 1.686 3.094-.7967.4828-1.181.5789-1.373.7273z" fill="#0091b5"/><ellipse transform="matrix(.165 -.9863 .988 .1546 0 0)" cx="-1348" cy="275.2" rx="1.52" ry="1.569" fill="#b6e6ec"/><ellipse cx="49.51" cy="1373" rx="1.362" ry="1.3" fill="#fff" opacity=".4"/></g><g transform="matrix(.152 0 0 .147 -73.94 1286)">
<path d="m811.8 589c-.21 0-.41-.09-.56-.25-.27-.31-.25-.78.06-1.06l6.42-5.69c.31-.28.78-.25 1.06.06.27.31.25.78-.06 1.06l-6.42 5.69c-.14.13-.32.19-.5.19z" fill="#66bdd2"/>
</g><g transform="matrix(.152 0 0 .147 -73.94 1286)">
<path d="m816.7 594.2c-.2 0-.4-.08-.55-.24l-4.91-5.33c-.28-.3-.26-.78.04-1.06s.78-.26 1.06.04l4.91 5.33c.28.3.26.78-.04 1.06-.14.14-.33.2-.51.2z" fill="#66bdd2"/>
</g><path d="m78.31 1374c-2.897-.2851-2.443-1.472-1.609-1.95.4265-.4057.7445-.9038.8148-1.407.09345-.6686.1014-1.223.9147-1.286.4012.2065.5588.2321.7267.9242.06934.2858.2261.4751.2168.8082.1034.4764-.04095.8653-.06439 1.208-.02667.3895-.08387.6881-.2868.8973-.3327.3432-.4251.6593-.7133.8051z" fill="#ffceac" stroke-width=".1495"/></g><rect x="91.25" y="107.9" width="120.7" height="4.735" rx="0" ry="0" fill="#7f8ea2" style="paint-order:normal"/><path d="m97.01 110.4a1.904 1.831 0 01-1.904 1.831 1.904 1.831 0 01-1.904-1.83 1.904 1.831 0 011.903-1.831 1.904 1.831 0 011.905 1.829" fill="#ededed" style="paint-order:normal"/><path class="st70" d="m151.7 22.44c.001-.02039.004-.0449.006-.06931.0159-.8379-.665-1.533-1.521-1.554-.8521-.01963-1.556.6463-1.572 1.484-.001.02053.004.04693.003.06735s-.004.0449-.005.06529c-.0173.8417 1.198 8.965 1.392 8.972.1649.0025 1.687-8.062 1.702-8.9-.004-.01776-.005-.04329-.004-.06375z" fill="#f9bd1a" stroke-width=".4062"/><path class="st71" d="m151 22.28c-.00047-.013.003-.02447.00054-.03322.009-.4522-.3561-.8293-.8168-.8359-.4599-.01061-.8374.3468-.8472.8031.00047.01301.003.02155-.00054.03322.00047.01301-.003.02448-.002.03721-.008.4522.2877 4.821.7477 4.832.46.0105.9067-4.343.9153-4.796 4e-4-.01676-.00035-.02948.003-.04087z" fill="#f8eb32" stroke-width=".4062"/><g transform="matrix(.3738 -.3743 .403 .4032 100.3 44.34)"><g stroke-width=".7397"><path class="st72" d="m111.3 32.71c-.4314-2.868-2.067-4.493-2.085-4.508-.0182-.01516-.0325-.02408-.0536-.02954l-.669-.1007c-.0315-.0081-.0617-.000358-.0909.02336l-6.066 4.417c-.0292.02372-.0572.06344-.0513.1015-.00045.04165.0294.0755.0581.09339.2131.1023.4234.2144.6166.3272.2899.1692.5533.3525.793.54l1.154-.8435c.0264-.01402.0568-.0218.0843-.01983l.6652.09447c.0209.0055.0459.01718.0641.03225.0182.01516 1.643 1.638 2.085 4.508.2784 1.831.091 4.439-1.678 7.655.0342-.0014.0683-.0031.0937-.03307 4.926-5.344 5.475-9.618 5.08-12.26z" fill="#1200a8"/><path class="st73" d="m107.9 37.35c-.4352-2.874-2.067-4.493-2.085-4.508-.0182-.01516-.0431-.02682-.0641-.03225l-.6652-.09447c-.0315-.0081-.0617-.000357-.0843.01983l-1.154.8435c4.667 3.644 2.3 11.21 2.271 11.29-.0203.05211.004.1055.0472.1323.0144.009.0315.0081.0486.0072 1.776-3.218 1.959-5.833 1.685-7.658z" fill="#0a005d"/><path class="st72" d="m103.4 23.09-.0825-.6269c-.005-.0222-.0166-.04085-.0283-.05956-.0182-.01517-1.688-1.597-4.753-2.117-2.812-.4797-7.42-.1314-13.34 4.234-.03303.01753-.04396.05644-.04555.08211 3.516-1.525 6.323-1.589 8.271-1.255 3.061.5132 4.731 2.095 4.753 2.117.01822.01516.02324.03737.02829.05956l.08254.6269c.0022.03191-.0059.06109-.02853.08131l-.9442 1.039c.1985.2342.381.4852.5515.7591.1162.1868.2231.3868.33.5868.0128.03467.05196.05525.09662.0564.04854.0072.08818-.01366.1173-.03737l4.972-5.468c.0161-.01664.0245-.04577.0219-.07781z" fill="#1200a8"/><path class="st73" d="m98.28 26.14-.08254-.6269c-.0049-.0222-.01011-.04437-.02829-.05956-.01821-.01515-1.688-1.597-4.753-2.117-1.948-.3336-4.755-.2693-8.271 1.255l.0035.04788c.02712.04359.08341.06342.1374.05135.09091-.02338 8.291-1.928 12.02 2.562l.9442-1.039c.02644-.01402.03465-.0432.03235-.07511z" fill="#0a005d"/></g><polygon class="st74" transform="matrix(.3874 .6226 -.6608 .3503 445.6 -321.9)" points="209.7 645 209.6 641.7 204.7 642.9 205.5 646" fill="#2b2d25"/></g><polygon class="st75" transform="matrix(.3957 .106 -.1058 .3886 137.2 -252.2)" points="205.5 646 204.7 642.9 199.8 644.1 201.3 647.1" fill="#2b2d25"/><g transform="matrix(.3738 -.3743 .403 .4032 100.3 44.34)" stroke-width=".7397"><path class="st73" d="m117.3 10.83c.8673.7159 1.721 1.48 2.557 2.287l2.797-2.51c-.0959.001-2.273-.1778-5.354.2223z" fill="#2c37a7"/><path class="st72" d="m122.7 10.55-2.808 2.507c.8361.807 1.615 1.636 2.354 2.47.5578-2.846.4565-4.887.4535-4.977z" fill="#3543c8"/><path class="st76" d="m122.2 15.53c-.732-.8373-1.518-1.663-2.354-2.47l-11.24 10.13c2.082 2.018 3.879 4.087 5.334 6.073 5.421-4.083 7.489-9.742 8.263-13.74z" fill="#08004c"/><path class="st77" d="m108.6 23.14-1.811 1.623c1.983 1.929 3.708 3.896 5.13 5.8.7207-.4235 1.388-.8766 2.016-1.35-1.455-1.986-3.253-4.055-5.334-6.073z" fill="#ebe8de"/><path class="st76" d="m106.8 24.75-7.38 6.612.6643.6579 2.023 1.966c4.002-.6728 7.224-1.893 9.816-3.432-1.405-1.905-3.134-3.878-5.123-5.804z" fill="#090051"/><path class="st78" d="m117.3 10.83c-4.308.5619-10.39 2.261-14.98 7.149 2.078 1.432 4.216 3.188 6.298 5.206l11.23-10.06c-.8256-.8042-1.679-1.569-2.55-2.291z" fill="#09004f"/><path class="st79" d="m102.3 17.95c-.5291.562-1.038 1.171-1.53 1.821 1.986 1.398 4.033 3.078 6.016 5.007l1.811-1.623c-2.082-2.018-4.22-3.774-6.298-5.206z" fill="#ddddca"/><path class="st78" d="m100.8 19.81c-1.759 2.357-3.19 5.31-4.067 9.012l2.023 1.966.6802.6412 7.38-6.612c-1.983-1.929-4.034-3.616-6.016-5.007z" fill="#090052"/><path class="st72" d="m106.3 25.29-11.13 9.966c.5045.486 7.056-4.619 8.829-6.205s2.808-3.269 2.3-3.761z" fill="#3543c8"/><path class="st73" d="m102.2 27.3c-1.773 1.586-7.503 7.489-7.005 7.978l11.13-9.966c-.5084-.4922-2.351.402-4.124 1.988z" fill="#2c37a7"/></g><g transform="matrix(.03123 -.0002408 -.0003147 .03253 145.6 9.418)"><path d="m9.92 64.95 280-19.18 10.1 249.2h-300z" fill="#08004c"/><rect x="23.86" y="23.46" width="252.3" height="248.1" fill="#08004c"/><path d="m72.5 83.14s18.97-.499 34.58-.499c15.78 0 27.03 3.712 34.58 10.24 7.219 6.164 12.09 16.67 12.09 28.63s-3.694 21.75-10.41 28.63c-8.729 8.881-18.9 14.14-36.26 14.86-4.795.201-9.233.249-9.233.249v38.88h-25.35zm25.35 60.57c2.754.268 4.48.139 8.562.09 13.6-.163 21.99-8.432 21.99-20.94 0-11.23-6.919-20.46-19.97-20.94-5.203-.19-10.58 0-10.58 0z" fill="url(#SVGID_3_-7-8)"/><path d="m163.4 177.1c5.109 3.135 17.16 7.83 25.38 7.83 8.396 0 11.86-2.959 11.86-7.572 0-4.619-2.738-9.471-13.14-12.98-18.44-6.279-25.56-13.8-25.38-24.32 0-16.99 14.24-29.73 36.33-29.73 10.41 0 18.72 3.402 24.19 6.17v20.39c-4.019-2.218-15.61-7.17-23.28-7.17-6.758 0-10.59 2.769-10.59 7.382 0 4.248 3.471 6.464 14.42 10.34 16.98 5.908 24.1 14.58 24.28 27.88 0 16.8-12.95 30.17-38.7 29.36-8.835-.278-18.62-3.77-25.38-7.459v-20.13z" fill="url(#SVGID_4_-8-7)"/></g><g fill="#8bc9eb"><path d="m204.1 21.95c1.37-1.894 1.291-5.657-2.462-5.329 1.978-1.978 1.018-5.22-5.12-4.873 7.957-5.036-6.588-9.051-10.85-3.272 2.029-2.976-6.638-2.663-5.976.9609.5696-1.476 1.814-4.623-5.68-2.615-2.708 3.389 7.249 7.18 12.71 9.676 3.212 3.29 12.39 7.045 17.38 5.453z" stroke-width="2.162"/><path d="m230.4 30.64c.9512-1.076 1.618-2.782-1.726-3.15.5496-1.607.6916-3.907-3.429-2.836 2.049-4.023-3.135-6.222-7.088-1.791.742-1.719-3.517-1.479-3.37 1.123-1.075-1.153-5.854-.1621-4.183 3.951.1701 2.709 12.01 3.228 19.79 2.704z" stroke-width="1.344"/><path d="m249.2 16.47c.3542-.8883-.023-2.456-1.441-2.055.0525-1.169-1.122-2.652-2.425-1.677.2065-2.951-4.159-3.813-4.491-.6052-.7095-.7423-1.889-.2807-1.882 1.1-1.433-.3312-2.58 1.235-2.009 3.163 4.082.07828 8.167.05818 12.25.07453z" stroke-width=".8857"/><path d="m267.9 25.32c.2019-.5614-.0131-1.552-.8214-1.299.0299-.739-.6395-1.676-1.382-1.06.1177-1.865-2.37-2.409-2.56-.3825-.4044-.4691-1.077-.1774-1.073.6954-.8166-.2093-1.47.7806-1.145 1.999 2.327.04947 4.655.03677 6.979.0471z" stroke-width=".5316"/><path d="m97.3 21.95c-1.37-1.894-1.291-5.657 2.462-5.329-1.978-1.978-1.018-5.22 5.12-4.873-7.957-5.036 6.588-9.051 10.85-3.272-2.029-2.976 6.638-2.663 5.976.9609-.5696-1.476-1.814-4.623 5.68-2.615 2.708 3.389-7.249 7.18-12.71 9.676-3.212 3.29-12.39 7.045-17.38 5.453z" stroke-width="2.162"/><path d="m71.02 30.64c-.9512-1.076-1.618-2.782 1.726-3.15-.5496-1.607-.6916-3.907 3.429-2.836-2.049-4.023 3.135-6.222 7.088-1.791-.742-1.719 3.517-1.479 3.37 1.123 1.075-1.153 5.854-.1621 4.183 3.951-.1701 2.709-12.01 3.228-19.79 2.704z" stroke-width="1.344"/><path d="m52.13 16.47c-.3542-.8883.023-2.456 1.441-2.055-.0525-1.169 1.122-2.652 2.425-1.677-.2065-2.951 4.159-3.813 4.491-.6052.7095-.7423 1.889-.2807 1.882 1.1 1.433-.3312 2.58 1.235 2.009 3.163-4.082.07828-8.167.05818-12.25.07453z" stroke-width=".8857"/><g stroke-width=".5316"><path d="m31.68 24.15c-.2019-.5614.0131-1.552.8214-1.299-.0299-.739.6395-1.676 1.382-1.06-.1177-1.865 2.37-2.409 2.56-.3825.4044-.4691 1.077-.1774 1.073.6954.8166-.2093 1.47.7806 1.145 1.999-2.327.04947-4.655.03677-6.979.0471z"/><path d="m13.39 17.82c-.2019-.5614.0131-1.552.8214-1.299-.0299-.739.6395-1.676 1.382-1.06-.1177-1.865 2.37-2.409 2.56-.3825.4044-.4691 1.077-.1774 1.073.6954.8166-.2093 1.47.7806 1.145 1.999-2.327.04947-4.655.03677-6.979.0471z"/><path d="m282.7 15.26c-.2019-.5614.0131-1.552.8214-1.299-.0299-.739.6395-1.676 1.382-1.06-.1177-1.865 2.37-2.409 2.56-.3825.4044-.4691 1.077-.1774 1.073.6954.8166-.2093 1.47.7806 1.145 1.999-2.327.04947-4.655.03677-6.979.0471z"/></g></g></svg>
