<svg version="1.1" viewBox="0 0 299.9 165.1" xmlns="http://www.w3.org/2000/svg">
<g transform="translate(348.8 -70.82)">
<path d="m-348.3 71.66h299.3v164.3h-299.3z" fill="#5d6c7f" style="paint-order:markers stroke fill"/>
<path d="m-293.6 211.2-.2514-117.9 189.9-.2515v118.4z" fill="#364f70" stroke-width=".2646" style="paint-order:markers stroke fill"/>
<path d="m-295.8 84.24c-2.378 0-4.389 2.002-4.389 4.369v126.4c0 2.368 2.01 4.369 4.389 4.369h193.8c2.378 0 4.389-2.002 4.389-4.369v-126.4c0-2.368-2.01-4.369-4.389-4.369zm1.701 8.857 190.2-.06571-.0115 118.4-190-.1663z" color="#000000" color-rendering="auto" dominant-baseline="auto" fill="#1f2024" image-rendering="auto" shape-rendering="auto" solid-color="#000000" style="font-feature-settings:normal;font-variant-alternates:normal;font-variant-caps:normal;font-variant-ligatures:normal;font-variant-numeric:normal;font-variant-position:normal;isolation:auto;mix-blend-mode:normal;paint-order:markers stroke fill;shape-padding:0;text-decoration-color:#000000;text-decoration-line:none;text-decoration-style:solid;text-indent:0;text-orientation:mixed;text-transform:none;white-space:normal"/>
<path d="m-322.4 219.3h246.8c.7443 0 1.344.6308 1.344 1.414v4.532c0 .7836-21.04 1.281-21.79 1.281l-207.1-.1573c-.7443-.00056-20.66-.3399-20.66-1.123v-4.532c0-.7836.5992-1.414 1.344-1.414z" fill="#1f2024" style="paint-order:markers stroke fill"/>
<g fill="#fff" stroke="#fff" stroke-linecap="round" stroke-linejoin="round" style="paint-order:normal" aria-label="Для Windows 10">
<g stroke-linecap="round" stroke-linejoin="round" stroke-width="1.058">
<path d="m-266.9 198.1h-3.061v-3.009h-7.839v3.009h-3.061v-5.472h.9799q1.006-2.107 1.535-4.752.5377-2.645.5377-5.654h9.634v10.41h1.275zm-4.605-5.472v-7.909h-3.226q-.1648 2.359-.6938 4.362-.5203 1.995-1.266 3.547z" style="paint-order:normal"/>
<path d="m-253.9 195.1h-3.122v-7.562h-2.576q-.026.6504-.0434 1.015-.009.3556-.026.8325-.0607 1.396-.2341 2.272-.1734.8758-.4423 1.431-.2602.5637-.5637.8932-.2948.3295-.5984.5723-.3469.2775-.9105.4423-.555.1648-1.075.1648-.4076 0-.8238-.0347-.4162-.026-.4943-.026v-2.498h.0954q.0347 0 .1214.009t.1734.009q.2255 0 .4596-.0434.2428-.0434.3989-.1908.581-.555.7718-1.388.1994-.8412.2862-2.48.0347-.607.0694-1.388t.0607-1.769h8.472z" style="paint-order:normal"/>
<path d="m-240.9 195.1h-3.113v-3.382h-1.396l-2.333 3.382h-3.495l2.792-3.816q-.9799-.4423-1.492-1.11-.503-.6764-.503-1.864 0-.8065.3122-1.353.3209-.5463.8585-.9366.477-.3295 1.119-.4943.6504-.1648 1.448-.1648h5.801zm-3.113-5.29v-2.428h-1.847q-.6417 0-1.006.2948-.3555.2862-.3555.8412 0 .6851.3555.9886.3556.3035 1.058.3035z" style="paint-order:normal"/>
<path d="m-212.1 182.2-3.477 12.91h-3.686l-2.315-8.412-2.255 8.412h-3.686l-3.477-12.91h3.477l1.986 8.889 2.376-8.889h3.321l2.263 8.889 2.081-8.889z" style="paint-order:normal"/>
<path d="m-206.1 195.1h-3.122v-9.739h3.122zm.0867-11.13h-3.295v-2.367h3.295z" style="paint-order:normal"/>
<path d="m-192.5 195.1h-3.139v-4.83q0-.5897-.0607-1.171-.0607-.5897-.2081-.8672-.1734-.3208-.5116-.4683-.3295-.1474-.9279-.1474-.4249 0-.8672.1388-.4336.1388-.9452.4423v6.903h-3.122v-9.739h3.122v1.075q.8325-.6504 1.596-.9973.7718-.3469 1.708-.3469 1.578 0 2.463.9192.8932.9192.8932 2.749z" style="paint-order:normal"/>
<path d="m-179.3 195.1h-3.122v-1.015q-.8065.6591-1.509.9712-.7024.3122-1.622.3122-1.778 0-2.844-1.37-1.067-1.37-1.067-3.694 0-1.24.3556-2.194.3642-.9626.9886-1.648.5897-.6504 1.431-1.006.8412-.3642 1.682-.3642.8759 0 1.431.1908.5637.1821 1.153.4683v-4.145h3.122zm-3.122-2.688v-4.778q-.3295-.1388-.6938-.1995-.3642-.0607-.6677-.0607-1.231 0-1.847.7718-.6157.7631-.6157 2.125 0 1.431.4943 2.081.4943.6417 1.587.6417.4249 0 .9019-.1561.477-.1648.8412-.4249z" style="paint-order:normal"/>
<path d="m-165.6 190.2q0 2.402-1.405 3.79-1.396 1.379-3.928 1.379t-3.937-1.379q-1.396-1.388-1.396-3.79 0-2.419 1.405-3.798 1.414-1.379 3.928-1.379 2.55 0 3.937 1.388 1.396 1.388 1.396 3.79zm-3.842 2.367q.3035-.3729.4509-.8932.1561-.529.1561-1.457 0-.8585-.1561-1.44-.1561-.581-.4336-.9279-.2775-.3556-.6677-.503t-.8412-.1474q-.4509 0-.8065.1214-.3469.1214-.6677.4856-.2862.3382-.4596.9279-.1648.5897-.1648 1.483 0 .7978.1474 1.388.1474.581.4336.9366.2775.3382.6591.4943.3902.1561.8845.1561.4249 0 .8065-.1388.3902-.1474.6591-.4856z" style="paint-order:normal"/>
<path d="m-147 185.4-3.018 9.739h-3.313l-1.986-6.565-1.951 6.565h-3.356l-2.992-9.739h3.278l1.665 6.712 2.081-6.712h2.766l1.977 6.712 1.639-6.712z" style="paint-order:normal"/>
<path d="m-135.8 192q0 1.509-1.353 2.437-1.353.9192-3.703.9192-1.301 0-2.359-.2428t-1.7-.5377v-2.567h.2862q.2341.1648.5377.3642.3122.1908.8759.4162.4856.1995 1.101.3469.6157.1388 1.318.1388.9192 0 1.361-.1995.4423-.2081.4423-.607 0-.3555-.2602-.5116-.2602-.1648-.9886-.3122-.3469-.078-.9452-.1648-.5897-.0954-1.075-.2255-1.327-.3469-1.969-1.075-.6417-.7371-.6417-1.83 0-1.405 1.327-2.333 1.335-.9366 3.642-.9366 1.093 0 2.09.2255 1.006.2168 1.57.4683v2.463h-.2688q-.6938-.477-1.587-.7718-.8845-.3035-1.795-.3035-.7544 0-1.275.2081-.5116.2081-.5116.5897 0 .3469.2341.529t1.101.3642q.477.0954 1.023.1908.555.0867 1.11.2255 1.231.3209 1.821 1.015.5897.6851.5897 1.717z" style="paint-order:normal"/>
</g>
<g transform="matrix(.7754 0 0 .7925 -296.6 87.33)" stroke-width="2.586" aria-label="7">
<path d="m232 118.2-9.654 18.13h-3.065l10.27-18.82h-12.15v-2.507h14.6z" style=""/>
</g>
</g>
<g transform="matrix(1.424 0 0 1.24 -250.9 141.1)" fill="#fff">
<path d="m34.81 12.51-3.488 12.08c-3.03-2.052-6.327-3.744-13.32-.83l3.408-11.94.041-.019c6.964-2.886 10.34-1.347 13.36.717z"/>
<path d="m36.63 13.68-3.447 11.94c3.028 2.069 6.383 3.718 13.36.805l3.324-11.64c-7.115 2.455-10.22.946-13.24-1.105z"/>
<path d="m35.39 10.34 3.441-11.96c-3.028-2.061-6.386-3.717-13.37-.797l-3.443 12.01c2.775-1.153 4.969-1.682 6.806-1.666 2.787.018 4.746 1.178 6.57 2.413z"/>
<path d="m40.64-.369-3.44 12.03c3.018 2.063 6.669 3.752 13.36.738l3.438-11.99c-6.979 2.902-10.34 1.273-13.36-.784z"/>
</g>
</g>
<g transform="matrix(.8815 .05064 -.05856 1.386 34.46 -9.472)">
<rect transform="matrix(.9982 .0593 -.07946 .9968 0 0)" x="35.52" y="23.31" width="25.46" height="21.1" fill="#08004b" stroke-width=".07791"/>
</g>
<g fill="#08004b">
<rect transform="matrix(.9801 -.1986 .09887 .9951 0 0)" x="75.44" y="45.9" width="22.75" height="29.06" stroke-width=".08643"/>
<rect transform="matrix(.987 .1604 -.09873 .9951 0 0)" x="102.4" y="13.34" width="22.59" height="29.18" stroke-width=".0863"/>
<rect transform="matrix(.9874 -.158 .07589 .9971 0 0)" x="110.7" y="49.58" width="22.67" height="29.12" stroke-width=".08636"/>
</g>
<g transform="matrix(.953 0 0 1.088 28.66 -2.934)" fill="#08004b">
<g transform="matrix(1.109 0 0 1.276 -13.66 -16.69)">
<path d="m113.5 56.78 13.2 4.796 14.29-5.181-.1789-23.23-14.47 6.328-13.67-6.295z" stroke-width=".07844"/>
</g>
</g>
<g fill="#08004b">
<rect transform="matrix(.9881 -.1538 .1315 .9913 0 0)" x="155.6" y="55.43" width="22.42" height="28.07" stroke-width=".08431"/>
<rect transform="matrix(.9923 .1237 -.03228 .9995 0 0)" x="181.5" y="7.692" width="22.63" height="27.91" stroke-width=".08447"/>
<rect transform="matrix(.9925 -.1226 .1132 .9936 0 0)" x="190.1" y="55.22" width="22.41" height="28.08" stroke-width=".0843"/>
<rect transform="matrix(.9918 .1277 -.03476 .9994 0 0)" x="216.9" y="3.656" width="22.64" height="27.9" stroke-width=".08448"/>
</g>
<g transform="matrix(2.49 0 0 2.511 54.01 8.473)" fill="#87befb" stroke-width=".9535" aria-label="Фотошоп">
<path d="m17.45 11.21q.4916.4134.7542 1.022.2682.6034.2682 1.385 0 .771-.2737 1.38-.2737.6089-.7877 1.039-.5251.4302-1.212.6704-.6816.2402-1.587.3017v.9106h-2.134v-.9106q-.8771-.06145-1.587-.3017-.7095-.2458-1.218-.676-.5084-.4302-.7821-1.034t-.2737-1.38q0-.7821.2626-1.369.2626-.5866.7598-1.011.486-.4078 1.218-.6481.7319-.2458 1.62-.3129v-.8492h2.134v.8492q.9218.05028 1.626.2849.7095.2291 1.212.6481zm-1.196 2.374q0-.8045-.4246-1.307-.4246-.5028-1.218-.6089v3.955q.9218-.162 1.279-.6536.3631-.4972.3631-1.385zm-3.777 2.039v-3.955q-.8157.1229-1.229.6034-.4134.4749-.4134 1.313 0 .8771.3687 1.38.3743.4972 1.274.6592z"/>
<path d="m26.37 14.71q0 1.548-.905 2.441-.8995.8883-2.531.8883-1.631 0-2.536-.8883-.8995-.8939-.8995-2.441 0-1.559.905-2.447.9106-.8883 2.531-.8883 1.642 0 2.536.8939.8995.8939.8995 2.441zm-2.475 1.525q.1955-.2402.2905-.5754.1006-.3408.1006-.9386 0-.5531-.1006-.9274-.1006-.3743-.2793-.5978-.1788-.2291-.4302-.324-.2514-.09497-.5419-.09497t-.5196.07821q-.2235.07821-.4302.3129-.1844.2179-.2961.5978-.1061.3799-.1061.9553 0 .514.09497.8939.09497.3743.2793.6034.1788.2179.4246.3184.2514.1006.5698.1006.2737 0 .5196-.08939.2514-.09497.4246-.3129z"/>
<path d="m32.94 12.94h-2v4.911h-2.011v-4.911h-2v-1.363h6.011z"/>
<path d="m40.36 14.71q0 1.548-.905 2.441-.8995.8883-2.531.8883t-2.536-.8883q-.8995-.8939-.8995-2.441 0-1.559.905-2.447.9106-.8883 2.531-.8883 1.642 0 2.536.8939.8995.8939.8995 2.441zm-2.475 1.525q.1955-.2402.2905-.5754.1006-.3408.1006-.9386 0-.5531-.1006-.9274-.1006-.3743-.2793-.5978-.1788-.2291-.4302-.324-.2514-.09497-.5419-.09497t-.5196.07821q-.2235.07821-.4302.3129-.1844.2179-.2961.5978-.1061.3799-.1061.9553 0 .514.09497.8939.09497.3743.2793.6034.1788.2179.4246.3184.2514.1006.5698.1006.2737 0 .5196-.08939.2514-.09497.4246-.3129z"/>
<path d="m51.38 17.85h-9.57v-6.274h2.006v4.894h1.777v-4.894h2.006v4.894h1.777v-4.894h2.006z"/>
<path d="m59.69 14.71q0 1.548-.905 2.441-.8995.8883-2.531.8883-1.631 0-2.536-.8883-.8995-.8939-.8995-2.441 0-1.559.905-2.447.9106-.8883 2.531-.8883 1.642 0 2.536.8939.8995.8939.8995 2.441zm-2.475 1.525q.1955-.2402.2905-.5754.1006-.3408.1006-.9386 0-.5531-.1006-.9274-.1006-.3743-.2793-.5978-.1788-.2291-.4302-.324-.2514-.09497-.5419-.09497t-.5196.07821q-.2235.07821-.4302.3129-.1844.2179-.2961.5978-.1061.3799-.1061.9553 0 .514.09497.8939.09497.3743.2793.6034.1788.2179.4246.3184.2514.1006.5698.1006.2737 0 .5196-.08939.2514-.09497.4246-.3129z"/>
<path d="m67.48 17.85h-2.011v-4.911h-2.313v4.911h-2.011v-6.274h6.335z"/>
</g>
</svg>
