<svg version="1.1" viewBox="0 0 304.3 89.04" xmlns="http://www.w3.org/2000/svg">
 <g transform="matrix(1.611 0 0 1.845 -51.11 -35.12)">
  <g transform="matrix(1.106 0 0 1.166 8.907 -5.426)">
   <g transform="matrix(.07705 0 0 .0548 -44.27 12.92)" fill="#8bc9eb">
    <path d="m1104 761.9-13.17 138.7h117.6l-1.661-119.7c-.3313-23.88 1.24-49 3.58-72.63 1.37-13.84 2.23-26.97 2.99-38.56.17-2.54.33-5.01.49-7.4.5-7.33.86-15.52 1.21-23.45.64-14.46 1.3-29.4 2.79-39.43 2.19-14.72 10.74-77.22 11.73-85.74.83-7.11-3.74-13.38-10.61-14.6-3.42-.61-6.86.19-9.69 2.25-2.96 2.15-4.95 5.53-5.47 9.27-.11.77-14.27 80.78-16.37 90.87l.64.32c5.87 2.92 10.51 5.22 17.29 11.65.41.39.65.92.66 1.48.02.57-.19 1.1-.58 1.52-.77.82-1.97.91-2.85.21-38.58-29.62-81.36-23.07-108.5-7.06-1.01.59-2.28.31-2.89-.65-.61-.94-.38-2.19.52-2.86 6.92-5.08 11.16-6.74 16.91-8.94 0 0-16.94-97.51-16.94-97.55-.51-3.46-2.48-6.48-5.35-8.49-2.87-2.02-6.35-2.78-9.78-2.15-6.68 1.23-11.34 7.29-10.58 14.08.04.37 15.16 116.2 18.24 139.8.66.14 1.42.29 2.25.45 13.69 2.68 50.06 9.8 59.41 49.66.29 1.24 2.112 16.09.932 16.44-11.91 31.49-20.04 46.89-42.73 52.66z" fill="#8bc9eb"/>
   </g>
   <path d="m31.41 25.03 26.37 1.53-1.74 21.32-26.37-1.53z" fill="#08004b" stroke-width=".07989"/>
  </g>
  <g transform="matrix(-.07654 .007732 .007192 .05463 148.9 -1.521)" fill="#8bc9eb">
   <path d="m911.8 920.7-13.1 210.2 128.8-20.31-1.995-167.1c.1382-27.82 1.099-57.08 3.556-84.59 1.439-16.11 2.317-31.4 3.094-44.9.174-2.958.3373-5.834.501-8.617.5124-8.535.8651-18.07 1.208-27.31.6276-16.84 1.275-34.24 2.867-45.91 2.341-17.13 11.45-89.87 12.5-99.79.8788-8.276-4.213-15.62-11.82-17.1-3.788-.7394-7.59.1638-10.71 2.54-3.263 2.48-5.446 6.401-6.001 10.75-.1174.8961-15.34 93.99-17.61 105.7l.71.3782c6.511 3.451 11.66 6.17 19.2 13.72.4558.4578.7243 1.077.7385 1.73.025.6642-.2041 1.28-.6333 1.766-.8474.9488-2.175 1.044-3.152.2207-42.85-34.83-90.15-27.56-120.1-9.136-1.114.6789-2.521.342-3.201-.7815-.6802-1.1-.4327-2.555.5594-3.328 7.629-5.86 12.31-7.759 18.66-10.27 0 0-19.29-113.7-19.29-113.8-.5836-4.035-2.78-7.57-5.967-9.936-3.187-2.377-7.042-3.292-10.83-2.587-7.385 1.377-12.51 8.398-11.63 16.31.0463.4314 17.42 135.5 20.96 163 .7311.1686 1.573.3498 2.492.5432 15.16 3.237 55.45 11.84 66.01 58.35.3278 1.447 2.427 18.76 1.123 19.16-13 36.59-21.91 54.46-46.99 60.99z" stroke-width="1.135"/>
   <path d="m720.7 982.1 30.55 169.2-129.1 18.28-12.22-149.7c-2.59-27.56-6.676-56.37-11.81-83.27-3.005-15.76-5.374-30.78-7.467-44.05-.4622-2.905-.9058-5.732-1.341-8.466-1.345-8.383-2.628-17.77-3.873-26.88-2.271-16.59-4.616-33.74-7.341-45.08-4.002-16.65-20.17-87.46-22.18-97.14-1.683-8.078 2.657-16.02 10.07-18.5 3.691-1.236 7.555-.8473 10.89 1.09 3.485 2.021 6.037 5.613 7.013 9.85.2043.8717 24.43 91.02 27.84 102.3l-.6684.4688c-6.131 4.283-10.98 7.659-17.73 16.14-.408.5139-.6142 1.163-.5645 1.811.0397.6611.3281 1.24.802 1.664.9348.8268 2.263.744 3.154-.2007 39.16-40.19 86.87-39.28 118.4-25.02 1.173.5239 2.538.003 3.103-1.2.568-1.179.1798-2.587-.8814-3.22-8.152-4.787-12.99-6.045-19.54-7.689 0 0 8.032-115.2 8.028-115.2.1849-4.073 2.021-7.865 4.956-10.63 2.933-2.778 6.674-4.196 10.51-4.002 7.47.3811 13.24 6.651 13.15 14.6-.009.4333-4.052 136.5-4.879 164.1-.7098.2642-1.529.5555-2.422.8692-14.75 5.221-53.93 19.09-59.87 66.56-.184 1.476-.5747 18.9.7594 19.12 16.5 34.49 27.1 51.01 52.65 54.13z" stroke-width="1.133"/>
   <path d="m309.7 1001-12.68 214.7 128.8-20.31-2.414-171.6c-.3914-27.81 1.099-57.08 3.556-84.59 1.439-16.11 2.317-31.4 3.094-44.9.174-2.958.3372-5.834.5009-8.617.5124-8.535.8651-18.07 1.208-27.31.6276-16.84 1.275-34.24 2.867-45.91 2.341-17.13 11.45-89.87 12.5-99.79.8788-8.276-4.213-15.62-11.82-17.1-3.788-.7394-7.59.1638-10.71 2.54-3.263 2.48-5.446 6.401-6.001 10.75-.1175.8961-15.34 93.99-17.61 105.7l.7099.3782c6.511 3.451 11.66 6.17 19.2 13.72.4558.4578.7244 1.077.7385 1.73.0253.6642-.2042 1.28-.6333 1.766-.8474.9488-2.175 1.044-3.152.2207-42.85-34.83-90.15-27.56-120.1-9.136-1.114.6789-2.521.3418-3.201-.7815-.6801-1.1-.4326-2.555.5596-3.328 7.629-5.86 12.31-7.759 18.66-10.27 0 0-19.29-113.7-19.29-113.8-.5836-4.035-2.78-7.57-5.967-9.936-3.187-2.377-7.042-3.292-10.83-2.587-7.385 1.377-12.51 8.398-11.63 16.31.0463.4314 17.42 135.5 20.96 163 .7311.1686 1.573.3498 2.492.5432 15.16 3.237 55.45 11.84 66.01 58.35.3277 1.447 2.427 18.76 1.123 19.16-13 36.59-21.91 54.46-46.99 60.99z" stroke-width="1.135"/>
   <path d="m100.8 1077 35.6 164-129.1 18.28-17.27-144.5c-2.59-27.56-6.676-56.37-11.81-83.27-3.005-15.76-5.374-30.78-7.467-44.05-.4622-2.905-.906-5.732-1.341-8.466-1.345-8.383-2.628-17.77-3.873-26.88-2.271-16.59-4.616-33.74-7.341-45.08-4.002-16.65-20.17-87.46-22.18-97.14-1.683-8.078 2.657-16.02 10.07-18.5 3.691-1.236 7.555-.8473 10.89 1.09 3.485 2.021 6.037 5.613 7.013 9.85.2042.8717 24.43 91.02 27.84 102.3l-.6684.4688c-6.131 4.283-10.98 7.659-17.73 16.14-.4082.5139-.6143 1.163-.5645 1.811.0397.6611.3281 1.24.802 1.664.9348.8268 2.263.744 3.154-.2007 39.16-40.19 86.87-39.28 118.4-25.02 1.173.5239 2.538.003 3.103-1.2.5681-1.179.1798-2.587-.8814-3.22-8.152-4.787-12.99-6.045-19.54-7.689 0 0 8.032-115.2 8.028-115.2.1849-4.073 2.021-7.865 4.956-10.63 2.933-2.778 6.674-4.196 10.51-4.002 7.47.3811 13.24 6.651 13.15 14.6-.009.4333-4.052 136.5-4.879 164.1-.7098.2642-1.529.5555-2.422.8692-14.75 5.221-53.93 19.09-59.87 66.56-.1841 1.476-.5747 18.9.7595 19.12 16.5 34.49 27.1 51.01 52.65 54.13z" stroke-width="1.133"/>
   <path d="m-310.2 1097-7.833 207.2 128.8-20.31-7.258-164.1c-1.229-27.78 1.099-57.08 3.556-84.59 1.439-16.11 2.317-31.4 3.094-44.9.1739-2.958.3372-5.834.5009-8.617.5124-8.535.8651-18.07 1.208-27.31.6276-16.84 1.275-34.24 2.867-45.91 2.341-17.13 11.45-89.87 12.5-99.79.8788-8.276-4.213-15.62-11.82-17.1-3.788-.7394-7.589.1638-10.71 2.54-3.263 2.48-5.446 6.401-6.001 10.75-.1175.8961-15.34 93.99-17.61 105.7l.7099.3782c6.511 3.451 11.66 6.17 19.2 13.72.4558.4578.7244 1.077.7385 1.73.0253.6642-.2042 1.28-.6333 1.766-.8474.9488-2.175 1.044-3.152.2207-42.85-34.83-90.15-27.56-120.1-9.136-1.114.6789-2.521.3418-3.201-.7815-.6801-1.1-.4326-2.555.5596-3.328 7.629-5.86 12.31-7.759 18.66-10.27 0 0-19.29-113.7-19.29-113.8-.5836-4.035-2.78-7.57-5.967-9.936-3.187-2.377-7.042-3.292-10.83-2.587-7.385 1.377-12.51 8.398-11.63 16.31.0463.4314 17.42 135.5 20.96 163 .7311.1686 1.573.3498 2.492.5432 15.16 3.237 55.45 11.84 66.01 58.35.3277 1.447 2.427 18.76 1.123 19.16-13 36.59-21.91 54.46-46.99 60.99z" stroke-width="1.135"/>
   <path d="m-547.2 1184 38.92 146.1-129.1 18.28-20.67-127.3c-2.495-26.56-6.482-54.3-11.53-80.21-2.951-15.18-5.268-29.64-7.313-42.41-.4522-2.798-.8861-5.521-1.311-8.153-1.315-8.074-2.566-17.12-3.78-25.89-2.214-15.98-4.499-32.49-7.185-43.42-3.944-16.03-19.87-84.2-21.85-93.53-1.655-7.777 2.71-15.46 10.13-17.89 3.693-1.21 7.555-.8553 10.88.9955 3.476 1.931 6.015 5.38 6.977 9.458.2012.8391 24.12 87.61 27.48 98.51l-.6697.4555c-6.143 4.16-11 7.439-17.77 15.64-.4097.4975-.6179 1.124-.5703 1.749.0375.6369.3238 1.194.7959 1.6.9316.7922 2.259.7057 3.152-.2095 39.28-38.94 86.96-38.31 118.5-24.72 1.171.4991 2.537-.01 3.107-1.172.5718-1.14.1886-2.494-.8701-3.1-8.132-4.574-12.96-5.76-19.51-7.313 0 0 8.419-111.1 8.414-111.1.1986-3.927 2.047-7.592 4.99-10.27 2.941-2.692 6.684-4.079 10.52-3.911 7.466.3292 13.22 6.343 13.09 14.01-.0105.4177-4.512 131.6-5.432 158.3-.7103.2583-1.53.5432-2.425.8502-14.76 5.108-53.96 18.68-60.07 64.46-.189 1.424-.6384 18.23.6942 18.42 16.38 33.16 26.91 49.03 52.44 51.91z" stroke-width="1.113"/>
  </g>
 </g>
 <g transform="matrix(1.781 0 0 2.151 -36.46 -45.77)">
  <g fill="#08004b">
   <path d="m50.24 26.79 25.96-4.231 4.809 20.98-25.96 4.231z" stroke-width=".0799"/>
   <path d="m75.2 25.19 26.36 1.709-1.943 21.3-26.36-1.709z" stroke-width=".0799"/>
   <path d="m92.65 26.79 26.11-3.55 4.036 21.09-26.11 3.55z" stroke-width=".07989"/>
   <path d="m116 25.28 26.36 1.791-2.035 21.29-26.36-1.791z" stroke-width=".07989"/>
   <path d="m135.5 26.32 26.19-3.066 3.485 21.16-26.19 3.066z" stroke-width=".07989"/>
   <path d="m157.7 25.27 26.36 1.694-1.925 21.3-26.36-1.694z" stroke-width=".07989"/>
  </g>
  <g fill="#8bc9eb">
   <path d="m40.8 55.28c.4007 1.112 4.136-.8042 2.716-3.954-.6218-1.288-1.563-2.11-4.534-2.506l-.02311-.0033-.7073-.502c-.5108-.3623-.9361-.7985-1.231-1.262-.2288-.36-.396-.6204-.4831-.7535-.2589-.3951-1.019-.8894-1.807-1.175l-.3375-.1228c-.2257-.0822-.5016-.05371-.6857.07015-.1841.1239-.2396.3178-.1379.4828.4407.7009 1.086 1.975 1.549 2.92.2874.5864.6765 1.143 1.156 1.656 1.761 1.88 2.234 2.273 3.056 2.736.8914.502 1.284 1.185 1.302 2.118z" stroke-width=".06498"/>
   <path d="m69.2 53.09c-.2521 1.148-4.214-.3865-3.217-3.668.4487-1.346 1.276-2.26 4.175-2.953l.02253-.0056.6367-.5713c.4599-.4124.8251-.8899 1.058-1.381.1801-.3818.312-.6581.381-.7996.2053-.4198.8951-.9888 1.641-1.353l.3191-.1562c.2135-.1046.4912-.1039.6904.0011s.2797.2928.2004.4674c-.3458.7429-.8192 2.078-1.156 3.066-.2085.6133-.522 1.207-.9308 1.766-1.503 2.051-1.921 2.49-2.677 3.034-.8197.5898-1.12 1.31-1.015 2.242z" stroke-width=".06509"/>
   <path transform="matrix(-.07654 .007732 .007192 .05463 148.3 2.679)" d="m929.2 820.6c-3.279 20.81-54.69-6.98-41.73-66.47 5.831-24.4 16.57-40.98 54.21-53.55l.2924-.1019 8.267-10.36c5.971-7.477 10.71-16.13 13.73-25.04 2.339-6.922 4.053-11.93 4.95-14.5 2.667-7.611 11.62-17.93 21.3-24.53l4.143-2.834c2.771-1.897 6.376-1.886 8.961.0159 2.584 1.902 3.629 5.305 2.598 8.471-4.492 13.47-10.64 37.66-15.02 55.59-2.71 11.12-6.782 21.89-12.09 32.02-19.52 37.18-24.95 45.15-34.76 55-10.64 10.7-14.54 23.76-13.19 40.64z" stroke-width=".9983"/>
   <path transform="matrix(-.07654 .007732 .007192 .05463 148.3 2.679)" d="m561.7 839.3c5.2 20.29 53.68-14.67 35.25-72.14-8.07-23.5-20.29-38.51-58.85-45.73l-.3-.06-9.18-9.16c-6.63-6.611-12.15-14.57-15.98-23.02-2.97-6.57-5.14-11.32-6.27-13.75-3.36-7.21-13.22-16.23-23.45-21.45l-4.38-2.24c-2.93-1.5-6.51-.9801-8.9 1.28-2.39 2.26-3.11 5.8-1.79 8.81 5.72 12.79 14.09 36.04 20.11 53.29 3.73 10.7 8.78 20.86 15 30.21 22.86 34.31 29 41.48 39.67 49.92 11.57 9.16 16.66 21.63 16.9 38.65z"/>
   <path d="m126.6 55.04c.4007 1.112 4.136-.8042 2.716-3.954-.6218-1.288-1.563-2.11-4.534-2.506l-.0231-.0033-.7073-.502c-.5108-.3623-.9361-.7985-1.231-1.262-.2288-.36-.396-.6204-.4831-.7535-.2589-.3951-1.019-.8894-1.807-1.175l-.3375-.1228c-.2257-.0822-.5016-.05371-.6857.07015-.1841.1239-.2396.3178-.1379.4828.4407.7009 1.086 1.975 1.549 2.92.2874.5864.6764 1.143 1.156 1.656 1.761 1.88 2.234 2.273 3.056 2.736.8914.502 1.284 1.185 1.302 2.118z" stroke-width=".06498"/>
   <path d="m154.9 53.22c-.2521 1.148-4.214-.3865-3.217-3.668.4487-1.346 1.276-2.26 4.175-2.953l.0225-.0056.6367-.5713c.4599-.4124.8252-.8899 1.058-1.381.1801-.3819.312-.6581.381-.7996.2053-.4198.8951-.9888 1.641-1.353l.3191-.1562c.2135-.1046.4912-.1039.6904.0011s.2797.2928.2004.4674c-.3458.7429-.8192 2.078-1.156 3.066-.2085.6133-.522 1.207-.9308 1.766-1.503 2.051-1.921 2.49-2.677 3.034-.8197.5898-1.12 1.31-1.015 2.242z" stroke-width=".06509"/>
   <path d="m172.2 55.71c.4007 1.071 4.136-.7748 2.716-3.809-.6218-1.241-1.563-2.033-4.534-2.414l-.0231-.0032-.7073-.4836c-.5108-.349-.9361-.7693-1.231-1.215-.2288-.3469-.396-.5977-.4831-.726-.2589-.3807-1.019-.8569-1.807-1.133l-.3374-.1183c-.2257-.0792-.5016-.05175-.6857.06759-.1841.1193-.2396.3062-.1379.4652.4407.6753 1.086 1.903 1.549 2.814.2874.565.6764 1.101 1.156 1.595 1.761 1.812 2.234 2.19 3.056 2.636.8914.4836 1.284 1.142 1.302 2.041z" stroke-width=".06378"/>
  </g>
 </g>
 <g transform="matrix(2.753 0 0 2.927 35.88 -95.77)" fill="#87befb" aria-label="Фотошоп">
  <g stroke-width=".9779">
   <path d="m5.179 41.3q0.4614 0.4558 0.6634 1.091 0.2085 0.6294 0.1191 1.418-0.08808 0.7771-0.4408 1.369-0.3527 0.592-0.9337 0.9849-0.5925 0.3918-1.33 0.5795-0.7326 0.188-1.676 0.1781l-0.1041 0.9179-2.207-0.1695 0.1041-0.9179q-0.9004-0.1316-1.606-0.4302-0.7059-0.3042-1.183-0.7781-0.4767-0.4739-0.691-1.104-0.2143-0.6299-0.1256-1.413 0.08936-0.7884 0.428-1.359 0.3386-0.5704 0.9015-0.9589 0.5494-0.3725 1.334-0.5565 0.7852-0.1896 1.712-0.1867l0.09702-0.856 2.207 0.1695-0.09702 0.856q0.9479 0.1239 1.649 0.4163 0.7079 0.2872 1.18 0.7495zm-1.508 2.299q0.09191-0.8109-0.2898-1.351-0.3818-0.5405-1.19-0.7105l-0.4519 3.987q0.9722-0.09009 1.398-0.5573 0.4324-0.4723 0.5339-1.367zm-4.14 1.756 0.4519-3.987q-0.8578 0.0591-1.341 0.5105-0.4819 0.4458-0.5777 1.29-0.1002 0.8841 0.2237 1.42 0.3304 0.5309 1.242 0.7657z"/>
   <path d="m19.71 43.34q0.2181 1.554-0.5865 2.574-0.7997 1.014-2.477 1.235-1.677 0.2209-2.733-0.5487-1.051-0.776-1.269-2.33-0.2197-1.565 0.5857-2.581 0.8112-1.016 2.477-1.235 1.689-0.2224 2.734 0.5544 1.051 0.776 1.269 2.33zm-2.33 1.867q0.1672-0.2678 0.2176-0.6173 0.05537-0.3559-0.02889-0.9562-0.07796-0.5554-0.2341-0.9178-0.1562-0.3624-0.3715-0.5625-0.2162-0.2059-0.4881-0.2672-0.2719-0.06135-0.5707-0.02202t-0.5232 0.1489q-0.2188 0.1088-0.3983 0.3725-0.1589 0.2438-0.2202 0.6405-0.0556 0.3959 0.02551 0.9738 0.07245 0.5162 0.2236 0.8848 0.1504 0.3631 0.3722 0.5682 0.2145 0.1946 0.4815 0.2623 0.2727 0.06697 0.6001 0.02386 0.2815-0.03706 0.5217-0.1601 0.2451-0.1294 0.3925-0.3717z"/>
   <path d="m33.08 42.58-2.068-0.1652-0.4224 4.96-2.08-0.1661 0.4224-4.96-2.068-0.1652 0.1173-1.377 6.217 0.4965z"/>
   <path d="m48.01 43.12q0.2532 1.549-0.5282 2.587-0.7767 1.031-2.449 1.287-1.672 0.2563-2.745-0.4908-1.068-0.7535-1.321-2.303-0.255-1.561 0.5274-2.592 0.7881-1.033 2.449-1.287 1.683-0.2581 2.746 0.4963 1.068 0.7535 1.321 2.303zm-2.287 1.916q0.1612-0.2712 0.2036-0.6217 0.04732-0.357-0.05048-0.9554-0.09048-0.5537-0.2548-0.9126-0.1643-0.3589-0.3841-0.5545-0.2207-0.2012-0.494-0.2568-0.2732-0.05557-0.571-0.0099-0.2977 0.04564-0.5197 0.1599-0.2163 0.1134-0.3898 0.3808-0.1533 0.2471-0.2057 0.6449-0.04665 0.397 0.04749 0.973 0.08409 0.5146 0.2436 0.88 0.1586 0.3598 0.385 0.5601 0.2189 0.19 0.4873 0.2521 0.2742 0.06117 0.6006 0.01114 0.2806-0.04301 0.5179-0.1711 0.2421-0.1346 0.384-0.3799z"/>
  </g>
  <path d="m60.21 47.4-8.368-0.8204 0.5942-5.686 1.754 0.1719-0.4636 4.435 1.554 0.1523 0.4636-4.435 1.754 0.1719-0.4636 4.435 1.554 0.1523 0.4636-4.435 1.754 0.1719z" stroke-width=".8531"/>
  <path d="m73.96 42.66q0.2468 1.55-0.5388 2.585-0.7808 1.028-2.454 1.277-1.673 0.2498-2.743-0.5013-1.065-0.7576-1.312-2.308-0.2486-1.561 0.538-2.59 0.7923-1.03 2.454-1.277 1.684-0.2516 2.744 0.5069 1.065 0.7576 1.312 2.308zm-2.296 1.907q0.1622-0.2706 0.2062-0.6209 0.04878-0.3568-0.04656-0.9556-0.08822-0.554-0.251-0.9136-0.1628-0.3595-0.3818-0.556-0.2199-0.2021-0.4928-0.2587-0.273-0.05663-0.571-0.01212-0.2979 0.0445-0.5204 0.1579-0.2167 0.1126-0.3913 0.3793-0.1543 0.2465-0.2084 0.6441-0.04828 0.3968 0.0435 0.9732 0.08197 0.5149 0.2399 0.8809 0.1571 0.3604 0.3827 0.5616 0.2181 0.1909 0.4863 0.254 0.2739 0.06222 0.6004 0.01345 0.2807-0.04193 0.5187-0.1692 0.2427-0.1337 0.3855-0.3785z" stroke-width=".9779"/>
  <path d="m87.4 47.37-2.086-0.05844 0.1486-4.976-2.399-0.06721-0.1486 4.976-2.086-0.05844 0.1898-6.356 6.572 0.1841z" stroke-width=".9779"/>
 </g>
 <path d="m50.87 62.99h211.8v20.92h-211.8z" fill="#08004b" stroke-linecap="round" stroke-linejoin="round" stroke-width="5.149" style="paint-order:stroke fill markers"/>
 <g transform="translate(1.663 .2375)" fill="#08004b" font-size="13px" font-weight="bold" stroke="#87befb" stroke-linecap="round" stroke-linejoin="round" stroke-width="4.4" style="paint-order:stroke fill markers" aria-label="НЕОФИЦИАЛЬНЫЙ САЙТ">
  <g transform="translate(12.77 -75.59)" fill="#87befb" stroke="none">
   <text x="42.011585" y="154.18314" fill="#87befb" font-family="sans-serif" font-size="14px" font-weight="bold" stroke="none" style="line-height:1.25" xml:space="preserve"><tspan x="42.011585" y="154.18314" fill="#87befb" font-family="Arial" font-size="14px" font-weight="900" stroke="none">НЕОФИЦИАЛЬНЫЙ САЙТ</tspan></text>
  </g>
 </g>
</svg>
