<svg version="1.1" viewBox="0 0 182.4 53.66" xmlns="http://www.w3.org/2000/svg" xmlns:xlink="http://www.w3.org/1999/xlink">
<defs>
<linearGradient id="SVGID_3_-7" x1="37.14" x2="152.1" y1="-2.478" y2="240.5" gradientUnits="userSpaceOnUse">
<stop stop-color="#A0CBFF" offset="0"/>
<stop stop-color="#A0CBFE" offset=".3941"/>
<stop stop-color="#8EC2FC" offset=".583"/>
<stop stop-color="#83BCFB" offset=".7838"/>
<stop stop-color="#7FBAFB" offset="1"/>
</linearGradient>
<linearGradient id="SVGID_4_-8" x1="102.6" x2="218.1" y1="-34.21" y2="209.8" gradientUnits="userSpaceOnUse">
<stop stop-color="#A0CBFF" offset="0"/>
<stop stop-color="#A0CBFE" offset=".3941"/>
<stop stop-color="#8EC2FC" offset=".583"/>
<stop stop-color="#83BCFB" offset=".7838"/>
<stop stop-color="#7FBAFB" offset="1"/>
</linearGradient>
</defs>
<style type="text/css">.custom-controls {
height: 64px;
fill: #fff;
}

.control-icon {
opacity: 0;
animation: icon-fade-in-out 4s ease-in-out infinite;
animation-fill-mode: forwards;
}

.stop {
animation-delay: .3s;
}

.play {
animation-delay: .5s;
}

.gamepad {
animation-delay: .7s;
padding: 0 0 0 20px;
}

@keyframes icon-fade-in-out {
0% {
opacity: 0;
}

10% {
opacity: 1;
}

80% {
opacity: 1;
}

90% {
opacity: 0;
}

100% {
opacity: 0;
}
}</style>
<g display="none">
<rect x=".5" y=".535" width="181.9" height="53.25" fill="#5d6c7f" style="paint-order:normal"/>
</g>
<g>
<g transform="translate(1.652 -4.67)">
<g fill="#8bc9eb">
<path d="m173.6 24.9c1.017-2.105.2799-5.796-3.357-4.816.2936-2.761-2.469-6.231-5.894-3.901.9277-6.97-9.98-8.899-11.26-1.321-1.69-1.735-4.732-.6172-4.906 2.642-3.573-.7475-6.686 2.977-5.511 7.514 10.3.08713 20.62-.05796 30.92-.1169z" stroke-width="2.162"/>
<path d="m132.2 54.05 37.87-.1819c1.288-2.239.3542-6.163-4.25-5.121 2.094-4.571-4.049-8.531-7.461-4.147 1.175-7.411-12.63-9.463-14.25-1.404-2.14-1.845-7.078.255-5.846 4.267-2.902-2.913-8.57 2.035-6.057 6.589z" stroke-width="1.922"/>
<path d="m-.6368 54.56 31.47-.1584c1.07-1.949.2944-5.363-3.534-4.458.3087-2.555-2.598-5.769-6.2-3.611.9761-6.45-10.5-8.238-11.85-1.223-1.778-1.606-4.979-.5714-5.161 2.445-3.759-.6918-5.971 2.806-4.733 7.005z" stroke-width="3.33"/>
<path d="m18.5 29.23 38.53-.2068c1.31-2.546.3605-7.005-4.326-5.822.3781-3.336-3.182-7.535-7.593-4.717 1.195-8.426-12.86-10.76-14.5-1.597-2.176-2.097-6.098-.7461-6.319 3.193-4.602-.9037-7.313 3.665-5.796 9.149z" stroke-width="1.817"/>
<path d="m61.94 58.04 31.07-.1657c1.057-2.039.2907-5.613-3.489-4.664.3049-2.673-2.566-6.037-6.123-3.777.9641-6.75-10.37-8.62-11.7-1.279-1.756-1.681-4.917-.5976-5.095 2.558-3.711-.7241-5.897 2.936-4.675 7.328z" stroke-width="2.053"/>
<path d="m99.2 20.98c.8358-1.713.23-4.715-2.759-3.918.2412-2.246-2.029-5.069-4.843-3.174.7623-5.67-8.2-7.239-9.252-1.074-1.388-1.412-3.888-.5021-4.031 2.149-2.936-.608-5.494 2.422-4.528 6.112 8.467.07087 16.94-.04715 25.41-.09509z" stroke-width="1.767"/>
</g>
</g>
<g class="control-icon stop" transform="matrix(.3235 -.004944 .006973 .3467 56.43 60.79)" fill="#5d6c7f" aria-label="Ps">
<g stroke-width=".233">
<path d="m85.3-142.2c-1.611-.0287-3.234.2425-4.65.9535-1.807.8989-2.943 2.681-3.105 4.52-.23 1.78.1377 3.735 1.511 5.09 1.528 1.525 3.893 2.045 6.091 2.096 1.555.056 3.108-.2527 4.533-.8138.03587-1.06.07316-2.121.1088-3.181.0039-.2129-.4189-.0648-.6003-.1192-.6402.5358-1.373 1.016-2.23 1.209-1.28.2928-2.78.253-3.868-.4913-1.146-.8047-1.32-2.248-1.171-3.469.1105-1.227.8943-2.519 2.266-2.886 1.755-.4738 3.679.1436 4.95 1.281.1814.249.524.1372.8002.1711l.1043-3.279c-.9904-.4508-2.045-.796-3.141-.9601-.5251-.0701-1.062-.1115-1.598-.1211z"/>
<path d="m99.17-141.8c-2.12-.101-4.45.1626-6.075 1.529-1.328 1.048-1.552 2.968-.6284 4.291.9007 1.251 2.605 1.688 4.131 1.976.9739.1901 2.02.2647 2.885.7414.5813.4759.0849 1.329-.6263 1.398-2.078.3873-4.259-.1367-6.052-1.106-.3577-.1942-.643-.5566-1.102-.4764-.03542 1.054-.073 2.114-.1085 3.168 1.169.4908 2.43.7998 3.704.9681 2.167.2359 4.505.2564 6.493-.6815 1.302-.5931 2.306-1.795 2.299-3.149.0283-.6908-.1413-1.406-.5871-1.974-.9233-1.184-2.593-1.529-4.075-1.79-.9625-.2122-2-.2944-2.864-.7596-.6053-.4418-.2087-1.308.5125-1.399 1.726-.4478 3.579-.0434 5.144.6692.5076.1476.8622.6643 1.427.5978.0342-1.012.0714-2.022.1056-3.033-1.444-.562-3.011-.8861-4.581-.9684z"/>
<path d="m114.7-141.4-.1909 5.747-5.102-.128zm-.157-3.596-8.528 9.026-.1052 3.015 8.503.2134-.1268 3.709 4.325.1047.1268-3.709 2.39.0649.1029-2.91-2.397-.0587.3152-9.339z"/>
</g>
<g stroke-width=".2223">
<path d="m-117.1-53.87c-.9492-.009-1.896.09175-2.848.3095-.9455.2178-1.667.4414-2.155.6635l-.0466 3.631.3284-.0014c.6001-.4258 1.242-.7751 1.936-1.046.7004-.2713 1.369-.3987 1.998-.3928.8399.008 1.48.219 1.919.6326.4452.4063.6615.9784.6511 1.724-.008.6214-.195 1.252-.5521 1.885-.3571.6328-.9524 1.37-1.791 2.217-.5612.5724-1.308 1.251-2.241 2.039-.9261.7883-1.851 1.532-2.776 2.233l-.0391 2.699 11.98.1114.042-3.121-6.85-.06789c.2692-.2022.7199-.5548 1.355-1.061.6354-.5132 1.269-1.074 1.899-1.682 1.004-.9777 1.749-1.928 2.24-2.852.4977-.9239.7561-1.901.7704-2.932.0219-1.572-.4635-2.793-1.456-3.658-.9919-.8721-2.448-1.314-4.36-1.332z"/>
<path d="m-146.9-54.15c-.9492-.009-1.896.09771-2.848.3154-.9455.2178-1.66.4356-2.148.6577l-.0531 3.631.3282.0047c.6001-.4258 1.249-.775 1.942-1.046.7004-.2713 1.363-.4047 1.991-.3988.84.008 1.48.219 1.919.6326.4452.4063.6613.9844.651 1.73-.008.6214-.1949 1.246-.552 1.879-.3571.6328-.9526 1.376-1.791 2.223-.5611.5724-1.308 1.251-2.241 2.039-.9261.7883-1.851 1.532-2.776 2.233l-.0392 2.699 11.98.1114.0422-3.126-6.85-.06206c.2692-.2022.72-.5607 1.355-1.067.6355-.5132 1.269-1.074 1.899-1.682 1.004-.9777 1.749-1.928 2.24-2.852.4977-.9239.7561-1.901.7704-2.932.0219-1.572-.4637-2.787-1.456-3.652-.9919-.8721-2.448-1.32-4.36-1.338z"/>
<path d="m-102-50.73c.8399.008 1.434.4333 1.785 1.277.3504.8368.5111 2.24.4838 4.214-.0272 1.952-.2279 3.358-.6085 4.21-.3806.8519-.9879 1.27-1.814 1.262-.8263-.0078-1.415-.4362-1.772-1.295-.3569-.8588-.5236-2.259-.4968-4.196.0277-1.989.2291-3.398.6026-4.228.3736-.8374.9802-1.252 1.82-1.244zm.0398-3.014c-1.12-.0105-2.086.1599-2.897.5105-.8108.3507-1.47.8799-1.985 1.592-.5154.719-.8964 1.599-1.143 2.642-.2467 1.043-.3819 2.273-.4016 3.691-.0189 1.374.0767 2.596.2872 3.665.2107 1.062.5645 1.958 1.06 2.679.4886.7212 1.134 1.268 1.935 1.642.8007.3731 1.771.5648 2.911.5755 1.161.01078 2.137-.1592 2.935-.51.7972-.3581 1.458-.8933 1.973-1.598.5013-.6899.8709-1.574 1.118-2.654.2473-1.087.3825-2.317.4016-3.691.01895-1.374-.07712-2.582-.288-3.63-.2108-1.055-.5589-1.946-1.048-2.667-.4952-.7358-1.134-1.292-1.922-1.665-.787-.3803-1.769-.5709-2.936-.5818z"/>
<path d="m-131.8-51.01c.8399.008 1.434.4333 1.785 1.277.3504.8368.511 2.246.4836 4.22-.0269 1.952-.2278 3.352-.6084 4.204-.3806.8519-.988 1.275-1.814 1.268-.8263-.0078-1.415-.4422-1.772-1.301-.3569-.8588-.5236-2.259-.4968-4.196.0277-1.989.2291-3.398.6026-4.228.3736-.8374.9801-1.252 1.82-1.244zm.0398-3.014c-1.12-.0105-2.08.16-2.89.5106-.8108.3507-1.476.8798-1.992 1.592-.5154.719-.8965 1.605-1.143 2.648-.2466 1.043-.3819 2.273-.4016 3.691-.0189 1.374.0767 2.596.2872 3.665.2106 1.062.5646 1.952 1.06 2.673.4886.7212 1.134 1.268 1.935 1.642.8007.3731 1.771.5648 2.911.5755 1.161.01078 2.144-.1591 2.941-.5099.7972-.3581 1.451-.8875 1.966-1.592.5013-.6899.8772-1.574 1.124-2.654.2473-1.087.3762-2.317.3953-3.691.0189-1.374-.077-2.588-.2879-3.636-.2108-1.055-.5591-1.94-1.048-2.661-.4952-.7358-1.134-1.292-1.922-1.665-.787-.3803-1.768-.5768-2.936-.5878z"/>
</g>
<g stroke-width=".2406">
<path d="m273.1-52.44c-2.18-.1424-4.401.2733-6.453 1.03-.0242 1.18-.0439 2.363-.0693 3.543-.0171.3016-.0982.6637.3188.5335 1.398-.847 2.974-1.616 4.64-1.591 1.18-.03853 2.571.5103 2.88 1.8.417 1.673-.585 3.266-1.672 4.425-2.05 2.197-4.463 3.992-6.858 5.766l-.0651 3.02c4.648.07019 9.296.1413 13.94.2115l.0753-3.498c-2.66-.04018-5.324-.08015-7.984-.1204 2.068-1.514 4.164-3.085 5.743-5.157 1.285-1.627 1.939-3.823 1.476-5.887-.3682-1.922-2.033-3.3-3.823-3.738-.7101-.18-1.428-.2891-2.155-.3366z"/>
<path d="m307.8-51.92c-2.18-.1424-4.401.2733-6.453 1.03-.0242 1.18-.0438 2.363-.0693 3.543-.017.3016-.091.6574.326.5273 1.398-.847 2.967-1.61 4.633-1.585 1.18-.03853 2.578.5104 2.887 1.8.4169 1.673-.5919 3.266-1.679 4.425-2.05 2.197-4.463 3.992-6.858 5.766l-.0582 3.02c4.648.0702 9.296.1414 13.94.2115l.0684-3.504c-2.66-.04018-5.317-.08006-7.977-.1203 2.068-1.514 4.157-3.086 5.736-5.157 1.285-1.627 1.939-3.823 1.476-5.887-.3682-1.922-2.027-3.294-3.816-3.732-.7102-.18-1.435-.2892-2.161-.3367z"/>
<path d="m323.9-51.38c-.721-.1377-.2881 1.149-.9055 1.447-.9804.9969-2.461.9615-3.739.9792-.0202.9948-.0359 1.987-.0571 2.982 1.249.01887 2.495.04081 3.744.05991-.0659 3.222-.1356 6.444-.2013 9.665-1.249-.01887-2.495-.04081-3.744-.05991-.0217 1.064-.0389 2.128-.0618 3.192 3.953.05962 7.899.1221 11.85.1817.0216-1.064.0471-2.128.0688-3.192-1.221-.01846-2.441-.04002-3.661-.05873l.3053-15.15c-1.2-.01813-2.4-.0332-3.6-.05133z"/>
<path d="m289.9-48.84c.8019-.01923 1.609.3486 1.993 1.112.7699 1.547.6914 3.368.7033 5.064-.0706 1.636-.0975 3.378-.828 4.877-.6693 1.521-2.999 1.669-3.834.2576-.8256-1.43-.7793-3.178-.8124-4.792.0559-1.781.0473-3.665.8234-5.304.3568-.7864 1.152-1.196 1.954-1.215zm.286-3.374c-2.124-.08412-4.48.485-5.833 2.32-1.549 2.094-1.793 4.838-1.846 7.373.007 2.456.1976 5.142 1.754 7.125 1.435 1.827 3.85 2.303 6.025 2.215 1.963-.01792 4.038-.7518 5.217-2.462 1.38-2.013 1.621-4.569 1.706-6.954.0202-2.407-.13-5.024-1.514-7.058-1.212-1.835-3.436-2.55-5.508-2.558z"/>
</g>
</g>
<g transform="matrix(.42 -.006954 .009111 .448 126.6 60.12)" fill="#5d6c7f" aria-label="Ps">
<path class="control-icon play" d="m-183.8-103.5c-3.865-.0408-7.729-.0825-11.59-.1233-.0401 3.027-.0778 6.052-.1179 9.079-.1286.3899.2146.3121.4768.3126 1.758-.432 3.602-.6771 5.386-.2652.9903.1834 1.978.9943 1.917 2.105.0844.961-.5621 1.856-1.424 2.192-1.817.6357-3.839.3015-5.526-.5609-.5052-.1888-.9176-.6685-1.49-.568-.0163 1.225-.0307 2.449-.0471 3.674.9569.4205 1.978.6882 3.004.8662 2.291.3083 4.778.4049 6.875-.7608 1.785-.9205 2.885-2.926 2.869-4.943.0656-1.557-.5253-3.132-1.819-4.026-1.815-1.259-4.115-1.269-6.229-1.165.012-.905.0236-1.81.0356-2.715 2.548.0266 5.095.0526 7.643.0794zm-36.99-.718c-1.29.0244-2.568.2703-3.756.8092-2.288.9949-3.819 3.316-4.236 5.771-.4414 2.623-.2004 5.548 1.409 7.729 1.514 2.083 4.138 2.981 6.608 2.98 2.014.09755 3.98-.4982 5.786-1.371.0167-1.265.033-2.531.0498-3.796-.0101-.4459-.7276-.05821-.8736.187-1.382 1.191-3.206 2.059-5.045 1.709-1.52-.1927-2.853-1.299-3.367-2.768-.5412-1.559-.5098-3.311-.0613-4.892.4623-1.556 1.788-2.819 3.382-3.056 1.742-.3662 3.478.4286 4.803 1.531.3972.2871.7085.779 1.251.6515.0175-1.314.0353-2.626.0529-3.94-.5404-.4879-1.455-.7412-2.182-1.023-1.23-.3476-2.53-.5458-3.82-.5214zm16.06.2013c-.6227-.0213-1.245-.004-1.866.0539-2.111.2174-4.376 1.159-5.448 3.137-.827 1.694-.5947 3.982.7634 5.322 1.591 1.477 3.806 1.818 5.833 2.266.8765.2043 2.033.4411 2.326 1.449.2131.8255-.4858 1.485-1.204 1.686-2.487.6321-5.165-.1007-7.258-1.525-.3569-.2449-.652-.6216-1.124-.51-.0176 1.33-.0317 2.659-.0493 3.988 1.251.5348 2.554.967 3.899 1.172 2.493.3162 5.193.3499 7.456-.9392 1.537-.8497 2.675-2.512 2.637-4.331.0406-1.247-.3912-2.52-1.36-3.321-1.662-1.384-3.872-1.668-5.896-2.158-.7522-.2263-1.778-.3311-2.104-1.184-.3041-.8093.3918-1.567 1.117-1.774 2.06-.6438 4.307-.1195 6.151.915.5482.2032.9028.8847 1.537.7562.017-1.277.0337-2.554.0505-3.831-1.735-.6934-3.593-1.107-5.461-1.17z" stroke-width=".2007"/>
<path class="control-icon play" transform="matrix(2.38 .03694 -.0484 2.231 -298.3 -138.8)" d="m163.6 12.29c-.8019.0039-1.605.1714-2.299.5801-.8856.5169-1.423 1.515-1.477 2.529-.0878.9828.1242 2.05.8281 2.779.7833.8208 1.966 1.079 3.061 1.08.775.01176 1.543-.1776 2.244-.5039l.006-1.77c-.0255-.08676-.2111-.01431-.2988-.03906-.3105.3027-.6681.5744-1.092.6914-.6324.1768-1.379.1757-1.932-.2207-.5971-.4415-.6975-1.262-.6309-1.951.0475-.6745.4406-1.38 1.121-1.576.8574-.2569 1.802.05773 2.441.6582.0927.1383.2612.0688.3984.08594l.006-1.807c-.4996-.2359-1.032-.4115-1.58-.4883-.2624-.03217-.5296-.05013-.7969-.04883zm-7.066-.02344c-.8019.0039-1.607.1714-2.301.5801-.8856.5169-1.423 1.515-1.477 2.529-.0878.9828.1242 2.05.8281 2.779.7833.8208 1.966 1.081 3.061 1.082.775.01176 1.543-.1795 2.244-.5059l.006-1.77c-.0255-.08676-.2111-.01431-.2988-.03906-.3105.3027-.6681.5744-1.092.6914-.6324.1768-1.379.1757-1.932-.2207-.5971-.4415-.6975-1.262-.6309-1.951.0475-.6745.4406-1.38 1.121-1.576.8574-.2569 1.802.05772 2.441.6582.0927.1383.2612.0688.3984.08594l.006-1.807c-.4996-.2359-1.032-.4116-1.58-.4883-.2624-.03217-.5276-.05013-.7949-.04883z" stroke-width=".08706"/>
<path class="control-icon play" transform="matrix(2.38 .03694 -.0484 2.231 -298.3 -138.8)" d="m84.04 49.25c.3304.0054.685.1731.7969.5195.1171.4056.1003.902-.1816 1.232-.2896.325-.859.3246-1.127-.0332-.3369-.4431-.3209-1.043-.3125-1.578.2614-.1014.544-.164.8242-.1406zm.4941-3.078c-.4368.02708-.8667.1194-1.268.3125-.7683.3514-1.28 1.148-1.42 1.994-.1249.7567-.1332 1.556.09961 2.293.202.653.7186 1.201 1.369 1.361.6896.1705 1.461.1473 2.088-.2246.6194-.3492.9787-1.081.957-1.805-.001-.09207-.0045-.1838-.01367-.2754-.04134-.6588-.4671-1.285-1.08-1.49-.6828-.2404-1.451-.09744-2.051.3008.04133-.3968.2002-.795.5-1.055.4454-.3781 1.075-.4127 1.619-.3027.179.02424.3384.142.5215.1172-.0042-.3825-.0095-.7659-.01367-1.148-.4286-.0674-.8718-.1052-1.309-.07813zm-11.25.09961c-.4495.01994-.8935.1208-1.301.3262-.7632.371-1.257 1.184-1.379 2.035-.1298.9222-.02147 1.946.5508 2.699.5386.7191 1.449 1.016 2.299.998.6941.01993 1.366-.203 1.98-.5215-.0049-.4489-.0088-.8968-.01367-1.346-.0497-.1421-.2671.03101-.334.1152-.4666.4218-1.095.7214-1.725.5996-.5294-.06686-.986-.4675-1.164-.9863-.1779-.5322-.1817-1.126-.04297-1.668.146-.5485.5903-1.001 1.137-1.096.5966-.1407 1.201.1273 1.666.5039.1391.09788.252.2671.4375.2188-.0051-.466-.01046-.9305-.01563-1.396-.2197-.1417-.5013-.2433-.7598-.3281-.4317-.1145-.8865-.1742-1.336-.1543zm5.547-.04297c-.2145-.003-.4294.0064-.6426.03125-.7246.09112-1.495.4359-1.848 1.137-.2704.5996-.1721 1.399.3066 1.859.56.5063 1.326.6114 2.027.7539.3034.06538.7031.1412.8125.4922.08032.2878-.155.5242-.4004.5996-.8508.2391-1.777-2.6e-5-2.51-.4844-.1249-.08337-.2313-.2141-.3926-.1719.0051.466.01041.9324.01563 1.398.4349.1786.887.3204 1.352.3828.8608.09307 1.793.08705 2.561-.3809.5219-.3086.8994-.8999.8711-1.537.0043-.436-.1569-.8816-.4961-1.154-.5839-.4734-1.348-.5556-2.049-.7129-.2608-.074-.613-.1059-.7324-.4023-.1115-.2815.1212-.5513.3691-.6289.7035-.2402 1.482-.07021 2.125.2793.1904.06743.3181.3012.5352.252-.0049-.4478-.01076-.896-.01563-1.344-.603-.2307-1.245-.36-1.889-.3691z" stroke-width=".08706"/>
</g>
<path class="st70" d="m97.92 36.59c.02915-.02372.0649-.05103.1007-.07825 1.141-1.019 1.16-2.726.04278-3.815-1.113-1.082-2.944-1.13-4.085-.111-.02915.02372-.0572.06344-.08636.0872-.02915.02374-.06492.05101-.09407.07475-1.148 1.022-10.38 12.6-10.13 12.85.2172.2078 13.03-7.901 14.17-8.92.01847-.02656.05057-.05994.07975-.08371z" fill="#f9bd1a" stroke-width=".7397"/>
<path class="st71" d="m97.16 35.5c.01611-.01664.03579-.02722.0451-.04051.6157-.55.6322-1.47.02491-2.05-.6007-.584-1.583-.6095-2.206-.05607-.01611.01665-.0253.02997-.04508.0405-.01611.01664-.03579.02723-.05173.044-.6157.55-6.059 6.334-5.458 6.918s7.017-4.259 7.633-4.809c.02256-.02023.03847-.03699.05835-.0475z" fill="#f8eb32" stroke-width=".7397"/>
<g>
<g stroke-width=".7397">
<path class="st72" d="m111.3 32.71c-.4314-2.868-2.067-4.493-2.085-4.508-.0182-.01516-.0325-.02408-.0536-.02954l-.669-.1007c-.0315-.0081-.0617-.000358-.0909.02336l-6.066 4.417c-.0292.02372-.0572.06344-.0513.1015-.00045.04165.0294.0755.0581.09339.2131.1023.4234.2144.6166.3272.2899.1692.5533.3525.793.54l1.154-.8435c.0264-.01402.0568-.0218.0843-.01983l.6652.09447c.0209.0055.0459.01718.0641.03225.0182.01516 1.643 1.638 2.085 4.508.2784 1.831.091 4.439-1.678 7.655.0342-.0014.0683-.0031.0937-.03307 4.926-5.344 5.475-9.618 5.08-12.26z" fill="#1200a8"/>
<path class="st73" d="m107.9 37.35c-.4352-2.874-2.067-4.493-2.085-4.508-.0182-.01516-.0431-.02682-.0641-.03225l-.6652-.09447c-.0315-.0081-.0617-.000357-.0843.01983l-1.154.8435c4.667 3.644 2.3 11.21 2.271 11.29-.0203.05211.004.1055.0472.1323.0144.009.0315.0081.0486.0072 1.776-3.218 1.959-5.833 1.685-7.658z" fill="#0a005d"/>
<path class="st72" d="m103.4 23.09-.0825-.6269c-.005-.0222-.0166-.04085-.0283-.05956-.0182-.01517-1.688-1.597-4.753-2.117-2.812-.4797-7.42-.1314-13.34 4.234-.03303.01753-.04396.05644-.04555.08211 3.516-1.525 6.323-1.589 8.271-1.255 3.061.5132 4.731 2.095 4.753 2.117.01822.01516.02324.03737.02829.05956l.08254.6269c.0022.03191-.0059.06109-.02853.08131l-.9442 1.039c.1985.2342.381.4852.5515.7591.1162.1868.2231.3868.33.5868.0128.03467.05196.05525.09662.0564.04854.0072.08818-.01366.1173-.03737l4.972-5.468c.0161-.01664.0245-.04577.0219-.07781z" fill="#1200a8"/>
<path class="st73" d="m98.28 26.14-.08254-.6269c-.0049-.0222-.01011-.04437-.02829-.05956-.01821-.01515-1.688-1.597-4.753-2.117-1.948-.3336-4.755-.2693-8.271 1.255l.0035.04788c.02712.04359.08341.06342.1374.05135.09091-.02338 8.291-1.928 12.02 2.562l.9442-1.039c.02644-.01402.03465-.0432.03235-.07511z" fill="#0a005d"/>
</g>
<polygon class="st74" transform="matrix(.3874 .6226 -.6608 .3503 445.6 -321.9)" points="205.5 646 209.7 645 209.6 641.7 204.7 642.9" fill="#2b2d25"/>
</g>
<polygon class="st75" transform="matrix(.3874 .6226 -.6608 .3503 445.6 -321.9)" points="201.3 647.1 205.5 646 204.7 642.9 199.8 644.1" fill="#2b2d25"/>
<g stroke-width=".7397">
<path class="st73" d="m117.3 10.83c.8673.7159 1.721 1.48 2.557 2.287l2.797-2.51c-.0959.001-2.273-.1778-5.354.2223z" fill="#2c37a7"/>
<path class="st72" d="m122.7 10.55-2.808 2.507c.8361.807 1.615 1.636 2.354 2.47.5578-2.846.4565-4.887.4535-4.977z" fill="#3543c8"/>
<path class="st76" d="m122.2 15.53c-.732-.8373-1.518-1.663-2.354-2.47l-11.24 10.13c2.082 2.018 3.879 4.087 5.334 6.073 5.421-4.083 7.489-9.742 8.263-13.74z" fill="#08004c"/>
<path class="st77" d="m108.6 23.14-1.811 1.623c1.983 1.929 3.708 3.896 5.13 5.8.7207-.4235 1.388-.8766 2.016-1.35-1.455-1.986-3.253-4.055-5.334-6.073z" fill="#ebe8de"/>
<path class="st76" d="m106.8 24.75-7.38 6.612.6643.6579 2.023 1.966c4.002-.6728 7.224-1.893 9.816-3.432-1.405-1.905-3.134-3.878-5.123-5.804z" fill="#090051"/>
<path class="st78" d="m117.3 10.83c-4.308.5619-10.39 2.261-14.98 7.149 2.078 1.432 4.216 3.188 6.298 5.206l11.23-10.06c-.8256-.8042-1.679-1.569-2.55-2.291z" fill="#09004f"/>
<path class="st79" d="m102.3 17.95c-.5291.562-1.038 1.171-1.53 1.821 1.986 1.398 4.033 3.078 6.016 5.007l1.811-1.623c-2.082-2.018-4.22-3.774-6.298-5.206z" fill="#ddddca"/>
<path class="st78" d="m100.8 19.81c-1.759 2.357-3.19 5.31-4.067 9.012l2.023 1.966.6802.6412 7.38-6.612c-1.983-1.929-4.034-3.616-6.016-5.007z" fill="#090052"/>
<path class="st72" d="m106.3 25.29-11.13 9.966c.5045.486 7.056-4.619 8.829-6.205 1.773-1.586 2.808-3.269 2.3-3.761z" fill="#3543c8"/>
<path class="st73" d="m102.2 27.3c-1.773 1.586-7.503 7.489-7.005 7.978l11.13-9.966c-.5084-.4922-2.351.402-4.124 1.988z" fill="#2c37a7"/>
</g>
<polygon class="st8" transform="matrix(.1585 .2611 -.2704 .1469 252.1 -143.3)" points="216.7 597.4 218.8 607.9 208.6 611 219 608.9 222.2 619.1 220.1 608.6 230.3 605.6 219.8 607.6" fill="#fff"/>
<polygon class="st8" transform="matrix(.2035 .331 -.3471 .1863 254.1 -172.3)" points="175 644.2 178.8 637 174.2 643.8 167 639.9 173.8 644.5 170 651.7 174.5 644.9 181.7 648.8" fill="#fff"/>
<g transform="matrix(.04207 .03846 -.0439 .03994 107.2 12.91)">
<path d="m9.92 64.95 280-19.18 10.1 249.2h-300z" fill="#08004c"/>
<rect x="23.86" y="23.46" width="252.3" height="248.1" fill="#08004c"/>
<path d="m72.5 83.14s18.97-.499 34.58-.499c15.78 0 27.03 3.712 34.58 10.24 7.219 6.164 12.09 16.67 12.09 28.63s-3.694 21.75-10.41 28.63c-8.729 8.881-18.9 14.14-36.26 14.86-4.795.201-9.233.249-9.233.249v38.88h-25.35zm25.35 60.57c2.754.268 4.48.139 8.562.09 13.6-.163 21.99-8.432 21.99-20.94 0-11.23-6.919-20.46-19.97-20.94-5.203-.19-10.58 0-10.58 0z" fill="url(#SVGID_3_-7)"/>
<path d="m163.4 177.1c5.109 3.135 17.16 7.83 25.38 7.83 8.396 0 11.86-2.959 11.86-7.572 0-4.619-2.738-9.471-13.14-12.98-18.44-6.279-25.56-13.8-25.38-24.32 0-16.99 14.24-29.73 36.33-29.73 10.41 0 18.72 3.402 24.19 6.17v20.39c-4.019-2.218-15.61-7.17-23.28-7.17-6.758 0-10.59 2.769-10.59 7.382 0 4.248 3.471 6.464 14.42 10.34 16.98 5.908 24.1 14.58 24.28 27.88 0 16.8-12.95 30.17-38.7 29.36-8.835-.278-18.62-3.77-25.38-7.459v-20.13z" fill="url(#SVGID_4_-8)"/>
</g>
<g fill="#fff">
<polygon class="st8" transform="matrix(.1188 .2075 -.2027 .1168 179.8 -112.5)" points="219.8 607.6 216.7 597.4 218.8 607.9 208.6 611 219 608.9 222.2 619.1 220.1 608.6 230.3 605.6"/>
<polygon class="st8" transform="matrix(.1664 .308 -.2839 .1733 308.9 -167.5)" points="208.6 611 219 608.9 222.2 619.1 220.1 608.6 230.3 605.6 219.8 607.6 216.7 597.4 218.8 607.9"/>
<polygon class="st8" transform="matrix(.1664 .308 -.2839 .1733 157 -168.3)" points="222.2 619.1 220.1 608.6 230.3 605.6 219.8 607.6 216.7 597.4 218.8 607.9 208.6 611 219 608.9"/>
<polygon class="st8" transform="matrix(.2035 .331 -.3471 .1863 193.9 -170.2)" points="173.8 644.5 170 651.7 174.5 644.9 181.7 648.8 175 644.2 178.8 637 174.2 643.8 167 639.9"/>
<polygon class="st8" transform="matrix(.1777 .2613 -.303 .147 305.8 -133.4)" points="181.7 648.8 175 644.2 178.8 637 174.2 643.8 167 639.9 173.8 644.5 170 651.7 174.5 644.9"/>
<polygon class="st8" transform="matrix(.1444 .2105 -.2464 .1185 237.4 -107.2)" points="181.7 648.8 175 644.2 178.8 637 174.2 643.8 167 639.9 173.8 644.5 170 651.7 174.5 644.9"/>
</g>
</g>
</svg>
