<svg width="200" height="200" version="1.1" viewBox="0 -7 75 80" xmlns="http://www.w3.org/2000/svg">
<path d="m74.7 1v47.2h-73.2v-47.2m74.8-1.6h-76.4v54.8h29.6v8.8h-14.8c-.686.9333-.6491 1.867 0 2.8h45.6c.8952-1.266.5963-2.095 0-2.8h-14.8v-8.8l30.8-.17z" fill="#08004b"/>
<g>
<rect x="1.5" y="1" width="73.2" height="47.2" fill="#87befb" style="paint-order:fill markers stroke"/>
<rect transform="matrix(.9812 -.193 .1867 .9824 0 0)" x="16.4" y="32.15" width="15.49" height="15.08" fill="#08004b" stroke-width=".05137"/>
<rect transform="matrix(.9812 -.193 .1867 .9824 0 0)" x="42.15" y="37.44" width="15.49" height="15.08" fill="#08004b" stroke-width=".05137"/>
<g transform="matrix(.6074 0 0 .7159 -14.84 15.46)">
<g transform="translate(8.148 -8.78)" fill="#08004b">
<rect transform="matrix(.9982 .0593 -.07946 .9968 0 0)" x="35.52" y="23.31" width="25.46" height="21.1" stroke-width=".07791"/>
<g transform="matrix(.08473 .005033 -.005682 .07129 37.63 24.65)"></g>
</g>
</g>
<g transform="matrix(1.051 .07325 -.0655 1.028 .3206 -2.119)" fill="#87befb" aria-label="2">
<path d="m21.82 40.06h-7.369v-1.551c1.246-.9284 2.502-1.867 3.561-3.01.5617-.603 1.076-1.429.8372-2.284-.1772-.6594-.92-.931-1.543-.9021-.8803 5.8e-5-1.703.4057-2.433.851-.2202.07078-.1824-.1165-.1771-.2712v-1.815c1.434-.5387 3.032-.7701 4.54-.4228.9501.211 1.842.9032 2.057 1.886.2667 1.056-.05486 2.188-.7163 3.032-.812 1.075-1.899 1.897-2.975 2.69h4.217v1.797z" fill="#87befb" stroke-width="1.076"/>
</g>
<g transform="matrix(.6074 0 0 .7159 11.42 15.77)">
<g transform="translate(8.148 -8.78)" fill="#08004b">
<rect transform="matrix(.9982 .0593 -.07946 .9968 0 0)" x="35.52" y="23.31" width="25.46" height="21.1" stroke-width=".07791"/>
<g transform="matrix(.08473 .005033 -.005682 .07129 37.63 24.65)"></g>
</g>
</g>
<g fill="#87befb">
<g transform="matrix(1.016 -.1996 .1945 1.03 .3206 -2.119)" aria-label="0">
<path d="m26.21 39.87c-.01885 1.199-.1169 2.484-.8095 3.505-.604.8878-1.7 1.266-2.736 1.28-1.105.05082-2.332-.1809-3.078-1.071-.8257-.9845-.9506-2.33-.9803-3.564.000794-1.303.1012-2.724.9338-3.792.7367-.9337 1.998-1.184 3.126-1.13 1.042.01664 2.145.4104 2.741 1.312.6871 1.006.7875 2.278.8026 3.46zm-2.389 0c-.02388-.8519-.0011-1.765-.4157-2.537-.4141-.7611-1.689-.7152-2.042.08041-.3848.8293-.3575 1.774-.3684 2.669.03424.8104.02936 1.69.4715 2.402.4467.7027 1.647.6113 1.978-.158.3619-.7586.3582-1.635.3766-2.458z" fill="#87befb" stroke-width="1.053"/>
</g>
<g transform="matrix(1.042 -.2119 .2062 .9993 5.546 9.295)" aria-label="1">
<path d="m46.31 39.16h-6.571v-1.719h2.076v-5.203h-2.076v-1.606q.476 0 .9123-.05289.4363-.0595.7272-.1983.3438-.1653.5156-.4297.1719-.2644.1983-.6611h2.188v8.151h2.03z" fill="#87befb" stroke-width="1.128"/>
</g>
<g transform="matrix(1.051 .07325 -.0655 1.028 27.52 -2.119)" aria-label="2">
<path d="m21.82 40.06h-7.369v-1.551c1.246-.9284 2.502-1.867 3.561-3.01.5617-.603 1.076-1.429.8372-2.284-.1772-.6594-.92-.931-1.543-.9021-.8803 5.8e-5-1.703.4057-2.433.851-.2202.07078-.1824-.1165-.1771-.2712v-1.815c1.434-.5387 3.032-.7701 4.54-.4228.9501.211 1.842.9032 2.057 1.886.2667 1.056-.05486 2.188-.7163 3.032-.812 1.075-1.899 1.897-2.975 2.69h4.217v1.797z" fill="#87befb" stroke-width="1.076"/>
</g>
</g>
</g>
<g transform="matrix(.3181 .01351 -.02113 .3697 -3.352 2.432)">
<rect transform="matrix(.9982 .0593 -.07946 .9968 0 0)" x="35.52" y="23.31" width="25.46" height="21.1" fill="#08004b" stroke-width=".07791"/>
</g>
<path d="m11.18 15.61c.06463-.3938-.1986-.7326-.5085-.8047-.2738-.07111-.5574-.08865-.8377-.1232l-.2145 1.701c.371.03012.7529.1332 1.122-.01511.2696-.1157.4088-.4456.439-.7575zm1.283.1088c-.07381.6114-.3788 1.213-.8594 1.513-.4477.3293-.982.3664-1.476.2913l-.6432-.07201-.2332 1.85-1.237-.1385.716-5.677c.7599.08931 1.522.1614 2.28.263.5558.08944 1.149.3859 1.374 1.022.1077.2937.119.6288.07751.9503z" fill="#87befb" stroke-width=".3388"/>
<rect transform="matrix(.989 -.1482 .1332 .9911 0 0)" x="10.67" y="14.86" width="8.135" height="7.784" fill="#08004b" stroke-width=".02675"/>
<path d="m18.98 19.27-1.175.03572c-.01841-.8099-.02058-1.62-.05062-2.429-.02555-.2917-.02828-.6813-.2995-.8077-.3451-.1386-.7261-.01012-1.022.223l.05459 3.054-1.168.03552-.1066-5.968 1.168-.03552.03821 2.137c.3632-.3619.8092-.6624 1.298-.6328.4344-.0132.8878.2499 1.066.7346.1968.5083.1354 1.079.1596 1.622.01211.6777.02424 1.356.03636 2.033z" fill="#87befb" stroke-width=".3388"/>
<rect transform="matrix(.9929 .1193 -.133 .9911 0 0)" x="21.76" y="10.38" width="8.103" height="7.815" fill="#08004b" stroke-width=".02675"/>
<rect transform="matrix(.9931 -.1175 .1024 .9947 0 0)" x="23.49" y="16.33" width="8.132" height="7.788" fill="#08004b" stroke-width=".02675"/>
<path d="m23.97 18.43c.3015-.3443.3544-.8596.3939-1.313.02511-.3859-.03496-.8602-.3618-1.029-.2883-.1487-.6911-.1374-.9128.1935-.2635.3865-.3211.8951-.3451 1.361-.01639.3672.08273.7937.3972.9275.2606.1152.6079.1197.8285-.14zm1.565-.869c-.07761.649-.3524 1.31-.8401 1.683-.5466.4297-1.235.432-1.83.2737-.5195-.1332-.9955-.5252-1.192-1.114-.2118-.6213-.1454-1.349.05759-1.989.201-.6308.6772-1.143 1.233-1.302.5298-.1532 1.089-.09331 1.583.1187.527.225.9198.79.9991 1.45.03921.2878.02943.5857-.0097.8776z" fill="#87befb" stroke-width=".3388"/>
<path d="m30.7 19.6c-.4816.1404-.9923.1843-1.478.0668-.311-.0757-.6072-.3165-.7001-.6895-.1234-.4426-.06911-.9154-.07995-1.375l.0027-1.314-.4805.0051.002-.9365.4805-.0051.0025-1.232 1.168-.01238-.0025 1.232 1.094-.01159-.002.9365-1.094.01159c.0016.6683-.0099 1.337.0036 2.005.0068.2535.1672.493.3918.4977.2118.0421.4224-.04848.6185-.1262.1038-.04041.07041.08245.07423.161-.000537.2621-.0011.5244-.0017.786z" fill="#87befb" stroke-width=".3388"/>
<g transform="matrix(.3353 .1449 -.1802 .4054 -.5765 -11.9)">
<g transform="matrix(.08442 0 0 .07044 55.7 24.31)" fill="#87befb"></g>
</g>
<g transform="matrix(.3812 0 0 .435 -10.14 -4.563)">
<g fill="#08004b">
<g transform="matrix(.08468 .005622 -.006346 .07125 75.8 25.5)"></g>
<g transform="matrix(.08384 -.01168 .01318 .07054 92.6 27.07)"></g>
<path d="m113.5 58.55 13.2 6.91 14.29-7.465-.1789-33.47-14.47 9.117-13.67-9.07z" stroke-width=".09415"/>
<g transform="matrix(.08465 .00589 -.006649 .07123 115.1 25.59)"></g>
</g>
<path d="m129.6 52.84c1.039-1.442.898-3.392.7445-5.106-.1664-1.452-.7582-3.19-2.267-3.647-1.332-.4034-3.037-.1505-3.746 1.2-.847 1.579-.7316 3.507-.5032 5.259.1904 1.378.9142 2.917 2.346 3.252 1.19.2931 2.671.1279 3.425-.9563zm6.04-4.061c.1297 2.461-.5705 5.071-2.381 6.718-2.021 1.889-4.945 2.258-7.59 1.98-2.304-.2244-4.606-1.437-5.858-3.528-1.341-2.206-1.574-4.955-1.164-7.446.4079-2.458 2.072-4.618 4.321-5.501 2.145-.8491 4.564-.9185 6.816-.3868 2.401.5628 4.471 2.465 5.277 4.885.3706 1.053.5403 2.168.5804 3.278z" fill="#87befb" stroke-width="1.365"/>
<g fill="#08004b">
<g transform="matrix(.08412 -.01008 .01138 .07078 144.6 29.61)"></g>
<g transform="matrix(.08468 .005571 -.006289 .07125 155.3 25.58)"></g>
<g transform="matrix(.08438 -.008329 .009402 .07099 172.3 26.37)"></g>
<g transform="matrix(.08466 .005806 -.006554 .07123 195.1 25.82)"></g>
</g>
</g>
<rect transform="matrix(.9934 -.1143 .1766 .9843 0 0)" x="39.4" y="18.02" width="8.046" height="7.543" fill="#08004b" stroke-width=".02618"/>
<path d="m48.44 17.29c.06966.4641-.1446.9005-.4693 1.136-.494.3698-1.131.42-1.732.3915-.3552-.02681-.7134-.1033-1.056-.2432l-.1292-1.087c.1208-.03886.2174.07891.3244.1367.5362.2888 1.155.4143 1.702.2312.1901-.04087.2825-.3445.1006-.4935-.2592-.1424-.5482-.1431-.8228-.1847-.4299-.06166-.9142-.1692-1.222-.5761-.3175-.4313-.3536-1.096-.04473-1.487.3737-.5074.9959-.654 1.578-.6705.4315-.0099.8726.06282 1.293.2203l.124 1.043c-.1571.03595-.2845-.1421-.4376-.1791-.4561-.1996-.9725-.2884-1.413-.09552-.1917.04872-.2568.3548-.07007.4916.2584.1385.5449.1405.8176.1899.4162.05357.8868.1329 1.197.5164.15.1841.2328.4233.2598.6609z" fill="#87befb" stroke-width=".3314"/>
<rect transform="matrix(.9958 .09174 -.04364 .999 0 0)" x="49.7" y="8.447" width="8.139" height="7.449" fill="#08004b" stroke-width=".02617"/>
<path d="m54.93 19.96-1.174-.02784c-.02636-.7762-.03649-1.552-.07448-2.328-.02868-.2806-.03494-.6541-.3073-.7893-.3463-.1509-.7261-.04806-1.019.1595l.08454 2.926-1.167-.02768-.1652-5.719 1.167.02768.05916 2.048c.3594-.3273.8022-.5914 1.292-.5374.4341.01021.8897.2861 1.073.7596.2017.4968.1459 1.04.1755 1.561.01877.6495.03752 1.299.05629 1.949z" fill="#87befb" stroke-width=".3314"/>
<rect transform="matrix(.9959 -.09092 .1523 .9883 0 0)" x="51.98" y="18.32" width="8.058" height="7.532" fill="#08004b" stroke-width=".02618"/>
<path d="m59.84 17.73c.2094-.3829.1358-.8744.06412-1.306-.06913-.3655-.2426-.7961-.601-.887-.3162-.08022-.7047.01222-.8398.3663-.1624.4143-.09487.901-.005 1.341.07314.3462.2729.724.6107.7854.2811.05462.6198-.01182.771-.2991zm1.309-1.129c.082.6218-.0246 1.295-.408 1.742-.427.5121-1.095.6543-1.712.6277-.537-.01872-1.094-.288-1.428-.7974-.3564-.5369-.4684-1.23-.4262-1.868.04225-.6297.3809-1.204.8819-1.466.4774-.2507 1.035-.3084 1.566-.2109.5665.1029 1.085.5508 1.322 1.151.1079.2607.1706.5408.2034.8212z" fill="#87befb" stroke-width=".3314"/>
<rect transform="matrix(.9955 .09478 -.047 .9989 0 0)" x="62.41" y="7.416" width="8.141" height="7.447" fill="#08004b" stroke-width=".02617"/>
<g transform="matrix(.04524 .004307 -.002026 .04305 -6.222 4.759)">
<g transform="matrix(6.336,0,0,7.305,-167,-159.9)" fill="#87befb" aria-label="Photoshop CS6">
<path d="m280.9 37.93c-.0138-1.176-.1247-2.627-1.212-3.295-1.194-.6377-2.66-.2965-3.775.3619v6.576c.9714.3259 2.058.3509 3.043.0712 1.311-.3809 1.873-1.842 1.923-3.127.0134-.1954.0194-.3913.0194-.5872zm4.195-.0815c.0318 2.464-1.01 5.117-3.206 6.316-1.855 1.027-4.177.7931-5.976-.2522v5.447h-4.071v-17.87h4.071v1.362c1.218-1.015 2.707-1.829 4.32-1.721 1.611-.0252 3.168.9143 3.92 2.384.7257 1.308.9397 2.845.9419 4.331z" stroke-width="1.101"/>
</g>
</g>
</svg>
