<svg width="200" height="200" version="1.1" viewBox="0 -7 75 80" xmlns="http://www.w3.org/2000/svg">
<path d="m74.7 1v47.2h-73.2v-47.2m74.8-1.6h-76.4v54.8h29.6v8.8h-14.8c-.686.9333-.6491 1.867 0 2.8h45.6c.8952-1.266.5963-2.095 0-2.8h-14.8v-8.8l30.8-.17z" fill="#08004b"/>
<rect x="1.5" y="1" width="73.2" height="47.2" fill="#87befb" style="paint-order:fill markers stroke"/>
<g transform="matrix(.3353 .1449 -.1802 .4054 -.5765 -11.9)"></g>
<rect transform="matrix(.9812 -.193 .1867 .9824 0 0)" x="16.4" y="32.14" width="15.49" height="15.08" fill="#08004b" stroke-width=".05137"/>
<rect transform="matrix(.9812 -.193 .1867 .9824 0 0)" x="42.15" y="37.43" width="15.49" height="15.08" fill="#08004b" stroke-width=".05137"/>
<g transform="matrix(.6074 0 0 .7159 -14.84 15.46)">
<g transform="translate(8.148,-8.78)" fill="#08004b">
<rect transform="matrix(.9982 .0593 -.07946 .9968 0 0)" x="35.52" y="23.31" width="25.46" height="21.1" stroke-width=".07791"/>
</g>
</g>
<g transform="matrix(1.051 .07325 -.0655 1.028 .3231 -2.124)" fill="#87befb" aria-label="2">
<path d="m21.82 40.06h-7.369v-1.551c1.246-.9284 2.502-1.867 3.561-3.01.5617-.603 1.076-1.429.8372-2.284-.1772-.6594-.92-.931-1.543-.9021-.8803 5.8e-5-1.703.4057-2.433.851-.2202.07078-.1824-.1165-.1771-.2712v-1.815c1.434-.5387 3.032-.7701 4.54-.4228.9501.211 1.842.9032 2.057 1.886.2667 1.056-.05486 2.188-.7163 3.032-.812 1.075-1.899 1.897-2.975 2.69h4.217v1.797z" fill="#87befb" stroke-width="1.076"/>
</g>
<g transform="matrix(.6074 0 0 .7159 11.42 15.77)">
<g transform="translate(8.148,-8.78)" fill="#08004b">
<rect transform="matrix(.9982 .0593 -.07946 .9968 0 0)" x="35.52" y="23.31" width="25.46" height="21.1" stroke-width=".07791"/>
</g>
</g>
<g transform="translate(-.4769 -1.562)" fill="#87befb">
<g transform="matrix(1.016 -.1996 .1945 1.03 .8 -.5612)" aria-label="0">
<path d="m26.21 39.87c-.01885 1.199-.1169 2.484-.8095 3.505-.604.8878-1.7 1.266-2.736 1.28-1.105.05082-2.332-.1809-3.078-1.071-.8257-.9845-.9506-2.33-.9803-3.564.000794-1.303.1012-2.724.9338-3.792.7367-.9337 1.998-1.184 3.126-1.13 1.042.01664 2.145.4104 2.741 1.312.6871 1.006.7875 2.278.8026 3.46zm-2.389 0c-.02388-.8519-.0011-1.765-.4157-2.537-.4141-.7611-1.689-.7152-2.042.08041-.3848.8293-.3575 1.774-.3684 2.669.03424.8104.02936 1.69.4715 2.402.4467.7027 1.647.6113 1.978-.158.3619-.7586.3582-1.635.3766-2.458z" fill="#87befb" stroke-width="1.053"/>
</g>
<g transform="matrix(1.061 .07476 -.06881 1.018 .8 -.5612)" aria-label="1">
<path d="m46.31 39.16h-6.571v-1.719h2.076v-5.203h-2.076v-1.606q.476 0 .9123-.05289.4363-.0595.7272-.1983.3438-.1653.5156-.4297.1719-.2644.1983-.6611h2.188v8.151h2.03z" fill="#87befb" stroke-width="1.128"/>
</g>
<g transform="matrix(.9483 -.1312 .2169 1.025 0 0)" aria-label="9">
<path d="m56.61 41.37c-.0081 1.635-.3744 3.412-1.599 4.585-1.212 1.185-3 1.489-4.633 1.404-.4827-.02984-.9672-.06904-1.442-.163v-2.052c.3858-.04895.7098.2236 1.089.2591 1.069.1559 2.327.07135 3.114-.7621.4378-.4462.67-1.055.7471-1.668-.7332.4395-1.56.7655-2.43.7212-1.117.0253-2.304-.4351-2.892-1.431-.5483-.8948-.5823-2.03-.3452-3.028.3944-1.515 1.883-2.54 3.401-2.667 1.398-.1503 2.983.1114 3.936 1.237.849.9736 1.054 2.316 1.053 3.565zm-2.682-.3921c-.0104-.8596-.09847-1.881-.835-2.447-.6696-.4489-1.7-.2189-2.053.5273-.3164.6413-.3543 1.462-.02133 2.104.4272.7239 1.386.7781 2.132.6687.4539-.0455.9326-.16.7763-.7181l.000656-.06521.000219-.06958z" fill="#87befb" stroke-width="1.195"/>
</g>
</g>
<g transform="matrix(.3526 .02026 -.02342 .5543 -7.5 -7.376)">
<rect transform="matrix(.9982 .0593 -.07946 .9968 0 0)" x="35.52" y="23.31" width="25.46" height="21.1" fill="#08004b" stroke-width=".07791"/>
</g>
<g fill="#08004b">
<rect transform="matrix(.9801 -.1986 .09887 .9951 0 0)" x="9.246" y="10.58" width="9.1" height="11.62" stroke-width=".03457"/>
<rect transform="matrix(.987 .1604 -.09873 .9951 0 0)" x="19.4" y="5.208" width="9.035" height="11.67" stroke-width=".03452"/>
<rect transform="matrix(.9874 -.158 .07589 .9971 0 0)" x="23.24" y="12.9" width="9.066" height="11.65" stroke-width=".03454"/>
</g>
<g transform="matrix(.3812 0 0 .435 -9.817 -4.761)" fill="#08004b">
<g transform="matrix(1.109 0 0 1.276 -13.66 -16.69)">
<path d="m113.5 56.78 13.2 4.796 14.29-5.181-.1789-23.23-14.47 6.328-13.67-6.295z" stroke-width=".07844"/>
</g>
</g>
<g fill="#08004b">
<rect transform="matrix(.9881 -.1538 .1315 .9913 0 0)" x="41.61" y="15.35" width="8.967" height="11.23" stroke-width=".03372"/>
<rect transform="matrix(.9923 .1237 -.03228 .9995 0 0)" x="51.13" y="2.145" width="9.054" height="11.16" stroke-width=".03379"/>
<rect transform="matrix(.9925 -.1226 .1132 .9936 0 0)" x="55.31" y="15.92" width="8.963" height="11.23" stroke-width=".03372"/>
<rect transform="matrix(.9918 .1277 -.03476 .9994 0 0)" x="65.26" y=".619" width="9.058" height="11.16" stroke-width=".03379"/>
</g>
<g transform="matrix(.9958 0 0 1.004 .3234 -.1982)" fill="#87befb" stroke-width=".9535" aria-label="Фотошоп">
<path d="m17.45 11.21q.4916.4134.7542 1.022.2682.6034.2682 1.385 0 .771-.2737 1.38-.2737.6089-.7877 1.039-.5251.4302-1.212.6704-.6816.2402-1.587.3017v.9106h-2.134v-.9106q-.8771-.06145-1.587-.3017-.7095-.2458-1.218-.676-.5084-.4302-.7821-1.034t-.2737-1.38q0-.7821.2626-1.369.2626-.5866.7598-1.011.486-.4078 1.218-.6481.7319-.2458 1.62-.3129v-.8492h2.134v.8492q.9218.05028 1.626.2849.7095.2291 1.212.6481zm-1.196 2.374q0-.8045-.4246-1.307-.4246-.5028-1.218-.6089v3.955q.9218-.162 1.279-.6536.3631-.4972.3631-1.385zm-3.777 2.039v-3.955q-.8157.1229-1.229.6034-.4134.4749-.4134 1.313 0 .8771.3687 1.38.3743.4972 1.274.6592z"/>
<path d="m26.37 14.71q0 1.548-.905 2.441-.8995.8883-2.531.8883-1.631 0-2.536-.8883-.8995-.8939-.8995-2.441 0-1.559.905-2.447.9106-.8883 2.531-.8883 1.642 0 2.536.8939.8995.8939.8995 2.441zm-2.475 1.525q.1955-.2402.2905-.5754.1006-.3408.1006-.9386 0-.5531-.1006-.9274-.1006-.3743-.2793-.5978-.1788-.2291-.4302-.324-.2514-.09497-.5419-.09497t-.5196.07821q-.2235.07821-.4302.3129-.1844.2179-.2961.5978-.1061.3799-.1061.9553 0 .514.09497.8939.09497.3743.2793.6034.1788.2179.4246.3184.2514.1006.5698.1006.2737 0 .5196-.08939.2514-.09497.4246-.3129z"/>
<path d="m32.94 12.94h-2v4.911h-2.011v-4.911h-2v-1.363h6.011z"/>
<path d="m40.36 14.71q0 1.548-.905 2.441-.8995.8883-2.531.8883t-2.536-.8883q-.8995-.8939-.8995-2.441 0-1.559.905-2.447.9106-.8883 2.531-.8883 1.642 0 2.536.8939.8995.8939.8995 2.441zm-2.475 1.525q.1955-.2402.2905-.5754.1006-.3408.1006-.9386 0-.5531-.1006-.9274-.1006-.3743-.2793-.5978-.1788-.2291-.4302-.324-.2514-.09497-.5419-.09497t-.5196.07821q-.2235.07821-.4302.3129-.1844.2179-.2961.5978-.1061.3799-.1061.9553 0 .514.09497.8939.09497.3743.2793.6034.1788.2179.4246.3184.2514.1006.5698.1006.2737 0 .5196-.08939.2514-.09497.4246-.3129z"/>
<path d="m51.38 17.85h-9.57v-6.274h2.006v4.894h1.777v-4.894h2.006v4.894h1.777v-4.894h2.006z"/>
<path d="m59.69 14.71q0 1.548-.905 2.441-.8995.8883-2.531.8883-1.631 0-2.536-.8883-.8995-.8939-.8995-2.441 0-1.559.905-2.447.9106-.8883 2.531-.8883 1.642 0 2.536.8939.8995.8939.8995 2.441zm-2.475 1.525q.1955-.2402.2905-.5754.1006-.3408.1006-.9386 0-.5531-.1006-.9274-.1006-.3743-.2793-.5978-.1788-.2291-.4302-.324-.2514-.09497-.5419-.09497t-.5196.07821q-.2235.07821-.4302.3129-.1844.2179-.2961.5978-.1061.3799-.1061.9553 0 .514.09497.8939.09497.3743.2793.6034.1788.2179.4246.3184.2514.1006.5698.1006.2737 0 .5196-.08939.2514-.09497.4246-.3129z"/>
<path d="m67.48 17.85h-2.011v-4.911h-2.313v4.911h-2.011v-6.274h6.335z"/>
</g>
</svg>
