<svg width="200" height="200" version="1.1" viewBox="0 -7 75 80" xmlns="http://www.w3.org/2000/svg">
<path d="m74.7 1v47.2h-73.2v-47.2m74.8-1.6h-76.4v54.8h29.6v8.8h-14.8c-.686.9333-.6491 1.867 0 2.8h45.6c.8952-1.266.5963-2.095 0-2.8h-14.8v-8.8l30.8-.17z" fill="#08004b"/>
<rect x="1.5" y="1" width="73.2" height="47.2" fill="#87befb" style="paint-order:fill markers stroke"/>
<rect transform="matrix(.9812 -.193 .1867 .9824 0 0)" x="16.4" y="32.14" width="15.49" height="15.08" fill="#08004b" stroke-width=".05137"/>
<rect transform="matrix(.9812 -.193 .1867 .9824 0 0)" x="42.15" y="37.43" width="15.49" height="15.08" fill="#08004b" stroke-width=".05137"/>
<g transform="matrix(.6074 0 0 .7159 -14.84 15.46)">
<g transform="translate(8.148,-8.78)" fill="#08004b">
<rect transform="matrix(.9982 .0593 -.07946 .9968 0 0)" x="35.52" y="23.31" width="25.46" height="21.1" stroke-width=".07791"/>
</g>
</g>
<g transform="matrix(1.051 .07325 -.0655 1.028 .3231 -2.124)" fill="#87befb" aria-label="2">
<path d="m21.82 40.06h-7.369v-1.551q.8447-.6115 1.689-1.299.851-.6871 1.362-1.185.7627-.7375 1.084-1.286.3215-.5484.3215-1.084 0-.643-.416-.9897-.4097-.353-1.185-.353-.5799 0-1.223.2395-.6367.2395-1.185.6115h-.2017v-2.087q.4476-.1954 1.317-.3908.8762-.1954 1.752-.1954 1.765 0 2.692.7438.9266.7375.9266 2.093 0 .8888-.4476 1.689-.4413.8006-1.355 1.652-.5736.5295-1.154.9771-.5799.4413-.8258.6178h4.217z" fill="#87befb" stroke-width="1.076"/>
</g>
<g transform="matrix(.6074 0 0 .7159 11.42 15.77)">
<g transform="translate(8.148,-8.78)" fill="#08004b">
<rect transform="matrix(.9982 .0593 -.07946 .9968 0 0)" x="35.52" y="23.31" width="25.46" height="21.1" stroke-width=".07791"/>
</g>
</g>
<g transform="translate(-.4769 -1.562)" fill="#87befb">
<g transform="matrix(1.016 -.1996 .1945 1.03 .8 -.5612)" aria-label="0">
<path d="m26.21 39.87q0 1.16-.2099 2.08-.2099.9135-.6543 1.5-.4568.5987-1.173.9073-.716.3024-1.765.3024-1.031 0-1.759-.3086-.7283-.3086-1.179-.9135-.4568-.6049-.6604-1.5-.2037-.9012-.2037-2.062 0-1.197.2099-2.08t.6666-1.494q.4568-.6049 1.185-.9073.7283-.3024 1.741-.3024 1.055 0 1.771.3148.716.3086 1.173.9258.4506.6049.6543 1.494.2037.8826.2037 2.043zm-2.389 0q0-1.667-.3271-2.37-.3271-.7098-1.086-.7098-.7592 0-1.086.7098-.3271.7036-.3271 2.383 0 1.636.3333 2.358.3333.7222 1.08.7222t1.08-.7222.3333-2.37z" fill="#87befb" stroke-width="1.053"/>
</g>
<g transform="matrix(1.061 .07476 -.06881 1.018 .8 -.5612)" aria-label="1">
<path d="m46.31 39.16h-6.571v-1.719h2.076v-5.203h-2.076v-1.606q.476 0 .9123-.05289.4363-.0595.7272-.1983.3438-.1653.5156-.4297.1719-.2644.1983-.6611h2.188v8.151h2.03z" fill="#87befb" stroke-width="1.128"/>
</g>
<g transform="matrix(.9252 -.1899 .2203 1.036 0 0)" fill="#87befb" aria-label="7">
<path d="m55.92 42.01-4.305 7.62h-2.734l4.471-7.69h-4.886v-1.82h7.454z" fill="#87befb" stroke-width="1.09"/>
</g>
</g>
<g transform="matrix(.3526 .02026 -.02342 .5543 -7.839 -6.529)">
<rect transform="matrix(.9982 .0593 -.07946 .9968 0 0)" x="35.52" y="23.31" width="25.46" height="21.1" fill="#08004b" stroke-width=".07791"/>
</g>
<g fill="#08004b">
<rect transform="matrix(.9801 -.1986 .09887 .9951 0 0)" x="8.823" y="11.34" width="9.1" height="11.62" stroke-width=".03457"/>
<rect transform="matrix(.987 .1604 -.09873 .9951 0 0)" x="19.15" y="6.1" width="9.035" height="11.67" stroke-width=".03452"/>
<rect transform="matrix(.9874 -.158 .07589 .9971 0 0)" x="22.84" y="13.69" width="9.066" height="11.65" stroke-width=".03454"/>
</g>
<g transform="matrix(.3812 0 0 .435 -10.16 -3.914)" fill="#08004b">
<g transform="matrix(1.109 0 0 1.276 -13.66 -16.69)">
<path d="m113.5 56.78 13.2 4.796 14.29-5.181-.1789-23.23-14.47 6.328-13.67-6.295z" stroke-width=".07844"/>
</g>
</g>
<g fill="#08004b">
<rect transform="matrix(.9881 -.1538 .1315 .9913 0 0)" x="41.16" y="16.14" width="8.967" height="11.23" stroke-width=".03372"/>
<rect transform="matrix(.9923 .1237 -.03228 .9995 0 0)" x="50.82" y="3.031" width="9.054" height="11.16" stroke-width=".03379"/>
<rect transform="matrix(.9925 -.1226 .1132 .9936 0 0)" x="54.87" y="16.72" width="8.963" height="11.23" stroke-width=".03372"/>
<rect transform="matrix(.9918 .1277 -.03476 .9994 0 0)" x="64.95" y="1.507" width="9.058" height="11.16" stroke-width=".03379"/>
</g>
<g transform="matrix(.9958 0 0 1.004 -.01559 .6492)" fill="#87befb" stroke-width=".9535" aria-label="Фотошоп">
<path d="m17.45 11.21q.4916.4134.7542 1.022.2682.6034.2682 1.385 0 .771-.2737 1.38-.2737.6089-.7877 1.039-.5251.4302-1.212.6704-.6816.2402-1.587.3017v.9106h-2.134v-.9106q-.8771-.06145-1.587-.3017-.7095-.2458-1.218-.676-.5084-.4302-.7821-1.034t-.2737-1.38q0-.7821.2626-1.369.2626-.5866.7598-1.011.486-.4078 1.218-.6481.7319-.2458 1.62-.3129v-.8492h2.134v.8492q.9218.05028 1.626.2849.7095.2291 1.212.6481zm-1.196 2.374q0-.8045-.4246-1.307-.4246-.5028-1.218-.6089v3.955q.9218-.162 1.279-.6536.3631-.4972.3631-1.385zm-3.777 2.039v-3.955q-.8157.1229-1.229.6034-.4134.4749-.4134 1.313 0 .8771.3687 1.38.3743.4972 1.274.6592z"/>
<path d="m26.37 14.71q0 1.548-.905 2.441-.8995.8883-2.531.8883-1.631 0-2.536-.8883-.8995-.8939-.8995-2.441 0-1.559.905-2.447.9106-.8883 2.531-.8883 1.642 0 2.536.8939.8995.8939.8995 2.441zm-2.475 1.525q.1955-.2402.2905-.5754.1006-.3408.1006-.9386 0-.5531-.1006-.9274-.1006-.3743-.2793-.5978-.1788-.2291-.4302-.324-.2514-.09497-.5419-.09497t-.5196.07821q-.2235.07821-.4302.3129-.1844.2179-.2961.5978-.1061.3799-.1061.9553 0 .514.09497.8939.09497.3743.2793.6034.1788.2179.4246.3184.2514.1006.5698.1006.2737 0 .5196-.08939.2514-.09497.4246-.3129z"/>
<path d="m32.94 12.94h-2v4.911h-2.011v-4.911h-2v-1.363h6.011z"/>
<path d="m40.36 14.71q0 1.548-.905 2.441-.8995.8883-2.531.8883t-2.536-.8883q-.8995-.8939-.8995-2.441 0-1.559.905-2.447.9106-.8883 2.531-.8883 1.642 0 2.536.8939.8995.8939.8995 2.441zm-2.475 1.525q.1955-.2402.2905-.5754.1006-.3408.1006-.9386 0-.5531-.1006-.9274-.1006-.3743-.2793-.5978-.1788-.2291-.4302-.324-.2514-.09497-.5419-.09497t-.5196.07821q-.2235.07821-.4302.3129-.1844.2179-.2961.5978-.1061.3799-.1061.9553 0 .514.09497.8939.09497.3743.2793.6034.1788.2179.4246.3184.2514.1006.5698.1006.2737 0 .5196-.08939.2514-.09497.4246-.3129z"/>
<path d="m51.38 17.85h-9.57v-6.274h2.006v4.894h1.777v-4.894h2.006v4.894h1.777v-4.894h2.006z"/>
<path d="m59.69 14.71q0 1.548-.905 2.441-.8995.8883-2.531.8883-1.631 0-2.536-.8883-.8995-.8939-.8995-2.441 0-1.559.905-2.447.9106-.8883 2.531-.8883 1.642 0 2.536.8939.8995.8939.8995 2.441zm-2.475 1.525q.1955-.2402.2905-.5754.1006-.3408.1006-.9386 0-.5531-.1006-.9274-.1006-.3743-.2793-.5978-.1788-.2291-.4302-.324-.2514-.09497-.5419-.09497t-.5196.07821q-.2235.07821-.4302.3129-.1844.2179-.2961.5978-.1061.3799-.1061.9553 0 .514.09497.8939.09497.3743.2793.6034.1788.2179.4246.3184.2514.1006.5698.1006.2737 0 .5196-.08939.2514-.09497.4246-.3129z"/>
<path d="m67.48 17.85h-2.011v-4.911h-2.313v4.911h-2.011v-6.274h6.335z"/>
</g>
</svg>
